{"glyphs":{"0":{"ha":659,"x_min":16,"x_max":633,"o":"m 327 612 q 543 518 453 612 q 633 293 633 425 q 543 68 633 161 q 326 -24 453 -24 q 108 68 199 -24 q 16 293 16 160 q 108 518 16 425 q 327 612 199 612 m 481 465 q 448 499 481 465 q 326 534 415 534 q 172 465 236 534 q 109 298 109 395 q 174 129 109 199 q 330 58 239 58 q 481 125 416 58 q 547 293 547 191 q 481 465 547 395 z "},"1":{"ha":494,"x_min":37,"x_max":442,"o":"m 144 585 q 163 585 144 585 q 228 585 183 585 q 311 585 273 585 q 372 587 350 586 q 397 589 393 589 q 416 559 416 589 q 351 532 416 534 q 312 529 327 530 q 293 507 293 528 l 293 84 q 317 56 293 57 q 348 54 332 54 q 374 52 363 53 q 395 51 384 52 q 411 49 406 50 q 423 46 416 47 q 433 42 430 45 q 438 36 435 39 q 441 28 441 33 q 442 16 442 23 q 418 -8 442 -8 q 407 -7 416 -8 q 381 -5 397 -7 q 345 -3 365 -4 q 298 -1 324 -1 q 245 0 271 0 q 194 -1 220 0 q 148 -3 168 -1 q 112 -5 127 -4 q 87 -7 96 -7 q 76 -8 77 -8 q 57 20 57 -8 q 81 47 57 45 q 132 52 102 49 q 179 57 171 53 q 187 80 187 61 l 187 507 q 167 529 187 526 q 57 534 60 534 q 37 567 37 540 q 57 589 37 589 q 83 587 61 589 q 144 585 104 586 z "},"2":{"ha":624,"x_min":35,"x_max":582,"o":"m 106 -18 q 68 8 68 -18 q 71 20 68 15 q 82 31 73 24 q 102 44 91 38 q 134 64 113 50 q 178 96 156 79 q 350 267 277 175 q 384 347 384 312 q 324 457 384 411 q 199 503 264 503 q 117 473 148 503 q 84 404 87 444 q 64 368 84 368 l 62 368 q 35 418 35 368 q 90 541 35 492 q 227 589 144 589 q 397 531 324 589 q 469 387 469 473 q 449 307 469 347 q 410 244 429 266 q 340 172 392 222 q 270 102 289 122 q 264 92 264 94 q 279 80 264 80 q 381 85 311 80 q 471 112 434 90 q 540 201 509 134 q 557 216 545 216 q 582 198 582 216 q 530 20 582 194 q 526 12 529 15 q 522 6 524 8 q 515 3 519 4 q 508 1 510 1 q 499 1 506 1 q 490 0 492 0 q 340 -7 435 -3 q 178 -14 244 -11 q 106 -18 111 -18 z "},"3":{"ha":499,"x_min":37,"x_max":471,"o":"m 165 616 q 245 601 199 616 q 335 546 292 586 q 378 453 378 506 q 358 368 378 416 q 317 285 338 319 q 297 250 297 251 q 307 240 297 243 q 342 230 317 237 q 392 208 368 222 q 471 49 471 164 q 411 -163 471 -87 q 318 -230 377 -208 q 198 -252 259 -252 q 81 -218 123 -252 q 39 -152 39 -183 q 58 -112 39 -127 q 100 -96 76 -96 q 141 -111 123 -96 q 170 -144 159 -126 q 206 -178 180 -163 q 270 -193 232 -193 q 366 -140 335 -193 q 396 -14 396 -87 q 227 144 396 144 q 190 142 206 144 q 171 141 174 141 q 154 147 160 141 q 148 160 148 153 q 149 167 148 164 q 153 173 149 170 q 161 180 156 176 q 175 191 165 183 q 195 210 184 199 q 285 380 285 297 q 256 471 285 429 q 157 514 227 514 q 84 461 84 514 q 84 442 84 454 l 85 431 q 61 414 85 414 q 37 471 37 414 q 71 572 37 529 q 165 616 106 616 z "},"4":{"ha":620,"x_min":33,"x_max":581,"o":"m 56 0 q 33 19 33 0 q 56 64 33 31 q 418 583 406 567 q 441 595 427 595 q 460 571 460 595 l 458 118 q 472 103 458 103 l 495 103 q 536 104 519 103 q 553 106 552 106 q 581 88 581 106 q 575 46 581 83 q 566 5 570 9 q 548 0 560 0 l 471 0 q 458 -9 458 0 l 458 -241 q 445 -258 458 -258 l 389 -258 q 374 -241 374 -258 l 374 -14 q 363 0 374 0 l 56 0 m 361 92 q 374 110 374 92 l 374 406 q 368 416 374 416 q 359 411 365 416 q 152 99 152 104 q 160 92 152 92 l 361 92 z "},"5":{"ha":529,"x_min":53,"x_max":487,"o":"m 163 357 q 337 281 263 357 q 411 84 411 206 q 346 -122 411 -27 q 248 -223 309 -176 q 159 -270 187 -270 q 142 -264 149 -270 q 134 -248 134 -258 q 147 -229 134 -239 q 179 -208 160 -218 q 226 -173 198 -198 q 277 -113 254 -148 q 327 53 327 -31 q 271 207 327 148 q 141 266 214 266 q 95 258 118 266 l 71 251 q 53 273 53 251 q 75 355 53 277 q 118 510 96 433 l 140 586 q 164 604 146 604 q 279 570 172 604 q 396 537 385 537 q 419 549 407 537 q 441 578 431 562 q 454 597 452 594 q 465 601 460 601 q 479 595 472 601 q 487 582 487 590 q 423 430 487 578 q 406 415 418 415 q 289 448 396 415 q 179 481 182 481 l 178 481 q 162 468 167 481 q 136 372 157 454 l 136 369 q 134 365 134 366 q 144 357 134 357 l 163 357 z "},"6":{"ha":670,"x_min":46,"x_max":618,"o":"m 511 197 q 488 332 511 263 q 408 454 464 400 q 278 507 353 507 q 168 446 201 507 q 134 301 134 385 q 198 98 134 179 q 351 16 262 16 q 466 65 420 16 q 511 197 511 114 m 283 557 q 519 465 420 557 q 618 235 618 372 q 545 41 618 121 q 354 -39 471 -39 q 139 57 232 -39 q 46 315 46 153 q 185 675 46 514 q 533 873 324 836 q 543 875 536 875 q 563 865 555 875 q 571 844 571 854 q 548 818 571 827 q 208 559 328 746 l 206 557 q 206 555 206 556 q 212 551 206 551 l 216 551 q 227 553 220 552 q 241 555 233 553 q 261 557 250 556 q 283 557 273 557 z "},"7":{"ha":624,"x_min":49,"x_max":598,"o":"m 72 301 q 57 307 65 301 q 49 324 49 312 q 55 367 49 326 q 67 480 61 408 q 75 627 73 552 q 100 652 75 652 q 108 652 104 652 q 114 648 111 651 q 118 643 117 646 q 121 634 119 640 q 123 623 122 628 q 125 607 123 617 q 129 589 127 597 q 149 572 132 572 l 568 572 q 598 547 598 572 l 598 545 q 518 298 598 538 q 361 -209 426 19 q 335 -290 340 -278 q 316 -302 330 -301 q 290 -304 308 -304 l 289 -304 l 281 -304 q 241 -285 241 -304 q 396 174 241 -278 q 486 427 486 420 q 445 461 486 454 q 307 468 368 468 q 156 458 191 468 q 134 445 140 456 q 111 374 129 434 q 95 323 102 343 q 72 301 88 301 z "},"8":{"ha":620,"x_min":22,"x_max":590,"o":"m 141 713 q 207 566 141 624 q 313 509 273 509 q 334 518 324 509 q 416 699 416 594 q 376 814 416 766 q 275 863 336 863 l 274 863 q 180 818 218 861 q 141 713 141 774 m 305 35 q 425 79 374 35 q 475 189 475 122 q 420 315 475 255 q 275 419 365 374 q 254 427 262 427 q 212 400 241 427 q 154 319 183 373 q 125 210 125 266 q 178 85 125 134 q 305 35 231 35 m 290 -31 q 100 42 179 -31 q 22 213 22 115 q 118 385 22 308 q 172 427 142 404 q 201 453 201 449 q 194 461 201 457 q 87 568 129 506 q 46 697 46 629 q 116 856 46 784 q 290 928 186 928 q 453 876 387 928 q 519 731 519 825 q 478 597 519 662 q 372 496 437 533 q 368 488 368 494 q 372 483 368 487 q 530 369 471 438 q 590 224 590 300 q 499 46 590 123 q 290 -31 408 -31 z "},"9":{"ha":707,"x_min":45,"x_max":655,"o":"m 146 347 q 214 142 146 236 q 395 47 281 47 q 488 73 457 47 q 533 146 518 99 q 548 244 548 198 q 475 447 548 362 q 307 532 401 532 q 195 486 244 532 q 146 347 146 439 m 382 -7 q 144 90 243 -7 q 45 315 45 186 q 129 513 45 433 q 331 594 213 594 q 559 492 464 594 q 655 243 655 389 q 533 -72 655 80 q 216 -283 411 -224 q 172 -293 180 -293 q 153 -281 159 -293 q 146 -259 146 -269 q 170 -236 146 -243 q 287 -185 231 -217 q 380 -122 343 -153 q 446 -61 418 -91 q 486 -14 473 -31 q 499 7 499 4 q 495 11 499 11 l 488 8 q 471 5 481 7 q 448 0 461 3 q 416 -5 434 -3 q 382 -7 399 -7 z "}," ":{"ha":347,"x_min":0,"x_max":0,"o":""},"!":{"ha":450,"x_min":151,"x_max":301,"o":"m 270 936 q 283 901 283 936 l 283 868 q 269 595 283 734 q 242 387 255 457 q 221 293 229 316 q 197 271 214 271 q 176 312 176 271 l 176 336 q 174 435 175 385 q 170 526 172 484 q 166 606 168 567 q 162 676 164 644 q 159 736 160 708 q 156 784 157 764 q 153 819 155 804 q 152 841 152 834 l 151 849 q 168 880 151 869 q 270 936 263 936 m 231 118 q 280 98 259 118 q 301 47 301 77 q 281 -1 301 19 q 231 -22 260 -22 q 180 -2 201 -22 q 159 49 159 18 q 180 99 159 80 q 231 118 201 118 z "},"\"":{"ha":540,"x_min":53,"x_max":488,"o":"m 209 993 q 245 977 232 993 q 259 940 259 962 q 240 886 259 921 q 188 793 222 854 q 130 692 153 732 q 106 648 107 651 q 80 635 95 635 q 60 644 68 635 q 53 665 53 652 l 53 667 q 134 916 53 674 q 209 993 163 993 m 439 993 q 475 977 461 993 q 488 940 488 962 q 471 886 488 918 q 418 793 452 853 q 361 692 384 732 q 335 648 338 651 q 309 635 324 635 q 290 644 297 635 q 282 665 282 652 l 282 667 q 365 916 282 674 q 439 993 389 993 z "},"#":{"ha":766,"x_min":75,"x_max":692,"o":"m 480 483 q 471 490 480 490 l 326 490 q 312 480 315 490 q 302 406 309 454 q 291 323 296 357 q 286 288 286 290 q 297 281 286 281 l 439 281 q 454 292 453 281 q 480 483 480 481 m 562 854 l 571 854 q 593 838 593 854 q 574 699 593 831 q 556 560 556 567 q 563 553 556 553 l 665 553 q 692 517 692 553 q 670 490 692 490 l 551 490 q 543 481 545 490 q 533 407 540 456 q 522 325 526 358 q 517 289 517 292 q 526 281 517 281 l 667 281 q 692 250 692 281 q 667 218 692 218 l 522 218 q 505 203 507 218 q 468 -46 469 -43 q 438 -60 461 -60 q 410 -41 410 -60 q 427 86 410 -35 q 444 210 444 208 q 431 218 444 218 l 336 218 q 286 216 294 218 q 275 208 277 214 q 239 -47 240 -45 q 205 -60 232 -60 q 178 -41 178 -60 q 195 85 178 -37 q 213 209 213 206 q 199 218 213 218 l 98 218 q 75 244 75 218 q 79 273 75 264 q 98 281 83 281 l 218 281 q 222 283 222 281 q 250 483 250 473 q 240 490 250 490 l 100 490 q 75 521 75 490 q 100 553 75 553 l 250 553 q 263 564 263 553 q 297 812 285 712 q 302 844 301 841 q 335 854 309 854 l 336 854 q 363 836 363 854 q 345 697 363 830 q 326 560 326 564 q 336 553 326 553 l 480 553 q 494 563 492 553 l 534 845 q 557 854 541 854 l 562 854 z "},"$":{"ha":669,"x_min":22,"x_max":559,"o":"m 522 738 q 507 694 522 711 q 465 677 491 677 q 418 699 435 677 q 395 747 401 720 q 372 800 389 774 q 327 831 355 826 l 324 831 q 316 825 316 831 l 316 583 q 315 571 316 579 q 315 562 315 563 q 317 549 315 553 q 325 540 319 544 q 336 534 331 536 q 356 526 342 532 q 382 517 370 521 q 545 347 511 461 q 559 263 559 302 q 491 87 559 153 q 327 4 423 20 q 315 -12 315 1 l 315 -109 q 288 -134 315 -134 q 259 -109 259 -134 l 259 -12 q 247 1 259 1 q 86 64 151 4 q 22 184 22 123 q 41 239 22 217 q 91 262 61 262 q 133 244 117 262 q 149 197 149 227 q 146 174 149 189 q 144 149 144 159 q 180 80 144 102 q 251 58 216 58 q 258 64 258 58 l 258 425 q 245 444 258 442 q 106 530 155 463 q 57 673 57 597 q 111 817 57 757 q 245 883 165 876 q 258 894 258 884 l 258 924 q 286 951 258 951 l 288 951 q 316 924 316 951 l 316 898 l 316 894 q 326 886 316 886 q 467 831 412 876 q 522 738 522 785 m 254 831 q 181 796 225 831 q 137 700 137 761 q 165 623 137 655 q 218 579 194 590 q 251 568 243 568 q 258 575 258 568 l 258 680 l 258 795 q 254 831 258 831 m 326 410 q 315 397 315 410 q 314 203 315 297 q 313 104 313 110 q 320 61 313 61 l 323 61 q 368 78 338 61 q 430 138 399 95 q 461 237 461 182 q 429 334 461 292 q 368 393 397 377 q 326 410 338 410 z "},"%":{"ha":1138,"x_min":57,"x_max":1082,"o":"m 296 -171 q 273 -163 283 -171 q 262 -144 262 -155 q 267 -127 262 -138 q 819 812 815 808 q 852 826 830 826 q 878 820 864 826 q 892 802 892 814 q 887 787 892 795 q 327 -156 328 -155 q 296 -171 315 -171 m 248 715 q 194 695 217 715 q 160 644 171 675 q 144 584 149 613 q 140 526 140 555 q 157 407 140 472 q 208 312 174 342 q 269 289 236 289 q 369 407 353 289 q 377 483 377 456 q 342 644 377 572 q 248 715 308 715 m 269 768 q 400 709 340 768 q 460 521 460 650 q 401 315 460 395 q 248 236 343 236 q 117 294 176 236 q 57 480 57 353 q 118 692 57 617 q 269 768 179 768 m 871 350 q 817 331 840 350 q 782 281 793 312 q 766 221 770 250 q 761 164 761 193 l 762 161 q 779 42 762 107 q 829 -52 795 -23 q 890 -75 854 -75 q 991 42 974 -75 q 998 119 998 83 q 964 279 998 208 q 871 350 930 350 m 890 403 q 1022 344 962 403 q 1082 156 1082 285 q 1023 -50 1082 30 q 871 -129 964 -129 q 739 -71 799 -129 q 680 115 680 -12 q 741 328 680 252 q 890 403 802 403 z "},"&":{"ha":1149,"x_min":42,"x_max":1123,"o":"m 138 586 q 123 608 138 590 q 94 661 109 627 q 80 735 80 694 q 154 901 80 829 q 324 974 228 974 q 385 967 354 974 q 444 940 416 960 q 472 888 472 920 q 453 844 472 861 q 410 826 434 826 q 351 861 381 826 q 289 895 320 895 q 190 850 239 895 q 141 735 141 804 q 161 657 141 694 q 195 620 180 620 q 220 629 198 620 q 277 647 241 637 q 349 656 312 656 q 435 635 400 656 q 469 579 469 614 q 433 522 469 544 q 342 500 396 500 l 340 500 q 276 509 307 500 q 228 525 245 517 q 208 533 210 533 q 200 530 203 533 q 195 525 197 528 q 190 519 193 522 l 189 517 q 152 372 152 450 q 170 276 152 323 q 224 184 187 229 q 333 109 262 138 q 499 75 404 79 l 524 75 q 663 98 604 75 q 754 159 723 121 q 800 236 785 197 q 814 315 814 275 q 774 434 814 387 q 670 481 735 481 q 565 441 610 481 q 519 349 519 400 q 542 288 519 313 q 600 263 564 263 q 632 270 614 263 q 650 286 650 277 q 644 294 650 292 q 631 298 639 297 q 614 305 624 300 q 598 320 605 311 q 589 350 589 334 q 604 385 589 370 q 643 400 620 400 q 699 377 674 400 q 724 320 724 354 q 689 246 724 278 q 604 214 654 214 q 509 255 548 214 q 469 354 469 296 q 505 458 469 408 q 604 538 541 507 q 786 589 667 570 q 947 627 905 608 q 1031 691 997 648 q 1066 792 1066 734 q 1026 898 1066 856 q 935 940 986 940 q 892 928 892 940 l 903 913 q 916 879 916 898 q 899 838 916 854 q 859 822 883 822 q 814 842 831 822 q 796 890 796 861 q 833 963 796 933 q 918 993 869 993 q 1060 926 997 993 q 1123 761 1123 860 q 1037 570 1123 650 q 833 488 951 491 q 812 477 812 488 q 824 457 812 476 q 848 401 836 438 q 860 323 860 365 l 860 320 q 738 73 860 179 q 446 -33 616 -33 q 159 78 275 -33 q 42 340 42 189 q 51 419 42 381 q 73 484 60 457 q 100 530 87 511 q 125 562 113 549 l 136 575 q 138 585 138 581 l 138 586 m 362 544 q 420 576 420 544 q 361 612 420 612 q 300 606 328 612 q 258 593 273 601 q 244 579 244 586 q 248 571 244 575 q 362 544 286 544 z "},"'":{"ha":311,"x_min":53,"x_max":259,"o":"m 209 993 q 245 977 232 993 q 259 940 259 962 q 240 886 259 921 q 188 793 222 854 q 130 692 153 732 q 106 648 107 651 q 80 635 95 635 q 60 645 68 635 q 53 667 53 655 l 53 669 q 134 916 53 674 q 209 993 163 993 z "},"(":{"ha":503,"x_min":62,"x_max":442,"o":"m 439 -241 q 431 -262 439 -254 q 410 -270 422 -270 q 377 -255 395 -270 q 148 21 233 -141 q 62 363 62 183 q 143 696 62 533 q 370 978 224 860 q 412 997 396 997 q 433 989 425 997 q 442 971 442 982 q 422 937 442 954 q 238 688 308 836 q 168 365 168 541 q 233 50 168 198 q 416 -205 298 -98 q 439 -241 439 -228 z "},")":{"ha":503,"x_min":62,"x_max":442,"o":"m 66 974 q 75 994 66 986 q 96 1002 84 1002 q 129 987 109 1002 q 357 711 273 875 q 442 368 442 548 q 361 35 442 198 q 133 -245 279 -127 q 92 -266 106 -266 q 71 -258 80 -266 q 62 -237 62 -250 q 83 -205 62 -225 q 267 44 197 -102 q 336 366 336 190 q 272 682 336 534 q 90 937 208 830 q 66 974 66 956 z "},"*":{"ha":465,"x_min":19,"x_max":446,"o":"m 446 857 q 414 813 446 831 q 349 784 381 795 q 316 766 316 773 q 336 753 316 758 q 380 742 355 747 q 424 720 404 736 q 444 677 444 704 q 427 638 444 654 q 391 623 411 623 q 346 641 369 623 q 307 677 323 659 q 285 696 290 696 q 275 684 275 696 q 281 629 275 665 q 288 587 288 594 q 267 546 288 559 q 229 533 247 533 q 195 547 212 533 q 179 591 179 560 q 184 637 179 608 q 189 675 189 667 q 180 690 189 690 q 134 660 174 690 q 64 629 94 629 q 30 647 41 629 q 19 678 19 665 q 51 725 19 705 q 115 756 83 745 q 146 777 146 768 q 127 792 146 785 q 85 804 109 799 q 42 826 61 810 q 23 867 23 842 q 40 901 23 887 q 76 916 57 916 q 135 879 100 916 q 184 842 170 842 q 191 852 191 842 q 185 888 191 857 q 179 939 179 920 q 235 1001 179 1001 q 289 937 289 1001 q 281 881 289 914 q 273 846 273 848 q 275 844 273 844 q 322 878 281 844 q 392 911 363 911 q 429 896 412 911 q 446 857 446 880 z "},"+":{"ha":972,"x_min":73,"x_max":902,"o":"m 106 321 q 73 351 73 321 l 73 369 q 107 400 73 400 l 448 400 l 448 746 q 475 773 448 773 l 495 773 q 528 738 528 773 l 528 400 l 873 400 q 902 373 902 400 l 902 354 q 892 327 902 332 q 864 321 882 321 l 528 321 l 528 -22 q 498 -53 528 -53 l 477 -53 q 448 -20 448 -53 l 448 321 l 106 321 z "},",":{"ha":315,"x_min":54,"x_max":262,"o":"m 138 138 q 225 92 189 138 q 262 -20 262 46 q 208 -153 262 -102 q 121 -205 155 -205 q 95 -180 95 -205 q 102 -163 95 -170 q 126 -147 110 -157 q 155 -126 142 -137 q 190 -61 190 -94 q 175 -24 190 -37 q 141 -10 160 -12 q 99 1 122 -8 q 65 26 76 9 q 54 62 54 41 q 79 117 54 95 q 138 138 104 138 z "},"-":{"ha":315,"x_min":16,"x_max":298,"o":"m 277 465 q 298 411 298 465 q 274 372 298 391 q 214 330 243 350 q 165 295 184 309 q 127 268 145 281 q 99 248 110 255 q 79 233 88 240 q 64 223 69 227 q 55 218 60 220 q 47 215 50 216 q 42 214 45 214 q 16 250 16 214 l 16 270 q 21 290 16 283 q 43 308 26 296 q 179 403 103 350 q 277 465 267 465 z "},".":{"ha":315,"x_min":75,"x_max":240,"o":"m 99 117 q 111 129 99 117 q 157 140 123 140 q 216 116 191 140 q 240 58 240 92 q 217 1 240 24 q 159 -23 194 -23 q 100 1 125 -23 q 75 60 75 24 q 99 117 75 95 z "},"/":{"ha":604,"x_min":8,"x_max":595,"o":"m 50 -259 q 8 -240 8 -259 q 532 793 8 -235 q 553 806 538 806 q 581 800 566 806 q 595 780 595 793 q 358 326 595 776 q 85 -220 178 -34 q 68 -254 69 -252 q 50 -259 61 -259 z "},":":{"ha":316,"x_min":91,"x_max":255,"o":"m 115 548 q 126 559 115 548 q 172 571 138 571 q 231 547 206 571 q 255 488 255 522 q 231 431 255 456 q 172 407 208 407 q 115 431 138 407 q 91 490 91 454 q 115 548 91 525 m 115 117 q 126 129 115 117 q 172 140 138 140 q 231 116 206 140 q 255 58 255 92 q 231 1 255 26 q 172 -23 208 -23 q 115 1 138 -23 q 91 60 91 24 q 115 117 91 95 z "},";":{"ha":315,"x_min":88,"x_max":294,"o":"m 172 138 q 258 92 221 138 q 294 -20 294 46 q 241 -153 294 -102 q 153 -205 189 -205 q 136 -198 144 -205 q 127 -180 127 -191 q 135 -163 127 -170 q 159 -147 142 -157 q 187 -126 175 -137 q 224 -61 224 -91 l 224 -60 q 201 -20 224 -30 q 145 -2 178 -9 q 99 26 113 5 q 88 62 88 38 q 113 117 88 95 q 172 138 138 138 m 115 548 q 126 559 115 548 q 172 571 138 571 q 231 547 206 571 q 255 488 255 522 q 231 431 255 456 q 172 407 208 407 q 115 431 138 407 q 91 490 91 454 q 115 548 91 525 z "},"<":{"ha":933,"x_min":72,"x_max":863,"o":"m 72 346 q 98 370 72 361 q 830 636 826 636 q 863 583 863 636 q 836 556 863 564 l 224 332 l 845 107 q 863 83 863 100 q 853 50 863 66 q 822 33 844 33 q 96 294 811 33 q 72 320 72 302 l 72 346 z "},"=":{"ha":972,"x_min":73,"x_max":902,"o":"m 106 423 q 73 454 73 423 l 73 473 q 106 505 73 505 l 872 505 q 901 476 901 505 l 901 458 q 864 423 901 423 l 106 423 m 106 217 q 75 247 75 217 l 75 267 q 107 297 75 297 l 873 297 q 902 270 902 297 l 902 250 q 892 222 902 228 q 865 217 883 217 l 106 217 z "},">":{"ha":933,"x_min":72,"x_max":863,"o":"m 863 346 l 863 320 q 838 294 863 302 q 113 33 122 33 q 81 50 91 33 q 72 83 72 66 q 91 107 72 100 l 711 332 l 99 556 q 72 583 72 564 q 104 636 72 636 q 837 370 109 636 q 863 346 863 361 z "},"?":{"ha":528,"x_min":20,"x_max":468,"o":"m 162 117 q 175 129 162 117 q 221 140 187 140 q 279 116 255 140 q 304 58 304 92 q 280 1 304 26 q 221 -23 256 -23 q 162 1 187 -23 q 137 60 137 24 q 162 117 137 95 m 222 958 q 406 892 343 958 q 468 753 468 827 q 444 664 468 705 q 387 590 420 623 q 319 525 353 557 q 261 446 285 492 q 237 347 237 400 q 238 330 237 340 q 239 316 239 320 q 228 279 239 290 q 203 267 217 267 q 165 343 165 267 q 184 440 165 393 q 231 524 203 487 q 285 595 258 560 q 331 673 312 631 q 350 760 350 716 q 315 862 350 819 q 229 905 279 905 q 178 888 199 905 q 146 853 156 872 q 119 818 136 834 q 79 802 102 802 q 37 819 53 802 q 20 863 20 837 q 110 944 20 925 q 222 958 171 958 z "},"@":{"ha":1389,"x_min":122,"x_max":1203,"o":"m 1006 -99 q 1024 -115 1024 -99 q 967 -170 1024 -138 q 857 -217 910 -201 q 670 -244 770 -244 l 669 -244 q 278 -107 434 -243 q 122 258 122 28 l 122 259 q 135 378 122 317 q 180 512 148 438 q 283 655 213 586 q 452 773 353 724 q 753 849 601 849 q 1078 722 952 849 q 1203 411 1203 595 q 1103 114 1203 239 q 878 -11 1002 -11 q 814 0 841 -11 q 774 26 787 11 q 753 56 761 41 q 743 81 746 71 q 738 92 739 92 l 731 85 q 647 12 696 42 q 548 -19 598 -19 q 456 19 494 -19 q 419 115 419 57 q 515 334 419 206 q 700 517 610 463 q 804 551 758 551 q 831 548 819 551 q 845 545 844 545 q 866 567 856 545 q 879 590 876 589 q 898 595 886 595 q 929 572 929 595 q 915 522 929 567 q 876 380 901 476 q 833 174 852 283 q 826 119 826 144 q 846 68 826 84 q 892 53 867 53 q 989 81 937 53 q 1074 156 1042 110 q 1145 416 1145 254 l 1145 418 q 1033 695 1145 595 q 754 795 921 795 q 500 732 618 795 q 309 548 382 669 q 236 275 236 427 q 363 -60 236 71 q 694 -191 490 -191 q 865 -167 787 -191 q 981 -111 943 -142 q 1006 -99 1001 -99 m 815 490 q 800 505 815 505 q 671 424 754 505 q 541 225 587 343 q 522 141 522 180 q 541 87 522 103 q 581 72 559 72 q 646 92 605 72 q 716 146 688 113 q 727 159 720 152 q 736 168 734 165 q 741 174 738 170 q 745 183 743 179 q 747 193 746 187 q 815 490 815 487 z "},"A":{"ha":1139,"x_min":12,"x_max":1135,"o":"m 190 0 q 144 -1 167 0 q 103 -3 121 -1 q 72 -5 85 -4 q 50 -7 58 -7 q 41 -8 42 -8 q 12 20 12 -8 q 13 32 12 27 q 16 41 14 37 q 19 47 18 45 q 25 52 20 50 q 31 55 30 54 q 40 57 33 56 q 50 59 47 58 q 62 61 52 60 q 75 62 72 62 q 123 79 107 66 q 155 129 140 92 q 366 574 252 347 q 574 963 567 954 q 582 970 576 966 q 616 981 597 981 q 674 928 652 981 l 873 467 q 1028 95 1025 99 q 1068 66 1043 73 q 1112 57 1093 60 q 1133 41 1130 54 q 1135 22 1135 30 q 1107 -8 1135 -8 l 1084 -5 q 1022 -2 1061 -4 q 947 0 983 0 q 865 -2 902 0 q 808 -6 829 -4 q 783 -8 787 -8 q 754 15 754 -8 q 755 27 754 22 q 758 37 755 33 q 760 45 760 42 q 766 50 761 47 q 774 54 772 53 q 785 56 777 54 q 798 58 793 57 q 815 60 803 58 q 836 62 827 61 q 864 90 864 68 q 831 214 864 110 q 760 403 798 317 q 735 416 754 416 l 408 416 q 377 400 387 416 q 292 218 330 312 q 255 100 255 123 q 271 68 255 76 q 326 57 286 61 q 343 56 338 57 q 373 22 373 53 q 343 -8 373 -8 q 319 -6 339 -8 q 265 -2 300 -4 q 190 0 231 0 m 707 488 q 719 499 719 488 q 665 635 719 510 q 597 785 612 760 q 582 795 591 795 q 556 770 570 795 q 414 495 414 502 q 422 488 414 488 l 707 488 z "},"B":{"ha":783,"x_min":23,"x_max":745,"o":"m 125 952 q 246 959 167 952 q 366 966 326 966 q 597 910 517 966 q 682 750 682 848 q 646 629 682 686 q 551 536 609 572 l 547 532 q 552 528 547 530 q 689 445 633 513 q 745 286 745 377 q 692 124 745 194 q 568 23 639 54 q 401 -8 499 -8 q 307 -4 369 -8 q 212 0 244 0 q 137 -1 189 0 q 53 -3 85 -3 l 50 -3 q 37 -1 42 -3 q 28 8 33 0 q 23 31 23 16 q 33 52 23 47 q 83 60 43 56 q 102 62 95 61 q 116 66 111 64 q 125 74 121 68 q 130 91 130 80 l 130 850 q 116 884 130 876 q 65 894 102 891 q 58 894 61 894 q 34 929 34 894 q 58 954 34 954 q 68 953 60 954 q 92 952 76 952 q 125 952 107 952 m 559 720 q 549 778 559 749 q 518 837 540 807 q 454 886 496 867 q 354 905 411 905 q 256 888 277 905 q 250 871 250 883 l 250 868 l 250 571 q 264 553 250 553 l 327 553 l 345 553 q 538 642 491 553 q 559 720 559 682 m 357 57 q 544 116 467 57 q 621 279 621 175 q 581 408 621 349 q 457 484 541 467 q 340 494 412 494 l 270 494 q 250 472 250 494 l 250 114 q 252 91 250 99 q 263 74 254 83 q 292 62 273 65 q 357 57 332 57 z "},"C":{"ha":971,"x_min":26,"x_max":956,"o":"m 160 491 q 274 169 160 300 q 551 38 388 38 q 774 113 673 38 q 913 311 875 187 q 933 330 920 330 q 956 313 956 330 q 921 88 925 98 q 890 65 914 65 l 888 65 l 850 65 q 827 62 834 65 q 806 50 819 60 q 785 37 793 41 q 528 -34 663 -34 q 339 4 431 -34 q 176 110 247 42 q 66 273 106 179 q 26 465 26 366 q 68 662 26 567 q 180 825 110 757 q 534 967 330 967 l 536 967 q 673 949 610 967 q 771 911 736 930 q 808 892 806 892 q 827 916 819 892 q 849 943 836 939 q 857 943 852 943 q 864 944 863 944 q 882 928 879 944 l 891 857 q 910 712 901 785 q 920 633 920 639 q 891 610 920 610 q 861 619 865 610 q 852 675 857 628 q 815 766 845 727 q 694 865 768 826 q 532 903 621 903 q 271 789 381 903 q 160 491 160 675 z "},"D":{"ha":985,"x_min":14,"x_max":966,"o":"m 416 66 q 704 166 582 66 q 826 439 826 266 q 783 638 826 543 q 659 793 739 734 q 370 879 541 879 q 295 871 312 879 q 278 836 278 863 l 278 129 q 289 92 278 103 q 328 75 300 80 q 416 66 373 66 m 15 909 q 46 937 15 937 l 298 937 q 701 876 570 937 q 890 719 814 823 q 966 476 966 614 q 844 170 966 301 q 563 8 722 38 q 439 0 514 0 l 46 0 q 14 39 14 0 q 15 52 14 47 q 21 60 16 57 q 31 66 26 64 q 45 68 35 68 q 64 70 56 69 q 88 71 72 71 q 117 72 104 71 q 147 85 140 73 q 155 122 155 96 l 155 825 q 136 867 155 859 q 64 876 118 875 q 41 876 49 876 q 15 909 15 876 z "},"E":{"ha":802,"x_min":12,"x_max":780,"o":"m 605 712 q 644 673 644 712 l 644 416 q 605 377 644 377 q 568 407 568 377 l 568 481 q 532 513 568 513 l 340 513 q 316 511 326 513 q 295 505 307 510 q 278 488 283 500 q 273 457 273 476 l 273 138 q 275 115 273 123 q 287 97 277 106 q 316 85 297 88 q 446 76 377 76 q 560 84 492 76 q 646 106 628 92 q 694 181 658 115 q 742 254 731 247 q 755 258 750 258 q 772 250 765 258 q 780 227 780 241 l 780 225 q 738 27 780 213 q 726 5 735 11 q 696 0 718 0 l 218 0 q 102 -8 156 0 q 46 -16 49 -16 q 21 -1 30 -16 q 12 24 12 15 q 23 46 12 39 q 77 69 34 53 q 118 84 102 79 q 149 138 149 95 l 149 863 q 142 882 149 878 q 111 890 136 886 q 81 892 99 891 q 55 895 64 894 q 37 900 46 897 q 23 910 27 903 q 19 929 19 917 q 46 960 19 960 l 685 960 q 715 937 708 960 q 730 865 720 911 q 748 787 741 819 q 755 753 755 755 q 727 732 755 732 q 688 757 705 732 q 618 873 627 864 q 579 886 606 886 l 317 886 q 283 872 290 886 q 275 833 275 859 l 275 624 q 302 593 275 593 l 515 593 q 540 595 530 593 q 559 608 549 597 q 568 639 568 618 l 568 682 q 605 712 568 712 z "},"F":{"ha":750,"x_min":14,"x_max":730,"o":"m 625 671 q 624 650 625 667 q 621 604 623 633 q 620 541 620 575 q 621 477 620 506 q 624 431 623 448 q 625 411 625 414 q 587 374 625 374 q 578 375 582 374 q 570 378 574 376 q 564 384 567 381 q 560 392 562 387 q 557 403 559 397 q 555 418 556 408 q 553 435 553 427 q 551 456 552 442 q 548 480 549 469 q 524 500 547 500 l 297 500 q 276 494 283 500 q 268 480 269 487 q 267 461 267 473 l 267 117 q 269 92 267 100 q 284 75 271 84 q 324 65 297 66 q 353 65 338 65 q 376 65 368 65 q 396 64 385 65 q 413 63 407 64 q 425 62 419 62 q 435 58 431 61 q 441 53 438 56 q 445 45 444 50 q 446 34 446 41 l 446 20 q 422 -8 446 -8 l 396 -5 q 324 -2 369 -4 q 235 0 279 0 q 177 -1 206 0 q 126 -3 148 -1 q 87 -5 104 -4 q 59 -7 69 -7 q 47 -8 49 -8 q 15 23 15 -8 q 16 37 15 31 q 21 47 18 43 q 27 54 24 52 q 39 57 30 56 q 53 59 47 58 q 72 60 58 60 q 95 62 85 61 q 128 75 121 65 q 136 106 136 85 l 136 842 q 135 856 136 850 q 132 865 134 861 q 128 872 130 869 q 121 877 126 875 q 112 880 115 879 q 100 882 109 882 q 85 883 91 883 q 67 884 80 883 q 46 884 54 884 q 14 914 14 884 q 39 956 14 956 q 58 954 43 956 q 100 951 73 952 q 156 949 126 949 q 260 951 179 949 q 381 954 342 954 l 644 954 l 651 954 q 697 920 689 954 q 709 868 700 906 q 724 802 718 830 q 730 770 730 774 q 722 748 730 757 q 701 739 713 739 q 635 819 678 739 q 614 854 621 841 q 594 878 604 872 q 566 883 585 883 l 309 883 q 282 875 292 883 q 271 858 273 867 q 270 833 270 849 l 270 601 q 290 581 270 581 l 522 581 q 531 581 528 581 q 538 583 534 582 q 543 586 541 585 q 546 591 544 587 q 549 599 548 595 q 552 610 551 602 q 554 623 553 617 q 557 641 555 629 q 560 662 559 652 q 593 700 566 700 q 616 692 606 700 q 625 671 625 684 z "},"G":{"ha":959,"x_min":22,"x_max":948,"o":"m 509 -34 q 167 120 312 -34 q 22 491 22 274 q 158 840 22 700 q 488 981 294 981 q 600 967 545 981 q 686 937 654 954 q 743 905 718 921 q 770 890 768 890 l 776 890 q 812 916 791 890 q 837 944 833 943 q 854 948 844 948 q 873 929 873 948 l 873 891 q 875 811 873 852 q 879 741 876 770 q 884 687 882 711 q 887 650 886 663 q 888 635 888 636 q 849 613 888 613 q 826 626 830 613 q 812 676 822 639 q 773 753 802 713 q 640 869 720 825 q 472 914 560 914 q 364 892 416 914 q 265 826 312 871 q 190 699 218 781 q 161 510 161 617 q 197 283 161 380 q 290 137 232 187 q 406 64 347 87 q 524 41 464 41 q 671 73 602 41 q 753 130 741 106 q 757 155 757 138 l 757 311 q 739 346 757 338 q 666 358 722 354 q 627 361 642 359 q 587 393 587 363 q 618 425 587 425 q 641 423 623 425 q 691 420 659 422 q 761 419 723 419 l 764 419 q 837 420 803 419 q 890 423 871 422 q 913 425 909 425 q 939 416 930 425 q 948 396 948 407 q 913 361 948 373 q 875 332 879 349 q 873 317 873 328 l 873 83 q 854 56 873 56 q 832 70 846 56 q 812 84 818 84 q 793 73 804 84 q 509 -34 671 -34 z "},"H":{"ha":1058,"x_min":19,"x_max":1043,"o":"m 271 -1 q 258 0 271 -1 q 220 0 245 0 q 167 -1 194 0 q 120 -3 140 -1 q 85 -5 100 -4 q 60 -7 69 -7 q 49 -8 50 -8 q 20 30 20 -8 q 81 58 20 56 q 115 61 102 60 q 145 74 138 62 q 152 106 152 85 l 152 841 q 149 859 152 852 q 143 871 146 867 q 131 879 140 876 q 118 882 122 882 q 100 885 114 883 q 80 887 85 887 q 61 889 76 888 q 39 892 46 890 q 26 900 33 894 q 19 917 19 906 q 27 941 19 928 q 52 954 35 954 q 77 953 56 954 q 134 951 98 952 q 214 951 171 951 l 218 951 q 300 951 263 951 q 359 953 338 952 q 385 954 381 954 q 411 925 407 954 q 412 918 411 922 q 412 913 412 914 q 398 892 412 897 q 336 884 384 887 q 307 883 317 884 q 275 842 275 882 l 275 613 q 293 593 275 593 l 762 593 q 787 618 787 593 l 787 823 q 757 883 787 872 q 717 889 745 888 q 673 895 689 890 q 658 921 658 901 q 692 954 658 954 q 714 953 696 954 q 764 951 732 952 q 834 951 796 951 q 890 951 861 951 q 940 954 918 952 q 979 956 962 955 q 1006 957 996 956 q 1017 958 1016 958 q 1043 929 1043 958 q 1042 915 1043 921 q 1036 904 1040 909 q 1026 897 1031 899 q 1012 892 1021 894 q 995 889 1002 890 q 972 886 987 888 q 947 883 958 884 q 910 844 910 879 l 910 114 l 910 107 q 948 62 910 65 q 969 62 956 62 q 989 60 982 61 q 1004 58 996 60 q 1018 55 1013 57 q 1027 50 1023 53 q 1033 41 1031 46 q 1035 27 1035 35 q 1006 -8 1035 -8 q 996 -7 1005 -8 q 970 -5 986 -7 q 935 -3 955 -4 q 888 -1 914 -1 q 837 0 863 0 q 785 -1 811 0 q 740 -3 760 -1 q 705 -5 720 -4 q 681 -7 690 -7 q 670 -8 671 -8 q 647 19 647 -8 q 648 32 647 27 q 650 41 648 37 q 654 48 652 46 q 661 52 655 50 q 670 56 666 54 q 683 58 674 57 q 699 59 692 58 q 721 60 707 60 q 746 62 735 61 q 781 76 773 64 q 788 115 788 88 l 788 491 q 769 507 788 507 l 296 507 q 275 483 275 507 l 275 107 q 277 88 275 95 q 295 73 279 81 q 342 61 311 64 q 360 60 345 61 q 384 57 376 58 q 401 49 392 56 q 410 31 410 42 q 388 -8 410 -8 q 378 -7 387 -8 q 353 -5 369 -7 q 317 -3 336 -4 q 271 -1 297 -1 z "},"I":{"ha":448,"x_min":18,"x_max":425,"o":"m 72 944 l 95 943 q 156 939 118 941 q 232 937 194 937 q 304 939 271 937 q 355 941 336 940 q 377 943 373 943 q 400 917 400 943 q 399 905 400 910 q 398 897 399 901 q 395 890 397 892 q 390 885 392 887 q 382 882 388 883 q 374 879 377 880 q 362 877 370 878 q 349 876 354 876 q 332 874 343 875 q 312 872 320 873 q 290 849 290 871 l 290 99 q 315 64 290 66 q 345 62 328 62 q 370 61 361 61 q 390 60 380 61 q 406 57 400 58 q 416 53 411 56 q 422 45 420 50 q 425 33 425 39 q 397 -8 425 -8 q 387 -7 396 -8 q 360 -5 377 -7 q 323 -3 343 -4 q 275 -1 302 -1 q 221 0 248 0 q 167 -1 194 0 q 119 -3 140 -1 q 81 -5 98 -4 q 55 -7 65 -7 q 43 -8 45 -8 q 19 23 22 -8 q 18 37 18 27 q 29 57 18 53 q 84 64 41 61 q 134 66 114 65 q 164 106 164 68 l 164 827 q 165 839 164 831 q 165 848 165 846 q 155 869 165 865 q 106 875 144 873 q 73 876 85 875 q 42 906 42 879 q 72 944 42 944 z "},"J":{"ha":438,"x_min":-114,"x_max":415,"o":"m 229 937 q 309 939 273 937 q 367 941 346 940 q 392 943 388 943 q 415 916 415 943 q 414 899 415 906 q 408 888 412 892 q 401 882 404 884 q 389 877 397 879 q 373 875 380 875 q 352 873 366 875 q 327 871 338 872 q 290 823 290 868 l 290 77 q 256 -77 290 -4 q 168 -203 222 -151 q 133 -234 156 -216 q 68 -273 110 -252 q -3 -294 27 -294 q -82 -260 -50 -294 q -114 -187 -114 -227 q -96 -139 -114 -159 q -52 -119 -79 -119 q -10 -134 -28 -119 q 18 -165 8 -148 q 45 -197 28 -183 q 81 -212 61 -212 q 152 -126 129 -212 q 164 -37 164 -81 l 164 826 q 162 842 164 836 q 158 854 160 849 q 149 862 156 859 q 138 867 142 865 q 121 871 133 869 q 102 873 110 872 q 79 875 95 873 q 52 878 62 876 q 20 907 20 882 q 52 944 20 944 q 62 943 53 944 q 88 942 72 943 q 125 940 104 941 q 172 938 145 939 q 224 937 198 937 l 229 937 z "},"K":{"ha":907,"x_min":16,"x_max":901,"o":"m 389 -8 q 378 -7 388 -8 q 353 -5 369 -7 q 316 -3 336 -4 q 269 -1 296 -1 q 216 0 241 0 q 163 -1 190 0 q 117 -3 137 -1 q 80 -5 96 -4 q 54 -7 64 -7 q 43 -8 45 -8 q 19 23 19 -8 q 21 37 19 31 q 28 47 23 43 q 37 54 33 52 q 49 57 41 56 q 62 59 57 58 q 77 60 66 60 q 92 61 88 61 q 141 77 127 64 q 155 129 155 90 l 155 819 q 153 837 155 829 q 151 851 152 845 q 146 862 151 857 q 141 870 142 867 q 132 876 140 873 q 122 880 125 879 q 109 883 119 882 q 94 885 98 884 q 76 887 91 886 q 56 888 61 888 q 16 922 16 891 q 26 945 16 935 q 57 956 37 956 q 81 954 61 956 q 135 951 100 952 q 210 949 170 949 l 212 949 q 287 951 252 949 q 340 954 321 952 q 363 956 359 956 q 395 944 385 956 q 404 920 404 932 q 385 895 404 901 q 337 890 366 890 q 297 884 308 890 q 277 838 277 873 l 277 537 q 294 514 277 514 q 331 543 305 514 q 428 650 359 574 q 538 774 496 727 q 583 827 581 822 q 594 857 594 841 q 580 886 594 878 q 549 895 566 895 q 517 902 532 895 q 503 925 503 909 q 534 954 503 954 q 557 953 538 954 q 609 951 576 952 q 681 951 642 951 l 689 951 q 757 951 726 951 q 806 953 788 952 q 827 954 823 954 q 867 925 867 954 q 848 900 867 907 q 795 887 830 892 q 743 875 761 882 q 713 857 728 868 q 689 838 697 846 q 665 812 681 830 q 643 788 648 793 q 397 521 401 528 q 395 511 395 515 q 406 490 395 500 q 789 88 783 92 q 798 81 792 85 q 851 61 822 65 q 891 46 880 57 q 901 24 901 34 q 890 3 901 14 q 860 -7 880 -7 q 835 -4 853 -7 q 795 -1 817 -1 q 761 -1 780 -1 q 734 -1 742 -1 q 716 0 727 0 q 701 2 705 0 q 690 5 696 4 q 679 12 684 7 q 670 21 674 16 q 658 34 666 26 q 445 279 564 142 q 324 418 343 397 q 296 438 305 438 l 294 438 q 275 410 275 438 l 275 117 q 276 102 275 109 q 278 91 277 96 q 283 82 279 85 q 288 76 286 79 q 297 71 290 73 q 308 68 304 69 q 323 66 312 66 q 340 64 334 65 q 361 63 346 64 q 387 61 377 62 q 416 31 416 57 q 389 -8 416 -8 z "},"L":{"ha":781,"x_min":15,"x_max":760,"o":"m 210 937 q 293 938 255 937 q 353 940 331 939 q 378 941 374 941 q 397 932 393 941 q 401 905 401 924 q 370 872 401 872 q 341 871 357 872 q 317 871 326 871 q 299 871 309 871 q 283 870 289 871 q 273 867 278 869 q 264 863 267 865 q 260 855 262 860 q 257 845 258 850 q 256 831 256 840 l 256 127 q 293 83 256 83 l 559 83 l 563 83 q 639 121 614 83 q 669 183 646 132 q 697 239 693 235 q 718 250 705 250 q 732 248 724 250 q 750 238 741 245 q 760 218 760 231 q 732 22 760 208 q 729 7 731 12 q 718 -3 727 1 q 694 -8 709 -8 q 658 -7 690 -8 q 571 -5 625 -7 q 449 -3 517 -4 q 292 -1 381 -1 q 115 0 202 0 l 42 0 q 19 22 19 0 q 31 45 19 39 q 84 60 42 52 q 96 62 92 61 q 127 107 127 71 l 127 111 l 127 841 q 127 854 127 849 q 124 863 126 859 q 119 869 122 867 q 111 871 115 871 q 101 873 107 872 q 87 873 95 873 q 71 873 80 873 q 50 873 61 873 q 15 907 15 876 q 42 941 15 941 q 66 941 47 941 q 121 939 85 940 q 199 937 157 937 l 210 937 z "},"M":{"ha":1385,"x_min":24,"x_max":1385,"o":"m 1001 -8 q 975 24 975 -8 q 990 51 975 45 q 1038 60 1005 57 q 1072 64 1059 61 q 1098 73 1085 66 q 1117 94 1111 80 q 1123 130 1123 109 l 1123 431 q 1119 654 1123 642 q 1109 662 1118 662 q 1090 646 1100 662 q 951 404 1038 560 q 802 127 865 247 q 728 -4 738 8 q 697 -20 715 -20 q 648 30 673 -20 q 493 324 581 170 q 350 568 406 479 q 288 662 294 658 q 283 663 286 663 q 278 656 278 663 q 270 368 270 510 q 275 119 270 250 q 286 73 278 80 q 332 64 300 64 q 386 56 363 64 q 408 23 408 49 q 384 -8 408 -8 q 373 -7 382 -8 q 348 -5 363 -7 q 313 -3 332 -4 q 268 -1 294 -1 q 217 0 241 0 q 166 -1 193 0 q 121 -3 140 -1 q 86 -5 102 -4 q 61 -7 71 -7 q 50 -8 52 -8 q 24 22 24 -8 q 26 37 24 31 q 33 48 28 43 q 43 55 38 53 q 58 59 47 57 q 77 62 69 61 q 100 65 84 64 q 127 68 117 66 q 146 73 138 69 q 159 79 155 76 q 165 92 163 83 q 169 105 168 100 q 171 123 170 110 q 172 141 172 136 q 208 762 208 568 q 191 798 208 779 q 174 819 190 799 q 146 848 157 838 q 111 870 136 859 q 58 882 87 882 q 31 907 31 886 q 36 928 31 921 q 45 937 41 936 q 56 937 49 937 l 255 937 q 290 920 279 937 l 553 480 l 715 222 q 739 206 723 206 q 758 221 751 206 l 1135 925 q 1160 937 1142 937 l 1362 937 q 1372 937 1369 937 q 1379 928 1375 936 q 1382 907 1382 921 q 1379 890 1382 897 q 1365 879 1375 883 q 1344 873 1355 875 q 1313 866 1333 871 q 1274 856 1293 861 q 1240 815 1240 848 q 1244 426 1242 585 q 1247 216 1246 267 q 1248 140 1248 165 l 1248 130 q 1249 97 1248 107 q 1261 76 1251 87 q 1295 62 1272 65 q 1319 60 1305 61 q 1340 59 1333 60 q 1356 57 1347 58 q 1369 53 1366 56 q 1377 46 1373 50 q 1383 36 1382 42 q 1385 22 1385 30 q 1377 0 1385 8 q 1356 -8 1369 -8 l 1331 -5 q 1262 -2 1305 -4 q 1177 0 1219 0 q 1123 -1 1150 0 q 1076 -3 1096 -1 q 1038 -5 1055 -4 q 1012 -7 1021 -7 q 1001 -8 1002 -8 z "},"N":{"ha":1109,"x_min":12,"x_max":1099,"o":"m 208 753 l 208 758 q 161 819 208 777 q 38 879 107 873 q 12 910 12 879 q 43 945 12 945 l 214 945 q 270 920 248 945 l 487 667 l 614 525 q 880 241 869 248 q 886 239 883 239 q 895 252 895 239 q 897 299 895 269 q 899 355 898 330 q 899 401 899 380 q 886 815 899 589 q 867 867 884 856 q 796 883 849 878 q 765 913 765 887 q 774 935 765 925 q 806 945 784 945 q 825 945 808 945 q 873 943 842 944 q 939 941 903 941 q 1003 943 974 941 q 1049 945 1032 944 q 1069 945 1066 945 q 1099 914 1099 945 q 1096 897 1099 903 q 1085 886 1093 890 q 1072 882 1077 883 q 1054 881 1067 882 q 1035 880 1040 880 q 987 859 1000 878 q 972 784 974 840 q 967 423 967 548 q 968 232 967 320 q 971 94 970 144 q 972 34 972 45 q 944 -33 972 -33 q 876 26 928 -33 l 589 354 q 281 693 283 693 l 275 688 q 256 194 256 403 l 256 155 q 267 83 256 99 q 320 64 278 66 q 404 54 372 64 q 422 18 422 46 q 399 -8 422 -8 q 388 -7 397 -8 q 363 -5 378 -7 q 327 -3 347 -4 q 281 -1 307 -1 q 229 0 255 0 q 148 -2 189 0 q 83 -5 107 -4 l 58 -8 q 30 19 30 -8 q 50 56 30 49 q 87 60 58 58 q 138 71 117 62 q 168 100 159 80 q 194 490 174 114 q 208 753 202 650 z "},"O":{"ha":1080,"x_min":24,"x_max":1055,"o":"m 1055 468 q 909 109 1055 252 q 557 -34 764 -34 q 358 5 456 -34 q 186 117 260 45 q 24 490 27 270 q 176 850 24 700 q 537 1000 327 1000 q 906 842 757 1000 q 1055 468 1055 685 m 157 533 q 182 355 157 441 q 255 201 208 270 q 380 90 302 132 q 552 47 457 47 q 677 69 616 47 q 793 135 738 91 q 884 259 849 179 q 918 444 918 339 q 881 659 918 553 q 765 833 844 764 q 515 926 659 926 q 387 903 449 926 q 272 833 324 879 q 189 710 220 788 q 157 533 157 632 z "},"P":{"ha":793,"x_min":19,"x_max":777,"o":"m 661 692 q 577 841 661 781 q 351 901 494 901 q 282 897 297 901 q 267 879 267 892 l 267 483 q 275 469 267 472 q 317 467 282 467 q 566 529 471 467 q 661 692 661 591 m 96 948 q 273 956 165 948 q 426 963 380 963 q 697 879 604 963 q 777 699 777 806 l 777 697 q 736 565 776 623 q 636 475 697 507 q 324 418 536 418 l 282 418 q 264 396 264 418 l 264 114 q 273 78 264 90 q 308 65 282 66 q 439 57 431 60 q 458 26 458 52 l 458 24 q 431 -8 458 -8 l 404 -5 q 331 -2 377 -4 q 240 0 285 0 q 148 -2 194 0 q 75 -5 102 -4 l 47 -8 q 19 24 19 -8 q 20 35 19 30 q 21 43 20 39 q 24 49 22 46 q 29 54 27 52 q 36 57 31 56 q 44 59 41 58 q 55 60 47 60 q 68 62 62 61 q 85 63 75 62 q 106 65 96 64 q 136 77 129 68 q 144 103 144 85 l 144 846 q 143 863 144 857 q 135 876 142 869 q 114 882 127 882 l 64 882 q 49 883 54 882 q 37 893 43 884 q 31 918 31 902 q 61 948 31 948 l 96 948 z "},"Q":{"ha":1044,"x_min":27,"x_max":1152,"o":"m 566 45 q 810 158 711 45 q 910 457 910 271 q 873 676 910 568 q 754 854 836 784 q 522 937 656 937 q 271 832 378 937 q 163 544 163 727 q 211 308 163 420 q 353 120 259 195 q 566 45 448 45 m 633 -15 l 602 -19 q 540 -22 570 -22 q 340 19 435 -22 q 175 130 244 60 q 27 491 27 281 q 68 691 27 593 q 183 861 110 789 q 538 1005 330 1005 q 880 867 741 1005 q 994 696 954 793 q 1034 495 1034 598 q 963 226 1034 354 q 780 20 892 98 q 776 14 776 16 q 780 8 776 11 q 895 -93 834 -30 q 987 -176 956 -156 q 1105 -214 1046 -214 q 1125 -214 1116 -214 q 1135 -213 1134 -213 q 1152 -227 1152 -213 q 1111 -263 1152 -244 q 1028 -282 1070 -282 q 984 -278 1005 -282 q 941 -263 963 -274 q 906 -245 920 -252 q 871 -218 892 -237 q 842 -193 849 -199 q 812 -163 834 -186 q 785 -136 789 -140 q 633 -15 665 -15 z "},"R":{"ha":966,"x_min":19,"x_max":960,"o":"m 609 689 q 538 838 609 774 q 365 901 468 901 q 282 886 301 901 q 274 864 274 880 q 274 863 274 863 l 275 860 l 275 533 q 289 512 275 515 q 366 509 302 509 q 495 528 445 509 q 576 589 543 547 q 609 689 609 631 m 393 954 q 548 930 481 954 q 649 869 614 906 q 700 792 684 831 q 716 712 716 753 q 661 560 716 623 q 559 481 605 498 q 552 475 552 477 q 555 469 552 472 q 682 307 629 382 q 763 183 734 232 q 811 113 792 134 q 886 68 850 68 q 922 83 906 68 q 945 99 939 99 q 960 83 960 99 q 926 21 960 60 q 838 -18 891 -18 q 692 83 768 -18 l 553 281 q 425 453 435 446 q 401 458 418 458 l 300 458 q 281 438 281 458 l 281 117 l 281 113 q 316 68 281 72 q 345 65 328 66 q 370 63 361 64 q 390 62 378 62 q 408 60 401 61 q 421 56 414 58 q 432 52 429 54 q 438 44 435 49 q 442 34 441 39 q 444 22 444 28 q 415 -8 444 -8 q 404 -7 414 -8 q 377 -5 393 -7 q 340 -3 361 -4 q 291 -1 319 -1 q 236 0 263 0 q 181 -1 209 0 q 133 -3 153 -1 q 96 -5 113 -4 q 69 -7 79 -7 q 58 -8 60 -8 q 34 30 34 -8 q 35 39 34 35 q 37 46 35 43 q 41 51 39 49 q 48 54 43 53 q 57 57 53 56 q 69 59 61 58 q 83 60 77 60 q 100 60 88 60 q 119 62 111 61 q 150 77 142 65 q 157 111 157 88 l 157 829 q 140 867 157 860 q 41 888 122 875 q 19 911 19 892 q 38 937 19 937 l 85 937 q 251 945 151 937 q 393 954 351 954 z "},"S":{"ha":682,"x_min":35,"x_max":654,"o":"m 45 716 q 115 881 45 811 q 293 951 186 951 q 383 937 343 951 q 446 909 423 922 q 472 895 468 895 q 496 923 480 895 q 530 951 511 951 q 547 943 540 951 q 553 925 553 936 q 552 907 553 922 q 549 866 551 892 q 547 810 547 840 q 549 754 547 780 q 552 714 551 728 q 553 697 553 700 q 529 677 553 677 l 528 677 q 499 691 509 677 q 474 739 490 705 q 431 804 458 773 q 279 882 362 882 q 183 844 222 882 q 144 751 144 806 q 216 625 144 677 q 353 571 258 594 q 479 534 448 548 q 606 433 557 500 q 654 275 654 366 q 566 64 654 151 q 350 -23 477 -23 q 138 53 225 -23 q 96 72 117 72 q 77 70 90 72 q 60 68 65 68 q 35 90 35 68 q 40 117 35 94 q 53 193 45 140 q 66 315 61 245 q 98 345 69 345 q 124 332 119 345 q 136 264 129 320 q 138 231 137 247 q 140 208 140 214 q 141 195 141 201 q 144 185 141 190 q 148 178 146 180 q 157 165 149 175 q 172 146 165 155 q 351 54 241 54 q 494 110 434 54 q 553 247 553 165 q 472 400 553 340 q 332 456 426 434 q 210 491 239 479 q 87 584 129 524 q 45 716 45 644 z "},"T":{"ha":960,"x_min":16,"x_max":958,"o":"m 686 -8 l 659 -5 q 588 -2 633 -4 q 498 0 543 0 q 440 -1 469 0 q 389 -3 411 -1 q 349 -5 366 -4 q 320 -7 331 -7 q 308 -8 309 -8 q 281 27 281 -8 q 292 54 281 49 q 346 62 304 60 q 382 65 369 64 q 420 80 411 68 q 429 117 429 92 l 429 821 q 427 841 429 834 q 417 856 426 848 q 392 864 408 864 l 184 864 q 149 858 159 864 q 132 836 140 852 q 71 718 75 723 q 47 707 61 707 q 25 717 34 707 q 16 742 16 727 l 16 743 q 57 935 16 749 q 85 956 61 956 l 895 956 q 924 924 918 956 q 958 746 958 747 q 949 724 958 734 q 930 715 941 715 q 899 742 914 715 q 882 772 891 755 q 867 798 872 789 q 857 819 863 807 q 846 835 850 830 q 838 846 842 840 q 831 854 834 852 q 823 859 827 856 q 814 862 819 861 q 805 863 810 863 q 793 864 800 864 l 589 864 q 568 857 575 864 q 559 844 560 850 q 559 826 559 838 l 559 99 q 572 72 559 77 q 640 62 585 66 q 685 58 669 60 q 705 49 700 57 q 709 19 709 41 q 686 -8 709 -8 z "},"U":{"ha":1050,"x_min":23,"x_max":1031,"o":"m 1031 921 q 1016 896 1031 902 q 984 890 1001 890 q 952 867 967 890 q 937 795 937 845 q 937 787 937 792 q 936 780 936 781 l 936 465 q 937 433 936 454 q 937 400 937 411 l 937 355 q 934 276 937 311 q 919 197 930 241 q 881 114 907 152 q 814 47 854 76 q 552 -20 718 -20 q 383 0 458 -20 q 267 47 308 20 q 194 111 225 73 q 153 170 163 148 q 136 217 142 193 q 118 395 118 281 q 119 448 118 412 q 119 500 119 483 l 119 850 q 119 865 119 859 q 114 874 118 871 q 109 880 110 878 q 99 884 107 883 q 89 886 91 886 q 75 888 87 887 q 61 890 64 890 q 23 924 23 895 q 52 958 23 958 q 73 956 56 958 q 123 954 91 955 q 191 952 155 952 l 199 952 q 273 954 239 952 q 326 956 307 955 q 349 958 345 958 q 374 921 374 958 q 372 903 374 910 q 360 894 369 897 q 344 890 351 891 q 319 887 336 888 q 289 884 301 886 q 244 836 244 879 l 244 401 q 260 245 244 309 q 330 134 277 182 q 579 58 412 58 q 833 184 773 58 q 860 339 860 241 l 860 358 q 859 401 860 373 q 859 445 859 430 l 859 822 q 854 861 859 846 q 833 882 850 875 q 808 890 817 888 q 765 895 800 891 q 735 926 735 898 q 761 958 735 958 q 780 956 764 958 q 823 954 796 955 q 883 952 850 952 q 943 954 916 952 q 986 956 970 955 q 1005 958 1002 958 q 1031 921 1031 958 z "},"V":{"ha":1152,"x_min":22,"x_max":1143,"o":"m 62 958 q 87 956 66 958 q 142 954 107 955 q 218 952 178 952 q 291 954 258 952 q 342 956 324 955 q 365 958 361 958 q 391 930 391 958 q 380 901 391 907 q 328 890 369 895 q 312 887 317 888 q 275 852 275 883 q 283 823 275 840 q 427 526 349 678 q 551 291 505 373 q 605 201 598 209 q 618 195 610 195 q 633 208 627 195 q 911 812 798 505 q 920 844 920 837 q 888 884 920 873 q 851 888 876 888 q 812 895 826 888 q 799 922 799 901 q 829 958 799 958 q 851 956 833 958 q 902 954 869 955 q 971 952 935 952 q 1041 954 1009 952 q 1090 956 1073 955 q 1112 958 1108 958 q 1143 920 1143 958 q 1127 894 1143 899 q 1083 882 1111 888 q 1038 857 1055 876 q 984 747 1023 841 q 850 444 945 652 q 627 0 755 236 q 591 -27 610 -27 q 556 0 572 -27 q 341 385 434 214 q 208 639 248 556 q 142 778 168 722 q 106 852 115 834 q 85 878 98 869 q 63 888 81 880 q 33 906 45 897 q 22 929 22 916 q 62 958 22 958 z "},"W":{"ha":1392,"x_min":18,"x_max":1389,"o":"m 53 958 q 73 956 56 958 q 120 954 90 955 q 186 952 151 952 q 250 954 220 952 q 296 956 279 955 q 316 958 313 958 q 342 922 342 958 q 330 898 342 905 q 303 892 319 891 q 271 891 288 894 q 245 879 254 888 q 239 861 239 871 q 243 844 239 852 q 460 228 315 616 q 480 203 469 203 q 500 227 490 203 q 575 414 511 251 q 629 551 608 498 q 632 567 632 562 l 632 568 q 540 842 632 576 q 517 886 528 880 q 444 894 507 891 q 419 925 419 894 q 452 958 419 958 q 474 956 456 958 q 524 954 492 955 q 594 952 556 952 l 595 952 q 665 954 632 952 q 715 956 697 955 q 738 958 734 958 q 761 926 761 958 q 751 903 761 907 q 701 894 741 898 q 658 860 658 888 q 661 842 658 856 q 764 555 705 707 q 862 307 822 403 q 911 198 902 212 q 928 186 921 186 l 929 186 q 951 212 943 186 q 1069 496 1013 343 q 1153 743 1126 650 q 1180 856 1180 837 q 1179 869 1180 864 q 1173 878 1177 873 q 1164 884 1168 882 q 1150 887 1160 886 q 1134 889 1141 888 q 1113 891 1127 890 q 1089 894 1099 892 q 1061 926 1061 897 q 1086 958 1061 958 q 1108 956 1090 958 q 1158 954 1126 955 q 1226 952 1190 952 l 1227 952 q 1295 954 1263 952 q 1344 956 1326 955 q 1366 958 1362 958 q 1389 925 1389 958 q 1377 900 1389 907 q 1349 892 1364 892 q 1315 886 1333 892 q 1287 861 1297 879 q 1272 817 1286 859 q 1230 701 1257 776 q 1166 532 1203 627 q 1074 305 1130 438 q 954 37 1017 172 q 898 -31 924 -31 q 838 43 864 -31 q 718 351 779 193 q 669 464 673 464 q 662 458 665 464 q 553 175 614 335 q 486 4 498 30 q 465 -26 475 -22 l 464 -26 q 452 -31 456 -31 q 435 -26 442 -31 q 423 -12 429 -22 q 414 5 418 -3 q 405 27 410 14 q 397 47 400 41 q 296 305 345 178 q 216 527 248 433 q 159 694 183 621 q 121 812 136 766 q 106 863 107 859 q 64 888 96 887 q 24 899 31 890 q 18 918 18 906 q 26 945 18 933 q 53 958 35 958 z "},"X":{"ha":922,"x_min":7,"x_max":914,"o":"m 217 952 q 294 954 259 952 q 348 956 328 955 q 372 958 368 958 q 392 949 385 958 q 399 917 399 941 q 384 897 399 902 q 350 892 369 891 q 316 884 331 892 q 301 857 301 876 q 317 815 301 848 q 473 567 469 568 q 479 570 476 567 q 522 629 499 598 q 557 680 544 661 q 586 719 571 699 q 609 751 601 739 q 626 777 617 764 q 639 797 635 789 q 647 812 643 804 q 653 826 651 821 q 656 837 655 831 q 656 849 656 842 q 655 865 656 859 q 648 877 654 872 q 640 884 643 882 q 628 888 637 887 q 614 890 618 890 q 597 892 610 891 q 581 892 585 892 q 544 933 544 895 q 567 958 544 958 q 591 956 571 958 q 648 954 612 955 q 727 952 685 952 q 806 954 770 952 q 863 956 842 955 q 888 958 884 958 q 914 932 914 958 q 902 898 914 907 q 873 890 890 888 q 831 887 857 891 q 787 868 806 883 q 741 819 770 856 q 700 765 711 781 q 519 505 519 510 q 758 121 519 498 q 799 73 784 80 q 878 60 814 66 q 914 20 914 54 q 890 -8 914 -8 q 879 -7 888 -8 q 852 -5 869 -7 q 814 -3 836 -4 q 766 -1 793 -1 q 711 0 738 0 q 656 -1 684 0 q 608 -3 629 -1 q 571 -5 587 -4 q 545 -7 555 -7 q 533 -8 534 -8 q 507 20 507 -8 q 533 56 507 49 q 590 64 541 57 q 621 95 621 69 l 621 98 q 524 266 621 111 q 442 396 475 343 q 438 400 442 400 q 247 132 433 400 q 232 96 232 111 q 246 70 232 76 q 304 60 260 64 q 317 58 312 58 q 355 22 355 52 q 331 -8 355 -8 q 321 -7 330 -8 q 298 -5 313 -7 q 266 -3 283 -4 q 225 -1 248 -1 q 179 0 202 0 q 106 -2 142 0 q 49 -5 71 -4 l 27 -8 q 7 18 7 -8 q 7 29 7 24 q 8 37 8 34 q 11 44 8 41 q 14 50 14 47 q 20 53 15 52 q 26 56 24 54 q 35 58 28 57 q 45 60 42 60 q 59 62 49 61 q 75 65 69 64 q 92 69 84 66 q 106 75 100 72 q 120 83 113 77 q 132 93 127 90 q 144 107 136 96 q 157 123 153 118 q 173 146 161 129 q 191 172 184 163 q 396 463 396 458 q 175 821 396 468 q 127 877 145 868 q 60 890 110 886 q 24 926 24 892 q 53 958 24 958 q 77 956 57 958 q 134 954 98 955 q 213 952 171 952 l 217 952 z "},"Y":{"ha":926,"x_min":15,"x_max":916,"o":"m 658 891 q 625 894 636 892 q 605 904 614 895 q 595 929 595 913 q 603 948 595 939 q 625 958 610 958 q 644 956 628 958 q 688 954 661 955 q 749 952 716 952 l 753 952 q 814 954 785 952 q 857 956 842 955 q 876 958 872 958 q 906 949 897 958 q 916 929 916 940 q 905 907 916 916 q 876 884 895 898 q 844 853 857 871 l 642 593 q 595 530 618 562 q 559 481 571 498 q 534 448 547 464 q 516 423 521 431 q 506 408 511 415 q 500 393 500 400 q 498 382 499 387 q 498 368 498 377 l 498 98 q 513 73 498 77 q 595 65 528 68 q 650 62 629 64 q 681 30 681 61 l 681 18 q 658 -8 681 -8 l 629 -5 q 555 -2 602 -4 q 463 0 509 0 q 402 -1 433 0 q 349 -3 372 -1 q 307 -5 326 -4 q 278 -7 289 -7 q 266 -8 267 -8 q 231 31 231 -8 q 231 41 231 37 q 233 50 232 46 q 237 55 233 53 q 242 58 240 57 q 250 61 244 60 q 261 63 256 62 q 275 64 266 64 q 292 64 283 64 q 314 65 301 65 q 339 66 327 65 l 345 68 q 352 68 351 68 q 357 68 353 68 q 363 70 362 69 q 369 72 365 71 q 374 76 373 73 q 376 81 374 79 q 379 88 378 84 q 380 98 380 92 l 380 385 q 377 408 380 397 q 373 422 374 418 q 363 441 372 426 q 350 461 354 456 q 129 817 222 666 q 95 871 98 865 q 54 890 81 888 q 20 907 27 892 q 15 926 15 916 q 24 948 15 939 q 50 958 33 958 q 74 956 54 958 q 128 954 94 955 q 203 952 163 952 q 278 954 244 952 q 331 956 312 955 q 354 958 350 958 q 380 929 380 958 q 379 917 380 922 q 376 907 378 911 q 372 901 374 903 q 365 896 370 898 q 356 893 359 894 q 344 891 353 892 q 329 890 335 890 q 311 889 323 890 q 289 887 298 888 q 252 856 252 883 l 252 853 q 319 730 252 844 q 450 502 389 606 q 469 481 463 481 q 480 490 472 481 q 700 798 681 766 q 724 856 724 841 q 712 884 724 878 q 667 891 700 890 q 658 891 661 891 z "},"Z":{"ha":873,"x_min":22,"x_max":861,"o":"m 22 709 q 24 742 22 715 q 31 817 27 769 q 34 918 34 864 l 34 970 q 62 1008 34 1008 q 99 975 84 1008 q 175 937 111 937 l 780 937 q 814 913 814 937 q 742 807 814 902 q 689 738 709 765 l 487 484 q 266 176 334 297 q 258 156 258 164 q 283 128 258 134 q 397 117 308 122 q 533 113 464 113 l 563 113 q 699 127 654 113 q 768 197 743 141 q 787 276 776 218 q 802 342 798 334 q 827 355 811 355 q 850 345 838 355 q 861 316 861 335 l 861 315 q 859 267 861 289 q 852 218 856 245 q 845 171 848 191 q 842 117 844 151 q 838 68 840 83 q 831 36 836 54 q 817 9 826 18 q 791 0 807 1 l 64 0 l 61 0 q 22 30 22 0 q 34 56 22 41 q 620 788 311 446 q 639 818 639 810 q 620 833 639 833 l 171 833 q 151 832 159 833 q 135 829 142 831 q 123 825 127 826 q 113 815 118 823 q 106 804 109 807 q 99 787 103 800 q 94 766 95 773 q 87 738 92 758 q 79 705 81 718 q 50 675 71 675 q 31 684 39 675 q 22 709 22 692 z "},"[":{"ha":525,"x_min":33,"x_max":494,"o":"m 174 -216 q 179 -222 174 -222 q 190 -216 180 -222 q 218 -202 199 -210 q 262 -190 237 -194 q 267 -182 267 -189 l 267 902 q 258 911 267 909 q 227 920 250 914 q 183 940 205 926 q 178 943 180 943 q 174 936 174 943 l 174 -216 m 144 1034 q 174 1021 155 1034 q 228 996 194 1009 q 308 983 262 983 q 389 994 349 983 q 453 1015 429 1004 l 476 1024 q 488 1015 483 1024 q 494 1001 494 1006 q 475 970 494 991 q 416 928 456 949 q 332 907 377 907 q 324 898 324 907 l 326 -176 q 331 -189 326 -186 q 347 -192 336 -191 q 379 -199 357 -193 q 426 -221 401 -206 q 471 -257 452 -237 q 491 -288 491 -277 q 475 -305 491 -305 q 448 -293 472 -305 q 382 -269 425 -281 q 293 -256 339 -256 q 214 -265 251 -256 q 157 -283 178 -274 q 133 -292 137 -292 q 111 -262 111 -292 l 111 313 q 106 324 111 324 q 94 317 104 324 q 72 309 83 309 q 33 366 33 309 q 72 416 33 416 q 93 412 83 416 q 104 407 103 407 q 110 416 110 407 l 110 986 q 144 1034 110 1034 z "},"\\":{"ha":326,"x_min":4,"x_max":323,"o":"m 323 -278 q 305 -302 323 -290 q 279 -313 288 -313 q 264 -298 264 -313 q 4 827 4 826 q 21 848 4 838 q 47 859 38 859 q 68 837 61 859 q 188 283 123 559 q 288 -132 252 7 q 323 -278 323 -270 z "},"]":{"ha":525,"x_min":33,"x_max":494,"o":"m 351 -216 l 351 936 q 347 943 351 943 q 342 940 345 943 q 313 924 327 930 q 289 917 298 918 q 272 913 279 916 q 261 909 264 911 q 258 902 258 907 l 258 -182 q 264 -190 258 -189 q 308 -202 289 -194 q 336 -216 327 -210 q 346 -222 345 -222 q 351 -216 351 -222 m 381 1034 q 415 986 415 1034 l 415 416 q 420 407 415 407 q 432 412 422 407 q 453 416 442 416 q 494 366 494 416 q 453 309 494 309 q 431 317 442 309 q 419 324 420 324 q 414 313 414 324 l 414 -262 q 392 -292 414 -292 q 368 -283 388 -292 q 311 -265 347 -274 q 232 -256 274 -256 q 143 -269 186 -256 q 77 -293 100 -281 q 50 -305 53 -305 q 34 -288 34 -305 q 54 -257 34 -277 q 99 -221 73 -237 q 146 -199 123 -206 q 178 -192 168 -193 q 194 -189 189 -191 q 199 -176 199 -186 l 201 898 q 193 907 201 907 q 109 928 148 907 q 51 970 69 949 q 33 1001 33 991 q 37 1016 33 1008 q 49 1024 42 1024 l 73 1015 q 136 994 96 1004 q 217 983 176 983 q 297 996 263 983 q 351 1021 331 1009 q 381 1034 370 1034 z "},"^":{"ha":587,"x_min":71,"x_max":518,"o":"m 102 642 q 79 651 88 642 q 71 673 71 661 q 80 700 71 684 q 241 968 229 952 q 270 990 254 983 q 290 994 279 994 q 302 992 297 994 q 313 988 308 990 q 323 981 317 986 q 332 974 328 977 q 340 964 335 971 q 347 956 346 958 q 353 946 349 954 q 359 937 358 939 q 456 784 403 869 q 518 671 518 686 q 508 648 518 658 q 484 639 498 639 q 470 642 477 639 q 457 649 463 646 q 445 660 452 652 q 435 671 438 667 q 424 685 431 675 q 415 697 416 694 q 304 840 305 837 q 294 842 300 842 l 293 842 q 256 806 286 841 q 221 762 248 795 q 167 694 189 722 q 156 682 163 690 q 145 669 149 673 q 135 659 141 665 q 125 649 129 652 q 115 644 121 646 q 102 642 109 642 z "},"_":{"ha":731,"x_min":38,"x_max":696,"o":"m 38 -69 l 38 -64 q 57 -30 38 -30 l 677 -30 q 696 -64 696 -30 l 696 -66 q 677 -106 696 -106 l 57 -106 q 38 -69 38 -106 z "},"`":{"ha":315,"x_min":11,"x_max":286,"o":"m 11 922 q 26 960 11 945 q 62 974 42 974 l 64 974 q 140 916 102 974 q 235 774 183 852 q 286 686 286 699 q 278 667 286 675 q 259 658 270 658 l 256 658 q 237 667 247 658 q 157 747 227 675 q 46 860 94 811 q 11 922 11 895 z "},"a":{"ha":587,"x_min":41,"x_max":579,"o":"m 41 479 q 106 561 41 519 q 254 602 172 602 q 307 597 279 602 q 368 578 334 591 q 427 531 403 564 q 456 450 450 498 q 458 400 458 418 l 458 126 q 468 87 458 102 q 487 68 477 72 q 506 65 496 65 q 536 77 525 65 q 553 100 547 88 q 567 111 559 111 q 579 94 579 111 q 549 22 579 61 q 472 -16 519 -16 q 438 -11 454 -16 q 411 3 422 -5 q 391 20 400 12 q 377 35 382 28 l 373 41 q 372 41 372 41 q 370 42 372 42 q 366 39 368 42 q 357 28 365 37 q 334 11 349 20 q 205 -27 273 -27 q 90 18 134 -27 q 46 127 46 62 l 46 129 q 104 252 46 208 q 157 281 125 269 q 222 301 190 294 q 282 313 254 308 q 330 319 311 317 l 349 320 q 359 339 359 323 l 359 389 q 327 500 359 461 q 245 537 293 537 q 126 445 172 537 q 96 429 114 429 q 58 442 75 429 q 41 479 41 456 m 237 49 q 296 62 269 49 q 335 87 324 76 q 353 106 346 98 q 361 137 361 117 l 361 171 l 361 228 q 359 261 361 254 q 347 269 357 269 q 262 258 313 269 q 182 218 212 247 q 149 142 149 191 q 178 66 149 91 q 237 49 197 49 z "},"b":{"ha":674,"x_min":5,"x_max":662,"o":"m 197 548 q 203 540 197 540 q 229 554 206 540 q 296 583 252 568 q 392 597 340 597 q 588 512 514 597 q 662 290 662 427 q 650 188 662 237 q 593 83 637 138 q 477 1 549 28 q 323 -26 404 -26 q 245 -13 286 -26 q 187 0 205 0 q 144 -15 163 0 q 118 -30 125 -30 q 96 12 96 -30 q 98 418 96 94 q 100 825 100 743 q 83 856 100 844 q 64 867 73 861 q 48 877 54 873 q 35 884 42 880 q 25 891 28 888 q 18 897 22 894 q 12 901 14 899 q 8 904 9 902 q 6 908 7 906 q 5 911 5 910 q 23 929 5 922 q 182 990 176 990 q 201 963 201 987 q 199 741 201 917 q 197 548 197 564 m 575 267 q 506 452 575 380 q 343 524 437 524 q 243 500 294 524 q 193 456 193 477 l 193 100 q 192 96 193 99 q 191 91 191 92 q 212 57 191 65 q 339 31 277 31 q 510 97 445 31 q 575 267 575 163 z "},"c":{"ha":529,"x_min":23,"x_max":528,"o":"m 290 -24 q 97 60 171 -24 q 23 274 23 144 q 106 505 23 416 q 321 594 189 594 q 446 563 395 594 q 498 491 498 532 q 481 454 498 468 q 442 439 465 439 q 364 481 412 439 q 274 522 316 522 q 163 458 210 522 q 115 308 115 395 q 178 136 115 209 q 335 64 241 64 q 402 75 372 64 q 448 101 433 87 q 479 127 464 115 q 505 138 495 138 q 521 132 514 138 q 528 115 528 125 q 519 94 528 104 q 423 9 483 43 q 290 -24 363 -24 z "},"d":{"ha":685,"x_min":23,"x_max":684,"o":"m 331 532 q 172 469 228 532 q 117 300 117 407 q 195 113 117 182 q 358 43 274 43 q 440 60 400 43 q 488 103 480 77 q 494 134 494 125 l 494 446 q 479 479 494 464 q 331 532 422 532 m 334 587 q 410 583 374 587 q 464 572 445 578 l 483 567 q 494 579 494 567 l 494 812 q 493 820 494 817 q 492 826 492 823 q 489 831 491 829 q 486 836 487 834 q 479 840 484 837 q 471 844 475 842 q 460 849 468 846 q 447 854 453 852 q 430 861 441 857 q 410 869 419 865 q 384 891 384 876 q 396 907 384 899 q 575 991 570 991 q 591 972 591 991 q 590 901 591 959 q 588 743 589 844 q 587 522 587 642 q 591 114 587 151 q 592 108 591 110 q 594 104 593 106 q 597 100 595 102 q 603 98 600 99 q 609 97 606 98 q 618 96 612 96 q 629 96 624 96 q 642 96 633 96 q 656 95 650 95 q 684 75 684 95 q 676 60 684 65 q 645 44 669 54 q 601 22 621 34 q 552 -9 574 7 q 521 -32 530 -24 q 506 -39 511 -39 q 495 -24 495 -39 l 495 20 q 491 24 495 24 l 483 19 q 463 5 476 14 q 431 -11 449 -3 q 385 -24 412 -19 q 327 -30 357 -30 q 108 62 193 -30 q 23 288 23 153 q 101 498 23 408 q 332 587 179 587 l 334 587 z "},"e":{"ha":567,"x_min":31,"x_max":555,"o":"m 31 286 q 106 513 31 427 q 288 598 180 598 q 420 560 357 598 q 526 465 484 522 q 537 435 537 452 l 537 433 q 530 411 537 420 q 509 394 524 401 q 483 382 494 387 q 451 372 472 378 q 425 363 430 365 q 134 262 141 266 q 129 254 129 259 q 133 227 129 245 q 151 176 137 208 q 186 119 165 145 q 247 73 208 92 q 335 53 286 53 q 500 121 430 53 q 532 140 519 140 q 555 119 555 140 q 544 98 555 111 q 435 7 500 41 q 298 -26 370 -26 q 208 -9 252 -26 q 123 41 164 7 q 56 138 81 75 q 31 286 31 202 m 403 430 q 355 485 403 448 q 256 522 308 522 q 159 469 195 522 q 123 324 123 416 q 130 313 123 313 q 260 363 133 313 q 391 414 387 412 q 403 430 403 420 z "},"f":{"ha":406,"x_min":14,"x_max":528,"o":"m 46 -8 q 24 26 24 -8 q 33 43 24 39 q 72 52 42 47 q 91 54 84 53 q 98 56 95 54 q 104 60 102 57 q 107 64 106 62 q 109 69 109 65 q 110 75 110 73 q 111 81 110 76 q 111 88 111 87 q 117 486 117 159 q 109 498 117 495 q 69 500 100 500 q 43 500 53 500 q 14 525 14 500 q 43 567 14 567 q 84 568 61 568 q 110 570 106 568 q 114 581 114 571 l 114 582 q 174 849 118 751 q 287 958 213 917 q 427 1000 361 1000 q 503 977 477 1000 q 528 928 528 955 q 512 890 528 906 q 469 873 496 873 q 413 890 450 873 q 354 907 376 907 q 248 822 283 907 q 212 605 212 736 l 212 593 q 214 575 212 579 q 225 571 216 571 l 361 571 q 392 543 392 571 l 392 541 q 355 499 392 499 l 225 499 q 213 487 213 499 l 213 90 l 213 84 q 240 52 213 53 q 264 50 251 50 q 284 49 278 49 q 298 48 290 49 q 309 45 305 47 q 315 41 312 43 q 319 33 319 38 q 320 22 320 28 q 297 -8 320 -8 q 289 -7 296 -8 q 271 -5 282 -7 q 244 -3 259 -4 q 210 -1 229 -1 q 172 0 191 0 q 134 -1 153 0 q 100 -3 114 -1 q 73 -5 85 -4 q 54 -7 61 -7 q 46 -8 47 -8 z "},"g":{"ha":610,"x_min":31,"x_max":598,"o":"m 259 555 q 172 512 206 555 q 138 401 138 469 q 179 263 138 321 q 282 205 220 205 q 372 249 338 205 q 406 358 406 293 q 364 495 406 435 q 259 555 323 555 m 115 -122 q 180 -221 115 -183 q 342 -259 244 -259 q 478 -229 438 -259 q 518 -159 518 -198 q 463 -76 518 -102 q 396 -56 434 -61 q 290 -50 358 -52 q 170 -42 221 -47 l 165 -42 q 141 -57 156 -42 q 115 -122 115 -83 m 31 385 q 96 537 31 473 q 255 601 160 601 q 368 576 313 601 q 430 552 423 552 q 503 595 473 552 q 543 628 524 628 q 578 610 562 628 q 595 571 595 591 q 574 529 595 547 q 526 500 553 511 q 496 487 498 488 q 490 476 490 480 q 494 463 490 473 q 502 432 498 452 q 506 389 506 412 q 439 224 506 293 q 275 156 372 156 q 224 162 248 156 q 194 168 199 168 q 153 144 175 168 q 132 98 132 121 q 191 49 132 61 q 341 34 250 37 q 472 19 433 31 q 566 -41 534 1 q 598 -134 598 -84 q 585 -197 598 -165 q 541 -258 571 -228 q 450 -307 510 -288 q 309 -326 391 -326 q 98 -271 159 -326 q 38 -151 38 -216 q 41 -124 38 -137 q 47 -101 43 -111 q 56 -82 52 -91 q 67 -66 61 -73 q 79 -53 73 -58 q 91 -43 85 -47 q 100 -36 96 -39 q 107 -31 104 -33 l 110 -30 q 113 -23 113 -27 q 100 -14 113 -22 q 74 14 87 -5 q 61 60 61 33 q 138 189 61 126 l 140 190 q 141 194 141 191 q 129 206 141 199 q 96 233 117 213 q 57 283 75 252 q 31 385 31 330 z "},"h":{"ha":713,"x_min":16,"x_max":692,"o":"m 407 11 l 407 20 q 408 31 407 27 q 412 39 408 35 q 418 43 415 42 q 429 46 422 45 q 443 48 437 47 q 462 50 449 49 q 486 53 475 52 q 510 75 506 56 q 514 174 514 94 q 497 370 514 309 q 448 465 480 430 q 335 515 397 515 q 256 493 293 515 q 214 448 220 471 q 213 429 213 442 q 216 85 213 95 q 237 57 220 65 q 272 50 254 49 q 305 43 290 50 q 320 20 320 37 q 304 -8 320 -8 q 296 -7 302 -8 q 277 -5 289 -7 q 250 -3 264 -4 q 215 -1 235 -1 q 176 0 195 0 q 136 -1 156 0 q 101 -3 117 -1 q 73 -5 85 -4 q 54 -7 61 -7 q 46 -8 47 -8 q 30 19 30 -8 q 38 39 30 35 q 80 50 46 43 q 103 62 95 53 q 112 77 111 71 q 114 98 113 83 q 121 479 121 308 l 121 484 q 115 825 121 792 q 64 853 113 842 q 16 883 16 864 q 39 910 16 898 q 198 998 193 998 l 199 998 q 221 972 221 998 l 220 544 q 227 534 220 534 q 250 547 228 534 q 310 573 271 560 q 391 586 349 586 q 576 460 521 586 q 606 344 598 408 q 617 92 613 279 q 624 64 617 73 q 639 52 631 54 q 669 47 647 50 q 692 22 692 45 q 674 -8 692 -8 q 666 -7 673 -8 q 647 -5 659 -7 q 621 -3 635 -4 q 586 -1 606 -1 q 547 0 566 0 q 509 -1 528 0 q 475 -3 490 -1 q 448 -5 460 -4 q 430 -7 437 -7 q 422 -8 423 -8 q 407 11 407 -8 z "},"i":{"ha":336,"x_min":20,"x_max":317,"o":"m 130 168 q 130 300 130 239 q 131 395 130 361 q 132 437 132 430 q 121 458 132 452 q 38 494 111 464 q 20 511 20 500 q 22 519 20 515 q 29 526 24 524 q 38 531 34 529 q 49 536 42 533 q 58 540 56 538 q 212 613 210 613 l 213 613 q 232 590 232 613 l 231 545 q 226 425 228 500 q 224 275 224 350 l 224 229 q 228 77 224 100 q 255 52 232 54 q 307 42 296 46 q 317 22 317 38 q 301 -8 317 -8 q 293 -7 300 -8 q 274 -5 286 -7 q 247 -3 262 -4 q 212 -1 232 -1 q 174 0 193 0 q 134 -1 155 0 q 100 -3 114 -1 q 73 -5 85 -4 q 54 -7 61 -7 q 46 -8 47 -8 q 24 15 24 -8 q 33 42 24 38 q 94 53 42 46 q 124 68 118 57 q 130 103 130 80 l 130 168 m 144 859 q 164 905 144 886 q 212 924 184 924 q 258 905 239 924 q 278 860 278 886 q 258 812 278 831 q 210 793 239 793 q 163 812 182 793 q 144 859 144 830 z "},"j":{"ha":321,"x_min":-50,"x_max":278,"o":"m 130 141 q 131 285 130 218 q 132 390 132 351 q 133 437 133 429 q 132 448 133 444 q 131 455 132 452 q 126 463 130 458 q 119 469 122 467 q 109 477 117 472 q 94 486 100 481 q 75 498 88 490 q 50 513 61 506 q 38 529 38 518 q 55 547 38 538 q 205 612 72 555 q 214 614 210 614 q 228 591 228 614 q 227 551 228 585 q 226 457 227 517 q 225 327 225 397 q 227 123 225 217 q 229 -25 228 28 q 231 -91 231 -79 q 210 -152 231 -122 q 165 -210 191 -179 q 90 -281 140 -240 q 3 -321 39 -321 q -35 -308 -20 -321 q -50 -274 -50 -294 q -34 -233 -50 -252 q 11 -214 -18 -214 q 33 -216 19 -214 q 53 -218 46 -218 q 75 -214 64 -218 q 100 -200 87 -210 q 123 -166 114 -190 q 132 -109 132 -142 q 131 -70 132 -102 q 130 18 130 -38 q 130 141 130 75 m 144 838 q 163 886 144 867 q 212 905 183 905 q 258 886 239 905 q 278 841 278 868 q 258 794 278 814 q 210 774 237 774 q 163 793 183 774 q 144 838 144 811 z "},"k":{"ha":629,"x_min":7,"x_max":618,"o":"m 311 16 q 321 41 311 34 q 344 48 331 49 q 367 53 357 47 q 377 72 377 58 q 340 137 377 85 q 271 231 304 189 q 233 277 237 273 q 228 279 233 279 q 206 262 222 279 q 189 239 190 244 q 187 224 187 235 l 187 80 q 197 57 187 61 q 251 47 206 53 q 281 18 281 41 q 262 -5 281 -5 q 245 -4 259 -5 q 208 -1 232 -3 q 155 0 183 0 q 102 -1 126 0 q 63 -4 77 -3 q 46 -5 49 -5 q 22 19 22 -5 q 33 41 22 35 q 56 47 43 47 q 81 54 69 47 q 94 77 92 61 l 94 826 q 76 860 94 848 q 12 905 15 902 l 7 916 q 35 939 7 929 q 172 997 167 997 q 187 974 187 997 l 187 317 q 191 312 187 312 q 199 317 197 312 q 241 359 220 338 q 273 391 262 380 q 297 415 285 403 q 315 434 309 427 q 327 448 321 441 q 334 459 332 454 q 336 469 335 464 q 338 481 338 475 q 319 519 338 505 q 301 540 301 533 l 301 555 q 331 572 301 572 l 411 572 q 486 574 452 572 q 541 576 521 575 q 564 576 560 576 q 585 551 585 576 q 578 529 585 534 q 546 521 571 524 q 505 514 521 518 q 441 481 475 506 q 385 435 407 457 q 302 351 363 414 q 293 339 293 342 q 454 141 293 334 q 494 97 479 113 q 536 65 509 81 q 595 45 564 49 q 618 20 618 42 q 595 -8 618 -8 q 587 -7 594 -8 q 567 -5 579 -7 q 539 -3 555 -4 q 503 -1 524 -1 q 463 0 483 0 q 422 -1 442 0 q 386 -3 401 -1 q 358 -5 370 -4 q 338 -7 346 -7 q 330 -8 331 -8 q 311 15 311 -8 l 311 16 z "},"l":{"ha":331,"x_min":15,"x_max":316,"o":"m 316 19 q 300 -8 316 -8 q 291 -7 298 -8 q 271 -5 283 -7 q 244 -3 259 -4 q 209 -1 229 -1 q 170 0 189 0 q 132 -1 151 0 q 98 -2 113 -1 q 71 -4 83 -3 q 53 -6 60 -5 q 45 -7 46 -7 q 24 18 24 -7 l 24 22 q 33 44 24 39 q 81 53 42 49 q 113 68 106 56 q 121 106 121 81 l 121 812 q 120 820 121 817 q 118 826 119 823 q 116 831 117 829 q 112 835 115 833 q 106 838 109 837 q 98 843 104 840 q 90 848 92 846 q 60 865 76 856 q 39 878 45 873 q 26 886 33 882 q 17 895 19 891 q 15 902 15 898 l 15 903 q 66 937 15 910 q 186 998 130 968 q 203 1004 194 1004 q 222 978 222 1004 l 222 99 q 223 85 222 91 q 225 75 224 80 q 228 68 227 71 q 234 62 229 65 q 241 58 239 60 q 250 55 243 57 q 261 52 258 53 q 276 50 264 52 q 293 47 288 49 q 316 19 316 43 z "},"m":{"ha":1004,"x_min":31,"x_max":985,"o":"m 197 525 q 218 541 198 525 q 275 571 239 556 q 347 586 311 586 q 384 582 366 586 q 416 571 401 578 q 444 556 431 564 q 467 540 457 548 q 483 526 476 532 q 494 515 490 519 l 498 510 q 503 509 499 509 q 510 510 507 509 q 516 515 513 511 q 532 526 519 518 q 562 545 544 534 q 696 586 631 586 q 808 550 757 586 q 883 435 860 514 q 899 273 899 377 l 899 96 q 900 80 899 87 q 904 68 901 73 q 909 61 907 64 q 918 56 910 58 q 928 52 925 53 q 945 49 932 52 q 966 45 959 46 q 985 19 985 42 q 964 -8 985 -8 q 947 -6 962 -8 q 905 -2 932 -4 q 848 0 878 0 q 790 -2 817 0 q 748 -6 764 -4 q 730 -8 732 -8 q 714 -3 722 -8 q 707 15 707 3 q 715 38 707 34 q 772 52 724 42 q 800 90 800 56 l 800 282 q 743 484 800 434 q 656 515 704 515 q 572 492 614 515 q 530 452 530 469 l 532 448 q 533 435 532 444 q 536 416 534 427 q 538 390 537 406 q 538 358 538 374 l 538 91 q 538 85 538 90 q 537 79 537 81 l 537 77 q 585 50 537 54 q 605 47 597 49 q 632 20 632 43 q 614 -8 632 -8 q 606 -7 613 -8 q 586 -5 598 -7 q 559 -3 574 -4 q 524 -1 544 -1 q 484 0 503 0 q 445 -1 465 0 q 410 -3 425 -1 q 382 -5 395 -4 q 363 -8 370 -7 l 355 -8 q 336 22 336 -8 q 388 47 336 41 q 411 52 403 50 q 441 66 434 56 q 448 104 448 77 l 448 361 q 403 481 448 448 q 305 515 358 515 q 237 497 266 515 q 199 461 209 479 q 194 425 194 448 l 194 91 q 195 79 194 84 q 196 71 195 75 q 199 64 197 68 q 202 59 201 61 q 208 56 203 57 q 216 53 213 54 q 226 50 218 52 q 237 48 233 49 q 252 46 241 47 q 269 43 262 45 q 288 14 288 41 q 270 -8 288 -8 l 252 -5 q 208 -2 236 -4 q 152 0 180 0 q 102 -1 125 0 q 66 -4 79 -3 q 50 -5 53 -5 q 31 22 31 -5 q 43 42 31 37 q 68 47 54 47 q 94 56 81 47 q 109 83 107 64 l 109 427 q 102 453 109 445 q 68 483 96 461 q 53 494 58 490 q 41 510 41 502 q 47 523 41 517 q 88 549 54 529 q 153 590 125 572 q 179 602 176 602 q 191 586 191 602 l 191 533 q 197 525 191 525 z "},"n":{"ha":692,"x_min":15,"x_max":680,"o":"m 195 524 q 199 518 195 518 l 201 518 q 211 526 202 518 q 236 547 220 534 q 274 571 252 559 q 327 592 296 583 q 392 601 358 601 l 395 601 q 451 593 423 601 q 511 566 479 586 q 564 505 543 547 q 591 401 586 463 q 594 331 594 378 q 594 304 594 326 q 593 229 594 283 q 593 91 593 175 l 593 88 q 594 75 593 81 q 596 66 595 69 q 601 59 597 62 q 607 54 605 56 q 616 51 609 53 q 627 49 624 49 q 642 47 631 49 q 659 45 654 46 q 680 19 680 42 q 658 -8 680 -8 q 639 -6 654 -8 q 597 -2 624 -4 q 541 0 571 0 q 506 -1 524 0 q 475 -3 488 -1 q 452 -5 463 -4 q 434 -8 441 -7 l 427 -8 q 408 19 408 -8 q 416 38 408 34 q 460 47 425 42 q 480 52 472 50 q 498 60 494 54 q 503 84 503 66 l 503 300 q 484 450 503 401 q 423 515 464 496 q 346 533 382 533 q 251 500 293 533 q 203 444 209 468 q 201 425 201 433 l 201 96 l 201 92 q 232 53 201 57 q 298 38 293 43 q 307 15 307 31 q 289 -9 307 -9 q 280 -9 288 -9 q 260 -7 273 -8 q 233 -3 248 -5 q 199 -1 218 -1 q 160 0 179 0 q 122 -1 141 0 q 89 -3 103 -1 q 64 -5 75 -4 q 46 -7 53 -7 q 38 -8 39 -8 q 15 16 15 -8 q 24 40 15 35 q 69 50 33 45 q 100 65 94 54 q 106 98 106 76 l 106 429 q 99 462 106 453 q 43 507 92 471 q 35 521 35 515 l 35 522 q 45 535 35 529 q 103 567 54 541 q 167 601 141 587 q 180 606 175 606 q 197 586 197 606 l 197 532 q 195 526 197 530 l 195 524 z "},"o":{"ha":648,"x_min":30,"x_max":620,"o":"m 30 283 q 119 511 30 423 q 330 600 208 600 q 537 511 454 600 q 620 283 620 422 q 534 58 620 141 q 324 -26 448 -26 q 112 64 194 -26 q 30 283 30 153 m 190 112 q 216 77 190 112 q 328 42 243 42 q 469 112 414 42 q 525 278 525 182 q 463 460 525 387 q 320 534 401 534 q 195 475 252 534 q 137 290 137 415 q 190 112 137 182 z "},"p":{"ha":685,"x_min":18,"x_max":659,"o":"m 347 38 q 501 104 435 38 q 567 271 567 171 q 501 444 567 370 q 351 517 435 517 q 259 487 300 517 q 220 401 220 460 l 220 103 q 255 60 220 76 q 347 38 298 38 m 397 598 q 585 510 511 598 q 659 298 659 422 q 567 76 659 161 q 330 -9 475 -9 q 302 -9 316 -9 q 278 -7 289 -8 q 259 -4 267 -5 q 245 -3 251 -3 l 240 -1 q 231 -16 231 -1 l 231 -208 l 231 -212 q 262 -247 231 -244 q 294 -250 275 -248 q 320 -252 312 -251 q 339 -254 328 -252 q 355 -258 350 -255 q 364 -264 359 -260 q 370 -275 369 -269 q 372 -290 372 -281 q 355 -311 372 -311 q 336 -309 353 -311 q 289 -307 319 -308 q 225 -305 259 -305 q 136 -308 180 -305 q 66 -313 92 -311 l 41 -316 q 18 -289 18 -316 q 18 -281 18 -285 q 21 -276 19 -278 q 24 -272 23 -274 q 31 -268 26 -270 q 39 -265 35 -266 q 50 -262 42 -264 q 63 -260 57 -260 q 80 -256 69 -259 q 99 -252 91 -254 q 129 -214 129 -247 l 129 427 l 129 430 q 111 458 129 452 q 65 479 92 467 q 24 498 30 494 q 18 507 18 502 l 18 509 q 79 549 18 514 q 167 601 127 578 q 175 606 171 604 q 181 610 179 608 q 185 612 183 612 q 190 613 187 613 q 201 597 201 613 l 201 515 q 206 507 201 507 l 224 526 q 279 568 241 545 q 365 597 317 590 q 397 598 376 598 z "},"q":{"ha":728,"x_min":22,"x_max":716,"o":"m 359 557 q 192 490 262 557 q 122 324 122 422 q 199 146 122 220 q 380 72 275 72 q 456 83 416 72 q 509 109 495 95 q 521 151 521 121 q 517 476 521 214 q 498 517 517 503 q 359 557 434 557 m 22 296 q 42 399 22 349 q 104 497 62 450 q 220 573 145 544 q 393 602 296 602 q 498 593 445 602 q 552 585 551 585 q 587 602 575 585 q 604 620 600 620 q 620 543 620 620 q 621 525 620 537 q 621 506 621 513 l 621 -193 q 630 -237 621 -222 q 652 -255 639 -251 q 697 -263 665 -259 q 716 -282 716 -267 q 692 -312 716 -312 q 680 -311 689 -312 q 653 -310 670 -311 q 616 -309 636 -309 q 556 -311 586 -309 q 505 -315 526 -313 q 466 -320 483 -317 q 439 -325 449 -323 q 427 -327 429 -327 q 403 -301 403 -327 q 404 -293 403 -297 q 406 -286 404 -289 q 411 -281 408 -283 q 418 -277 414 -279 q 426 -275 422 -275 q 437 -273 430 -274 q 448 -270 444 -271 q 463 -267 453 -269 q 479 -264 472 -266 q 519 -209 519 -256 l 519 31 q 511 41 519 41 q 486 27 509 41 q 422 1 464 14 q 332 -12 381 -12 q 113 78 205 -12 q 22 296 22 168 z "},"r":{"ha":496,"x_min":16,"x_max":495,"o":"m 201 524 q 231 543 202 524 q 294 586 259 563 q 346 614 330 609 q 387 620 362 620 q 460 603 425 620 q 495 559 495 586 l 495 557 q 490 541 495 549 q 480 529 484 533 q 467 517 476 525 l 457 509 q 443 498 456 509 q 420 484 430 488 q 400 480 411 480 q 363 498 384 480 q 317 515 342 515 q 254 494 288 515 q 210 458 220 472 q 205 433 205 450 l 205 100 l 205 95 q 239 53 205 56 q 275 50 252 52 q 329 43 317 47 q 340 19 340 38 q 321 -8 340 -8 q 313 -7 320 -8 q 292 -5 305 -7 q 262 -3 278 -4 q 223 -1 245 -1 q 180 0 201 0 q 137 -1 159 0 q 98 -3 115 -1 q 68 -5 81 -4 q 48 -7 56 -7 q 39 -8 41 -8 q 16 15 16 -8 q 22 33 16 27 q 33 41 27 39 q 54 45 38 43 q 79 50 69 47 q 104 83 104 56 l 104 452 q 103 465 104 460 q 96 475 102 469 q 83 486 90 481 q 60 502 77 490 q 27 525 42 514 q 22 534 23 529 q 77 566 22 540 q 168 610 127 590 q 172 612 170 610 q 180 614 178 614 q 197 586 197 614 l 197 530 q 201 524 197 524 z "},"s":{"ha":469,"x_min":37,"x_max":457,"o":"m 43 429 q 98 543 43 494 q 243 593 153 593 q 277 591 262 593 q 302 587 293 589 q 312 586 311 586 q 328 593 317 586 q 347 600 339 600 q 369 574 363 600 q 380 517 373 553 q 391 455 387 480 q 396 427 396 430 q 363 406 396 406 q 344 416 350 406 q 332 445 338 426 q 320 473 327 464 q 272 511 305 494 q 206 528 239 528 q 144 507 170 528 q 118 454 118 487 q 228 354 118 385 q 269 344 241 350 q 311 334 296 338 q 347 321 326 330 q 384 301 368 313 q 415 271 400 289 q 457 161 457 222 q 399 31 457 88 q 245 -26 342 -26 q 138 -8 193 -26 q 54 43 83 9 q 38 91 38 61 q 37 140 38 113 q 37 174 37 167 q 41 209 37 201 q 61 217 46 217 q 80 205 76 217 q 85 169 84 193 q 94 130 87 145 q 151 76 106 103 q 251 49 197 49 q 331 75 298 49 q 363 141 363 100 q 352 186 363 167 q 316 219 340 206 q 277 238 292 232 q 229 252 262 244 l 197 259 q 43 429 43 304 z "},"t":{"ha":461,"x_min":27,"x_max":449,"o":"m 56 507 q 27 525 27 507 q 47 550 27 533 q 103 607 66 567 q 172 701 140 647 q 199 727 187 727 q 218 704 218 727 q 218 655 218 694 q 217 606 217 616 q 244 579 217 579 l 369 579 q 376 578 372 579 q 381 578 380 578 q 416 552 416 578 q 404 511 416 526 q 380 505 397 505 l 217 505 q 203 491 203 505 q 203 304 203 378 q 201 203 202 229 q 201 167 201 178 q 273 64 201 64 q 332 85 301 64 q 387 127 363 106 q 423 148 411 148 q 441 140 434 148 q 449 122 449 132 q 439 99 449 114 q 245 -26 330 -26 q 154 14 195 -26 q 106 142 113 54 q 104 187 104 157 q 107 352 104 221 q 110 495 110 483 q 100 507 110 507 l 56 507 z "},"u":{"ha":701,"x_min":9,"x_max":677,"o":"m 499 46 q 488 39 498 46 q 460 21 477 31 q 422 1 444 11 q 369 -17 400 -9 q 305 -24 338 -24 q 163 28 220 -24 q 94 176 106 81 q 90 262 90 217 q 90 382 90 288 q 91 484 91 476 q 53 524 91 510 q 32 530 46 526 q 14 538 18 534 q 9 553 9 543 l 9 557 q 24 576 9 575 q 170 585 163 585 q 183 568 183 585 l 183 283 q 209 140 183 193 q 267 75 228 103 q 355 47 305 47 q 473 98 423 47 q 481 106 476 102 q 487 113 486 111 q 491 118 488 115 q 494 123 494 121 q 496 127 495 125 q 498 132 498 130 q 498 138 498 134 l 498 480 q 471 518 498 510 q 406 530 464 521 q 385 553 385 534 q 404 576 385 574 q 485 579 449 578 q 535 581 521 581 q 559 582 549 582 q 575 582 570 582 q 595 555 595 582 l 595 119 q 596 113 595 115 q 599 109 597 111 q 604 106 601 107 q 612 102 606 104 q 624 96 617 99 q 642 88 631 94 q 665 77 652 83 q 677 61 677 72 q 671 41 677 46 q 652 33 665 35 q 608 20 640 31 q 537 -14 575 8 q 522 -19 529 -19 q 503 8 503 -19 l 503 41 q 499 46 503 46 z "},"v":{"ha":680,"x_min":3,"x_max":674,"o":"m 414 551 l 414 557 q 430 576 414 576 q 447 576 433 576 q 486 574 461 575 q 541 572 511 572 q 596 574 571 572 q 635 576 621 575 q 652 576 650 576 q 674 551 674 576 q 665 529 674 534 q 642 524 655 524 q 616 522 629 525 q 597 509 602 519 q 589 480 594 505 q 509 240 556 361 q 431 54 463 119 q 388 -22 399 -11 q 361 -35 377 -35 q 315 8 338 -35 q 179 265 237 145 q 97 441 121 385 q 68 505 73 496 q 47 520 60 515 q 25 525 34 525 q 9 532 16 525 q 3 559 3 540 q 19 576 3 576 q 40 576 23 576 q 87 574 57 575 q 152 572 117 572 q 217 574 187 572 q 264 576 247 575 q 285 576 281 576 q 304 548 304 576 q 298 530 304 536 q 283 524 292 524 q 258 523 275 524 q 227 519 240 522 q 198 495 198 517 q 218 430 198 484 q 278 287 237 376 q 363 121 319 198 q 377 110 374 110 q 384 117 384 110 q 464 292 431 199 q 507 433 496 384 q 517 499 517 481 q 516 507 517 503 q 513 513 515 510 q 507 517 510 515 q 500 519 505 518 q 491 522 495 521 q 479 523 487 522 q 467 524 472 524 q 452 526 461 525 q 435 526 442 526 q 414 551 414 530 z "},"w":{"ha":1044,"x_min":8,"x_max":1042,"o":"m 1021 576 q 1042 553 1042 576 q 1038 536 1042 543 q 1029 527 1035 529 q 1019 524 1024 525 q 1007 522 1015 522 q 998 522 1000 522 q 964 481 974 517 q 905 310 954 445 q 761 0 856 175 q 722 -35 742 -35 q 691 -14 705 -35 q 639 77 677 8 q 616 121 624 104 q 524 292 526 290 q 468 182 519 292 q 363 -22 370 -15 q 339 -35 353 -35 q 298 1 317 -35 q 178 247 232 126 q 97 435 123 368 q 69 503 71 502 q 51 522 62 517 q 31 526 39 526 q 15 531 22 525 q 8 553 8 537 q 34 576 8 576 q 50 576 37 576 q 85 574 62 575 q 136 572 109 572 l 140 572 q 189 574 165 572 q 224 576 212 575 q 240 576 237 576 q 256 553 256 576 q 214 525 256 526 q 171 503 171 524 q 179 476 171 492 q 335 127 245 302 q 349 117 340 117 q 356 119 353 117 q 361 124 359 122 q 362 127 362 126 q 444 271 401 187 q 488 370 487 354 l 488 372 q 465 429 488 378 q 437 488 442 480 q 406 513 425 506 q 371 520 387 521 q 344 524 355 519 q 332 544 332 529 q 354 576 332 576 q 376 576 358 576 q 427 574 395 575 q 498 572 460 572 q 568 574 536 572 q 618 576 600 575 q 640 576 636 576 q 659 556 659 576 l 659 547 q 653 530 659 533 q 612 525 647 528 q 579 522 591 524 q 547 494 547 519 q 602 353 547 471 q 720 137 658 235 q 743 118 731 118 q 760 130 755 118 q 838 297 804 209 q 882 432 871 385 q 894 491 894 479 q 893 501 894 496 q 890 509 892 506 q 885 514 887 511 q 878 518 883 517 q 869 520 873 519 q 858 522 865 521 q 845 523 850 522 q 829 524 840 524 q 810 525 818 525 q 785 553 785 528 q 802 576 785 576 q 818 575 804 576 q 857 572 831 574 q 910 571 882 571 q 965 572 940 571 q 1004 575 990 574 q 1021 576 1019 576 z "},"x":{"ha":614,"x_min":12,"x_max":602,"o":"m 34 576 q 52 576 37 576 q 92 574 66 575 q 148 572 118 572 q 204 574 178 572 q 245 576 231 575 q 263 576 260 576 q 279 557 279 576 l 279 555 q 280 547 279 552 q 281 541 281 543 q 275 529 281 532 q 244 524 269 526 q 231 522 236 522 q 209 503 209 519 q 228 469 209 496 q 290 387 260 427 q 311 365 308 365 q 317 369 313 365 q 415 506 415 499 q 381 522 415 521 q 347 541 347 524 q 365 576 347 576 q 380 576 368 576 q 416 574 393 575 q 464 572 438 572 l 468 572 q 518 574 495 572 q 554 576 541 575 q 570 576 567 576 q 587 556 587 576 q 583 536 587 543 q 572 528 579 530 q 545 524 566 526 q 536 522 538 522 q 495 510 507 518 q 464 479 483 502 q 346 321 346 323 q 537 75 346 317 q 545 65 541 69 q 551 58 548 61 q 557 53 555 54 q 564 50 559 52 q 570 48 568 49 q 579 46 572 47 q 589 45 586 45 q 602 27 602 42 q 582 -5 602 -5 q 565 -4 579 -5 q 525 -1 551 -3 q 469 0 499 0 q 414 -1 439 0 q 374 -4 388 -3 q 357 -5 359 -5 q 340 18 340 -5 q 347 39 340 33 q 376 47 353 45 q 410 53 399 50 q 426 71 426 58 q 420 84 426 73 q 292 244 293 243 q 290 244 290 244 l 288 245 q 240 189 282 245 q 179 106 206 141 q 160 71 160 81 q 198 47 160 50 q 241 37 236 43 q 244 22 244 33 q 227 -5 244 -5 q 211 -4 224 -5 q 176 -1 198 -3 q 126 0 153 0 q 77 -1 100 0 q 41 -5 54 -3 q 26 -7 28 -7 q 12 22 12 -7 q 41 49 12 43 q 76 58 71 54 q 90 73 81 62 q 251 290 250 285 q 245 300 251 294 q 77 507 85 499 q 41 522 64 519 q 15 553 15 525 q 34 576 15 576 z "},"y":{"ha":650,"x_min":5,"x_max":643,"o":"m 127 -309 q 89 -294 104 -309 q 73 -259 73 -279 q 91 -216 73 -235 q 143 -176 109 -198 q 195 -138 178 -155 q 257 -59 225 -111 q 289 20 289 -7 q 134 365 289 56 q 58 507 71 490 q 36 522 50 519 q 14 528 22 524 q 5 553 5 533 q 24 576 5 576 q 41 576 27 576 q 79 574 54 575 q 133 572 104 572 q 186 574 161 572 q 226 576 212 575 q 243 576 240 576 q 262 555 262 576 q 261 546 262 549 q 260 540 260 543 q 258 535 260 537 q 256 531 256 533 q 252 528 255 529 q 247 527 248 528 q 240 526 245 526 q 232 524 235 525 q 222 523 229 524 q 210 522 214 522 q 189 503 189 519 q 205 451 189 496 q 260 324 222 406 q 340 161 297 243 q 350 153 340 153 q 357 156 354 153 q 361 162 359 159 q 363 167 362 165 q 477 494 477 439 q 475 507 477 502 q 471 516 473 513 q 461 521 468 519 q 449 523 454 522 q 431 524 444 524 q 411 525 419 524 q 385 552 385 528 q 411 576 385 576 q 427 576 414 576 q 466 574 441 575 q 519 572 491 572 l 521 572 q 573 574 549 572 q 610 576 597 575 q 627 576 624 576 q 643 548 643 576 q 635 530 643 533 q 589 522 627 526 q 570 513 575 521 q 549 461 566 505 q 479 277 517 369 q 231 -224 345 -52 q 127 -309 175 -309 z "},"z":{"ha":500,"x_min":16,"x_max":486,"o":"m 91 631 l 99 631 q 117 605 115 631 q 137 579 119 579 l 441 579 q 471 559 471 579 q 463 538 471 555 q 245 244 361 400 q 148 106 148 113 q 170 91 148 91 l 370 91 q 382 90 374 91 q 392 90 391 90 q 412 99 407 90 q 423 142 418 109 q 429 174 426 161 q 453 195 435 195 q 486 172 486 195 q 484 161 486 171 q 479 132 481 151 q 475 91 477 114 q 470 37 472 68 q 468 -26 468 5 q 469 -63 468 -46 q 469 -90 469 -80 q 469 -102 469 -99 q 427 -129 469 -129 q 404 -104 404 -129 l 404 -20 q 381 0 404 0 l 58 0 q 16 33 16 0 q 35 73 16 43 l 317 456 q 327 473 327 465 q 298 494 327 494 l 133 494 q 117 486 122 494 q 107 452 113 477 q 103 430 104 438 q 79 408 96 408 q 54 426 54 408 q 56 435 54 427 q 59 455 57 442 q 63 484 61 468 q 66 523 65 500 q 68 568 68 545 l 68 610 q 91 631 68 631 z "},"{":{"ha":349,"x_min":62,"x_max":289,"o":"m 62 355 q 71 362 62 358 q 91 375 79 366 q 115 398 103 384 q 136 439 127 412 q 144 499 144 465 q 125 654 144 552 q 107 814 107 757 q 153 956 107 913 q 255 1000 198 1000 q 289 993 289 1000 q 274 984 289 991 q 238 956 259 977 q 206 903 217 935 q 195 838 195 871 q 214 715 195 802 q 233 571 233 628 q 217 461 233 513 q 185 382 201 410 q 170 353 170 354 q 184 328 170 350 q 214 262 199 305 q 229 167 229 220 q 210 33 229 121 q 190 -98 190 -54 q 199 -163 190 -133 q 222 -213 209 -194 q 248 -245 235 -232 q 270 -264 260 -258 l 279 -271 q 256 -275 279 -275 q 150 -229 198 -275 q 102 -79 102 -182 q 124 71 102 -23 q 146 206 146 164 q 140 256 146 233 q 126 293 134 278 q 107 320 118 308 q 87 338 96 332 q 71 347 79 343 l 64 353 q 62 355 62 354 z "},"|":{"ha":212,"x_min":69,"x_max":142,"o":"m 107 -275 l 102 -275 q 69 -256 69 -275 l 69 979 q 103 997 69 997 l 106 997 q 135 994 127 997 q 142 979 142 990 l 142 -256 q 107 -275 142 -275 z "},"}":{"ha":349,"x_min":64,"x_max":290,"o":"m 245 814 q 227 654 245 757 q 209 499 209 552 q 214 448 209 471 q 228 411 220 425 q 247 387 236 397 q 266 371 258 376 q 282 363 274 366 l 289 359 q 290 357 290 358 q 285 350 290 351 q 208 206 208 309 q 229 71 208 164 q 251 -79 251 -23 q 203 -229 251 -182 q 96 -275 155 -275 q 73 -271 73 -275 l 83 -264 q 105 -245 92 -258 q 131 -213 118 -232 q 153 -163 144 -194 q 163 -98 163 -133 q 143 33 163 -54 q 123 167 123 121 q 138 263 123 220 q 168 328 153 307 q 183 353 183 350 q 178 366 183 355 q 119 571 119 456 q 138 715 119 628 q 157 838 157 802 q 148 901 157 872 q 125 945 138 929 q 97 970 111 960 q 73 986 83 981 q 64 993 64 991 q 98 1000 64 1000 q 200 956 155 1000 q 245 814 245 913 z "},"~":{"ha":625,"x_min":34,"x_max":593,"o":"m 56 240 q 42 251 50 240 q 34 269 34 262 q 47 294 34 271 q 81 347 61 317 q 115 391 102 377 q 208 433 155 433 q 311 393 248 433 q 415 353 374 353 q 479 372 449 353 q 530 414 510 391 q 552 437 551 437 q 560 439 557 439 q 580 431 567 439 q 593 414 593 423 q 583 393 593 410 q 553 353 572 377 q 509 307 533 330 q 451 269 484 285 q 385 254 418 254 q 277 295 335 254 q 184 336 220 336 q 65 247 123 336 q 56 240 62 240 z "},"":{"ha":347,"x_min":0,"x_max":0,"o":""},"":{"ha":450,"x_min":151,"x_max":301,"o":"m 183 -22 q 170 12 170 -22 l 170 45 q 184 317 170 178 q 210 525 198 457 q 231 620 222 593 q 254 642 237 642 q 277 595 277 642 l 277 578 q 279 479 278 528 q 283 389 281 430 q 286 308 285 347 q 290 237 288 269 q 293 177 292 205 q 296 129 294 149 q 299 94 298 109 q 301 71 300 79 l 301 64 q 283 34 301 43 q 183 -22 189 -22 m 273 814 q 262 805 273 814 q 222 795 252 795 q 172 815 193 795 q 151 865 151 836 q 171 915 151 894 q 221 936 191 936 q 272 916 251 936 q 293 865 293 897 q 273 814 293 834 z "},"":{"ha":354,"x_min":16,"x_max":338,"o":"m 205 859 q 224 905 205 886 q 271 924 244 924 q 319 905 300 924 q 338 860 338 887 q 318 812 338 831 q 271 793 298 793 q 224 812 243 793 q 205 859 205 830 m 16 859 q 36 905 16 886 q 83 924 56 924 q 131 905 111 924 q 151 860 151 887 q 131 812 151 831 q 83 793 111 793 q 35 812 54 793 q 16 859 16 830 z "},"":{"ha":1072,"x_min":42,"x_max":1031,"o":"m 238 161 q 301 99 238 161 q 536 38 363 38 q 834 160 708 38 q 960 463 960 282 q 837 759 960 633 q 534 884 713 884 q 235 760 358 884 q 113 461 113 635 q 238 161 113 283 m 42 461 q 185 811 42 665 q 536 958 328 958 q 886 811 742 958 q 1031 461 1031 665 q 888 113 1031 259 q 534 -34 745 -34 q 187 110 332 -34 q 42 461 42 254 m 764 533 q 743 543 749 533 q 738 566 738 552 q 732 600 738 579 q 715 636 727 620 q 536 722 644 722 q 372 650 442 722 q 301 461 301 579 q 374 258 301 340 q 548 175 446 175 q 687 222 623 175 q 776 347 751 269 q 796 361 781 361 q 811 347 811 361 q 791 212 792 232 q 765 186 788 186 l 741 186 q 728 185 731 186 q 716 178 724 184 q 700 168 708 172 q 534 122 623 122 q 304 217 399 122 q 210 445 210 312 q 306 673 210 578 q 538 769 401 769 q 629 758 590 769 q 689 735 669 746 q 713 724 709 724 q 724 740 716 724 q 747 755 732 755 q 764 742 761 755 q 788 557 788 571 q 764 533 788 533 z "},"":{"ha":506,"x_min":31,"x_max":476,"o":"m 256 464 q 273 454 264 464 q 281 438 281 445 q 268 418 281 433 q 146 279 255 403 l 144 277 q 141 270 141 273 q 189 210 141 264 q 274 110 235 156 q 279 99 279 104 q 271 81 279 91 q 255 72 263 72 q 174 138 250 72 q 39 255 100 202 q 31 269 31 260 q 41 283 31 274 q 256 464 254 463 m 453 464 q 469 455 461 464 q 476 438 476 446 q 463 418 476 433 q 342 279 450 403 q 336 270 336 274 q 382 210 336 264 q 468 110 429 156 q 473 99 473 106 q 467 81 473 91 q 452 72 460 72 q 357 149 445 72 q 235 255 288 209 q 227 269 227 260 q 236 283 227 277 q 358 388 289 328 q 453 464 448 464 z "},"":{"ha":972,"x_min":73,"x_max":902,"o":"m 106 321 q 73 351 73 321 l 73 369 q 107 400 73 400 l 890 400 q 902 388 902 400 l 902 84 q 875 57 902 57 l 856 57 q 822 94 822 57 l 822 321 l 106 321 z "},"":{"ha":720,"x_min":69,"x_max":651,"o":"m 336 939 q 427 911 399 939 q 456 848 456 883 q 435 791 456 814 q 397 761 415 768 q 477 650 439 713 q 514 620 494 620 q 525 625 519 620 q 536 631 530 631 q 544 621 544 631 q 531 597 544 612 q 498 582 518 582 q 442 620 468 582 l 350 746 q 339 753 347 753 l 302 753 q 300 749 300 753 l 300 633 l 298 631 q 328 618 298 620 q 358 600 358 616 q 345 585 358 585 l 324 586 q 281 587 304 587 q 249 587 263 587 q 227 585 235 586 q 217 585 218 585 q 203 601 203 585 q 208 612 203 609 q 231 617 212 614 q 236 618 233 618 q 247 632 247 618 l 247 890 q 220 906 247 902 q 209 909 213 907 q 197 920 197 909 q 209 932 197 932 l 225 932 q 285 935 250 932 q 336 939 320 939 m 404 838 q 383 891 404 869 q 326 913 362 913 q 296 905 296 913 l 297 903 l 297 784 q 326 777 297 777 q 404 838 404 777 m 358 517 q 529 588 457 517 q 601 755 601 659 q 530 926 601 854 q 358 998 458 998 q 189 926 260 998 q 118 755 118 854 q 190 588 118 659 q 358 517 262 517 m 358 465 q 154 551 239 465 q 69 755 69 636 q 153 963 69 878 q 358 1048 237 1048 q 566 963 480 1048 q 651 755 651 878 q 566 551 651 636 q 358 465 480 465 z "},"":{"ha":294,"x_min":16,"x_max":278,"o":"m 148 959 q 240 918 202 959 q 278 823 278 878 q 240 728 278 768 q 148 689 202 689 q 56 728 95 689 q 16 823 16 768 q 56 919 16 879 q 148 959 95 959 m 203 882 q 192 895 203 882 q 148 907 180 907 q 94 883 115 907 q 72 825 72 859 q 94 766 72 789 q 149 742 117 742 q 204 766 183 742 q 225 823 225 791 q 203 882 225 857 z "},"":{"ha":972,"x_min":73,"x_max":902,"o":"m 106 389 q 73 419 73 389 l 73 439 q 107 469 73 469 l 448 469 l 448 738 q 475 760 448 760 l 495 760 q 520 753 514 760 q 526 731 526 746 l 526 469 l 873 469 q 902 442 902 469 l 902 422 q 892 395 902 400 q 864 389 882 389 l 526 389 l 526 123 q 498 99 526 99 l 477 99 q 454 105 460 99 q 448 125 448 111 l 448 389 l 106 389 m 106 -16 q 73 14 73 -16 l 73 33 q 107 62 73 62 l 873 62 q 902 37 902 62 l 902 16 q 892 -11 902 -5 q 864 -16 882 -16 l 106 -16 z "},"":{"ha":315,"x_min":20,"x_max":294,"o":"m 243 974 q 279 960 264 974 q 294 922 294 945 q 262 860 294 895 q 68 665 80 674 q 47 658 58 658 q 28 667 35 658 q 20 686 20 675 q 83 792 20 700 q 167 916 130 861 q 243 974 205 974 z "},"":{"ha":1042,"x_min":37,"x_max":1005,"o":"m 617 438 q 625 576 617 509 q 643 688 632 643 q 665 768 654 734 q 683 823 675 803 q 690 844 690 842 q 673 882 690 857 q 647 907 656 907 q 640 902 646 907 q 543 449 543 709 q 556 275 543 368 q 585 127 570 183 q 609 72 601 72 q 629 91 614 72 q 650 126 643 110 q 617 438 617 309 m 610 924 q 589 937 610 932 q 551 943 568 943 q 408 867 469 943 q 313 694 347 792 q 275 446 275 579 l 275 445 q 338 144 275 263 q 499 24 400 24 q 547 34 522 24 q 572 54 572 43 q 566 75 572 57 q 549 126 559 94 q 530 201 540 159 q 514 307 521 244 q 507 435 507 369 q 518 605 507 524 q 544 741 529 686 q 574 835 559 795 q 600 898 589 875 q 610 924 610 921 m 899 879 q 915 909 899 892 q 930 936 930 925 q 921 956 930 947 q 891 964 911 964 q 809 930 848 964 q 754 859 770 895 q 669 446 669 685 l 669 441 q 709 106 670 256 q 798 -123 747 -45 q 878 -210 841 -189 q 905 -216 884 -214 q 938 -223 925 -217 q 951 -245 951 -229 q 935 -273 951 -262 q 899 -283 920 -283 l 892 -283 q 812 -243 854 -283 q 734 -125 777 -209 q 662 58 689 -39 q 648 45 661 57 q 631 31 635 34 q 615 20 628 28 q 594 7 602 11 q 570 -3 586 4 q 539 -12 555 -9 q 502 -18 524 -15 q 456 -23 480 -22 q 441 -24 450 -23 q 427 -24 431 -24 q 146 101 255 -24 q 37 410 37 227 q 83 641 37 532 q 201 825 129 750 q 363 943 274 899 q 541 986 453 986 q 608 979 576 986 q 661 960 640 971 q 696 938 681 949 q 720 919 711 926 q 730 911 728 911 q 741 921 734 911 q 768 950 749 930 q 817 987 788 970 q 913 1019 869 1019 q 981 993 958 1019 q 1005 935 1005 967 q 981 875 1005 899 q 930 850 956 850 q 909 859 918 850 q 899 879 899 867 z "},"":{"ha":315,"x_min":75,"x_max":240,"o":"m 99 419 q 111 431 99 419 q 157 442 123 442 q 216 418 191 442 q 240 359 240 393 q 217 303 240 327 q 159 279 194 279 q 100 302 125 279 q 75 361 75 326 q 99 419 75 396 z "},"":{"ha":275,"x_min":26,"x_max":254,"o":"m 140 -277 q 73 -270 109 -277 q 31 -258 37 -263 q 26 -248 26 -252 q 28 -239 26 -245 q 35 -224 30 -232 q 46 -216 39 -216 l 52 -217 q 64 -220 57 -218 q 81 -222 72 -221 q 100 -225 90 -224 q 117 -227 110 -227 q 155 -214 141 -227 q 170 -180 170 -201 q 142 -133 170 -153 q 71 -110 114 -113 q 64 -106 64 -110 q 71 -85 64 -104 q 91 -37 79 -66 q 109 7 103 -8 l 152 7 q 143 -20 149 -3 q 133 -49 137 -37 l 129 -61 q 134 -65 129 -65 l 137 -65 q 221 -93 189 -65 q 254 -171 254 -121 q 228 -245 254 -214 q 140 -277 202 -277 z "},"":{"ha":506,"x_min":31,"x_max":475,"o":"m 250 464 q 317 411 255 464 q 467 283 396 343 q 475 269 475 277 q 467 255 475 259 q 250 72 256 73 q 235 81 243 72 q 228 98 228 90 q 266 146 228 103 q 361 256 316 203 q 365 269 365 263 q 361 279 365 274 q 225 438 227 434 q 233 456 225 448 q 250 464 241 464 m 56 464 q 270 283 61 464 q 281 269 281 277 q 273 255 281 260 q 56 72 62 73 q 41 80 47 72 q 34 98 34 88 q 106 189 34 104 q 164 256 141 229 q 171 270 171 263 q 167 279 171 274 l 37 423 q 31 438 31 431 q 39 456 31 448 q 56 464 47 464 z "},"":{"ha":528,"x_min":20,"x_max":468,"o":"m 327 817 q 315 806 327 817 q 269 795 302 795 q 210 819 235 795 q 184 876 184 842 q 209 934 184 909 q 269 959 233 959 q 327 935 302 959 q 351 875 351 910 q 327 817 351 840 m 267 -22 q 83 43 146 -22 q 20 182 20 109 q 44 271 20 229 q 102 345 68 312 q 170 410 136 377 q 227 488 203 442 q 251 587 251 534 q 250 604 251 594 q 250 618 250 614 q 261 656 250 644 q 286 669 273 669 q 324 591 324 669 q 295 472 324 530 q 231 375 266 414 q 168 282 197 336 q 138 175 138 228 q 174 73 138 115 q 259 31 209 31 q 311 47 289 31 q 342 82 332 62 q 370 117 353 102 q 410 133 387 133 q 452 115 435 133 q 468 72 468 98 q 380 -9 468 9 q 267 -22 326 -22 z "},"":{"ha":1139,"x_min":12,"x_max":1135,"o":"m 400 1198 q 416 1234 400 1221 q 454 1248 431 1248 q 528 1215 486 1248 q 739 1057 732 1066 q 745 1039 745 1046 q 736 1020 745 1027 q 718 1013 728 1013 l 716 1013 q 457 1133 707 1013 l 450 1135 q 442 1139 445 1138 q 433 1145 439 1141 q 423 1152 427 1149 q 414 1160 419 1156 q 407 1171 410 1165 q 402 1183 404 1176 q 400 1198 400 1190 m 190 0 q 144 -1 167 0 q 103 -3 121 -1 q 72 -5 85 -4 q 50 -7 58 -7 q 41 -8 42 -8 q 12 20 12 -8 q 13 32 12 27 q 16 41 14 37 q 19 47 18 45 q 25 52 20 50 q 31 55 30 54 q 40 57 33 56 q 50 59 47 58 q 62 61 52 60 q 75 62 72 62 q 123 79 107 66 q 155 129 140 92 q 366 574 252 347 q 574 963 567 954 q 582 970 576 966 q 616 981 597 981 q 674 928 652 981 l 873 467 q 1028 95 1025 99 q 1068 66 1043 73 q 1112 57 1093 60 q 1133 41 1130 54 q 1135 22 1135 30 q 1107 -8 1135 -8 l 1084 -5 q 1022 -2 1061 -4 q 947 0 983 0 q 865 -2 902 0 q 808 -6 829 -4 q 783 -8 787 -8 q 754 15 754 -8 q 755 27 754 22 q 758 37 755 33 q 760 45 760 42 q 766 50 761 47 q 774 54 772 53 q 785 56 777 54 q 798 58 793 57 q 815 60 803 58 q 836 62 827 61 q 864 90 864 68 q 831 214 864 110 q 760 403 798 317 q 735 416 754 416 l 408 416 q 377 400 387 416 q 292 218 330 312 q 255 100 255 123 q 271 68 255 76 q 326 57 286 61 q 343 56 338 57 q 373 22 373 53 q 343 -8 373 -8 q 319 -6 339 -8 q 265 -2 300 -4 q 190 0 231 0 m 707 488 q 719 499 719 488 q 665 635 719 510 q 597 785 612 760 q 582 795 591 795 q 556 770 570 795 q 414 495 414 502 q 422 488 414 488 l 707 488 z "},"":{"ha":1139,"x_min":12,"x_max":1135,"o":"m 787 1246 q 826 1232 810 1246 q 842 1196 842 1218 q 841 1185 842 1191 q 838 1175 840 1179 q 833 1166 837 1171 q 827 1158 830 1161 q 821 1152 825 1156 q 814 1147 817 1149 q 806 1142 811 1145 q 798 1138 800 1139 q 791 1134 796 1137 q 785 1131 787 1131 q 526 1012 534 1012 q 507 1019 515 1012 q 498 1039 498 1027 q 525 1076 498 1058 l 716 1214 q 787 1246 758 1246 m 190 0 q 144 -1 167 0 q 103 -3 121 -1 q 72 -5 85 -4 q 50 -7 58 -7 q 41 -8 42 -8 q 12 20 12 -8 q 13 32 12 27 q 16 41 14 37 q 19 47 18 45 q 25 52 20 50 q 31 55 30 54 q 40 57 33 56 q 50 59 47 58 q 62 61 52 60 q 75 62 72 62 q 123 79 107 66 q 155 129 140 92 q 366 574 252 347 q 574 963 567 954 q 582 970 576 966 q 616 981 597 981 q 674 928 652 981 l 873 467 q 1028 95 1025 99 q 1068 66 1043 73 q 1112 57 1093 60 q 1133 41 1130 54 q 1135 22 1135 30 q 1107 -8 1135 -8 l 1084 -5 q 1022 -2 1061 -4 q 947 0 983 0 q 865 -2 902 0 q 808 -6 829 -4 q 783 -8 787 -8 q 754 15 754 -8 q 755 27 754 22 q 758 37 755 33 q 760 45 760 42 q 766 50 761 47 q 774 54 772 53 q 785 56 777 54 q 798 58 793 57 q 815 60 803 58 q 836 62 827 61 q 864 90 864 68 q 831 214 864 110 q 760 403 798 317 q 735 416 754 416 l 408 416 q 377 400 387 416 q 292 218 330 312 q 255 100 255 123 q 271 68 255 76 q 326 57 286 61 q 343 56 338 57 q 373 22 373 53 q 343 -8 373 -8 q 319 -6 339 -8 q 265 -2 300 -4 q 190 0 231 0 m 707 488 q 719 499 719 488 q 665 635 719 510 q 597 785 612 760 q 582 795 591 795 q 556 770 570 795 q 414 495 414 502 q 422 488 414 488 l 707 488 z "},"":{"ha":1139,"x_min":12,"x_max":1135,"o":"m 464 1012 q 448 1019 453 1012 q 442 1031 442 1025 q 492 1103 442 1040 q 562 1188 532 1152 q 614 1221 586 1221 q 650 1202 632 1221 q 779 1039 777 1044 q 780 1032 780 1036 q 774 1019 780 1025 q 758 1012 769 1012 q 722 1031 741 1012 q 699 1050 711 1040 q 679 1067 686 1061 q 663 1080 671 1073 q 650 1090 655 1086 q 640 1099 646 1095 q 631 1105 635 1103 q 625 1108 628 1107 q 618 1110 621 1109 q 612 1111 614 1111 q 536 1061 593 1111 q 464 1012 480 1012 m 190 0 q 144 -1 167 0 q 103 -3 121 -1 q 72 -5 85 -4 q 50 -7 58 -7 q 41 -8 42 -8 q 12 20 12 -8 q 13 32 12 27 q 16 41 14 37 q 19 47 18 45 q 25 52 20 50 q 31 55 30 54 q 40 57 33 56 q 50 59 47 58 q 62 61 52 60 q 75 62 72 62 q 123 79 107 66 q 155 129 140 92 q 366 574 252 347 q 574 963 567 954 q 582 970 576 966 q 616 981 597 981 q 674 928 652 981 l 873 467 q 1028 95 1025 99 q 1068 66 1043 73 q 1112 57 1093 60 q 1133 41 1130 54 q 1135 22 1135 30 q 1107 -8 1135 -8 l 1084 -5 q 1022 -2 1061 -4 q 947 0 983 0 q 865 -2 902 0 q 808 -6 829 -4 q 783 -8 787 -8 q 754 15 754 -8 q 755 27 754 22 q 758 37 755 33 q 760 45 760 42 q 766 50 761 47 q 774 54 772 53 q 785 56 777 54 q 798 58 793 57 q 815 60 803 58 q 836 62 827 61 q 864 90 864 68 q 831 214 864 110 q 760 403 798 317 q 735 416 754 416 l 408 416 q 377 400 387 416 q 292 218 330 312 q 255 100 255 123 q 271 68 255 76 q 326 57 286 61 q 343 56 338 57 q 373 22 373 53 q 343 -8 373 -8 q 319 -6 339 -8 q 265 -2 300 -4 q 190 0 231 0 m 707 488 q 719 499 719 488 q 665 635 719 510 q 597 785 612 760 q 582 795 591 795 q 556 770 570 795 q 414 495 414 502 q 422 488 414 488 l 707 488 z "},"":{"ha":1139,"x_min":12,"x_max":1135,"o":"m 682 1109 q 734 1125 711 1109 q 771 1157 757 1141 q 791 1173 785 1173 q 807 1168 796 1173 q 818 1156 818 1162 q 791 1115 818 1147 q 739 1065 764 1082 q 659 1035 701 1035 q 579 1066 623 1035 q 510 1097 536 1097 q 462 1079 483 1097 q 429 1042 441 1061 q 414 1024 416 1024 q 402 1032 410 1024 q 395 1046 395 1040 q 419 1086 395 1050 q 457 1137 444 1123 q 528 1169 490 1169 q 605 1139 559 1169 q 682 1109 651 1109 m 190 0 q 144 -1 167 0 q 103 -3 121 -1 q 72 -5 85 -4 q 50 -7 58 -7 q 41 -8 42 -8 q 12 20 12 -8 q 13 32 12 27 q 16 41 14 37 q 19 47 18 45 q 25 52 20 50 q 31 55 30 54 q 40 57 33 56 q 50 59 47 58 q 62 61 52 60 q 75 62 72 62 q 123 79 107 66 q 155 129 140 92 q 366 574 252 347 q 574 963 567 954 q 582 970 576 966 q 616 981 597 981 q 674 928 652 981 l 873 467 q 1028 95 1025 99 q 1068 66 1043 73 q 1112 57 1093 60 q 1133 41 1130 54 q 1135 22 1135 30 q 1107 -8 1135 -8 l 1084 -5 q 1022 -2 1061 -4 q 947 0 983 0 q 865 -2 902 0 q 808 -6 829 -4 q 783 -8 787 -8 q 754 15 754 -8 q 755 27 754 22 q 758 37 755 33 q 760 45 760 42 q 766 50 761 47 q 774 54 772 53 q 785 56 777 54 q 798 58 793 57 q 815 60 803 58 q 836 62 827 61 q 864 90 864 68 q 831 214 864 110 q 760 403 798 317 q 735 416 754 416 l 408 416 q 377 400 387 416 q 292 218 330 312 q 255 100 255 123 q 271 68 255 76 q 326 57 286 61 q 343 56 338 57 q 373 22 373 53 q 343 -8 373 -8 q 319 -6 339 -8 q 265 -2 300 -4 q 190 0 231 0 m 707 488 q 719 499 719 488 q 665 635 719 510 q 597 785 612 760 q 582 795 591 795 q 556 770 570 795 q 414 495 414 502 q 422 488 414 488 l 707 488 z "},"":{"ha":1139,"x_min":12,"x_max":1135,"o":"m 640 1077 q 660 1123 640 1104 q 707 1142 680 1142 q 754 1124 735 1142 q 773 1078 773 1105 q 753 1031 773 1050 q 707 1012 734 1012 q 659 1030 678 1012 q 640 1077 640 1048 m 452 1077 q 471 1123 452 1104 q 518 1142 491 1142 q 566 1124 547 1142 q 586 1078 586 1105 q 566 1031 586 1050 q 518 1012 547 1012 q 471 1030 490 1012 q 452 1077 452 1048 m 190 0 q 144 -1 167 0 q 103 -3 121 -1 q 72 -5 85 -4 q 50 -7 58 -7 q 41 -8 42 -8 q 12 20 12 -8 q 13 32 12 27 q 16 41 14 37 q 19 47 18 45 q 25 52 20 50 q 31 55 30 54 q 40 57 33 56 q 50 59 47 58 q 62 61 52 60 q 75 62 72 62 q 123 79 107 66 q 155 129 140 92 q 366 574 252 347 q 574 963 567 954 q 582 970 576 966 q 616 981 597 981 q 674 928 652 981 l 873 467 q 1028 95 1025 99 q 1068 66 1043 73 q 1112 57 1093 60 q 1133 41 1130 54 q 1135 22 1135 30 q 1107 -8 1135 -8 l 1084 -5 q 1022 -2 1061 -4 q 947 0 983 0 q 865 -2 902 0 q 808 -6 829 -4 q 783 -8 787 -8 q 754 15 754 -8 q 755 27 754 22 q 758 37 755 33 q 760 45 760 42 q 766 50 761 47 q 774 54 772 53 q 785 56 777 54 q 798 58 793 57 q 815 60 803 58 q 836 62 827 61 q 864 90 864 68 q 831 214 864 110 q 760 403 798 317 q 735 416 754 416 l 408 416 q 377 400 387 416 q 292 218 330 312 q 255 100 255 123 q 271 68 255 76 q 326 57 286 61 q 343 56 338 57 q 373 22 373 53 q 343 -8 373 -8 q 319 -6 339 -8 q 265 -2 300 -4 q 190 0 231 0 m 707 488 q 719 499 719 488 q 665 635 719 510 q 597 785 612 760 q 582 795 591 795 q 556 770 570 795 q 414 495 414 502 q 422 488 414 488 l 707 488 z "},"":{"ha":1139,"x_min":12,"x_max":1135,"o":"m 614 1236 q 698 1199 663 1236 q 732 1112 732 1162 q 698 1026 732 1062 q 614 990 663 990 q 532 1026 567 990 q 496 1112 496 1062 q 532 1199 496 1162 q 614 1236 567 1236 m 614 1183 q 570 1162 589 1183 q 552 1115 552 1142 q 570 1065 552 1086 q 616 1044 589 1044 q 661 1065 643 1044 q 678 1112 678 1085 q 660 1161 678 1139 q 614 1183 642 1183 m 190 0 q 144 -1 167 0 q 103 -3 121 -1 q 72 -5 85 -4 q 50 -7 58 -7 q 41 -8 42 -8 q 12 20 12 -8 q 13 32 12 27 q 16 41 14 37 q 19 47 18 45 q 25 52 20 50 q 31 55 30 54 q 40 57 33 56 q 50 59 47 58 q 62 61 52 60 q 75 62 72 62 q 123 79 107 66 q 155 129 140 92 q 366 574 252 347 q 574 963 567 954 q 582 970 576 966 q 616 981 597 981 q 674 928 652 981 l 873 467 q 1028 95 1025 99 q 1068 66 1043 73 q 1112 57 1093 60 q 1133 41 1130 54 q 1135 22 1135 30 q 1107 -8 1135 -8 l 1084 -5 q 1022 -2 1061 -4 q 947 0 983 0 q 865 -2 902 0 q 808 -6 829 -4 q 783 -8 787 -8 q 754 15 754 -8 q 755 27 754 22 q 758 37 755 33 q 760 45 760 42 q 766 50 761 47 q 774 54 772 53 q 785 56 777 54 q 798 58 793 57 q 815 60 803 58 q 836 62 827 61 q 864 90 864 68 q 831 214 864 110 q 760 403 798 317 q 735 416 754 416 l 408 416 q 377 400 387 416 q 292 218 330 312 q 255 100 255 123 q 271 68 255 76 q 326 57 286 61 q 343 56 338 57 q 373 22 373 53 q 343 -8 373 -8 q 319 -6 339 -8 q 265 -2 300 -4 q 190 0 231 0 m 707 488 q 719 499 719 488 q 665 635 719 510 q 597 785 612 760 q 582 795 591 795 q 556 770 570 795 q 414 495 414 502 q 422 488 414 488 l 707 488 z "},"":{"ha":1402,"x_min":-5,"x_max":1350,"o":"m 718 488 l 718 876 q 689 869 696 876 q 547 665 648 827 q 446 488 446 502 l 718 488 m 427 937 q 433 960 427 947 q 448 974 438 974 q 469 972 452 974 q 532 968 487 971 q 637 963 576 966 q 974 962 673 962 q 1267 960 1260 962 q 1283 937 1280 956 q 1297 866 1287 910 q 1316 789 1308 822 q 1324 755 1324 757 q 1313 737 1324 745 q 1289 730 1302 730 q 1263 743 1271 730 q 1231 814 1259 751 q 1198 886 1203 878 l 887 886 q 857 876 867 886 q 846 858 848 867 q 845 827 845 849 l 845 624 q 872 593 845 593 l 1085 593 q 1129 606 1120 593 q 1138 656 1138 618 l 1138 682 q 1175 712 1138 712 q 1213 673 1213 712 l 1213 416 q 1175 377 1213 377 q 1149 382 1158 377 q 1139 393 1141 388 q 1138 407 1138 399 l 1138 461 q 1132 503 1138 494 q 1101 513 1126 513 l 910 513 q 876 510 888 513 q 853 494 864 507 q 842 457 842 481 l 842 151 q 844 115 842 125 q 854 96 845 104 q 886 85 864 88 q 1017 76 947 76 q 1143 85 1086 76 q 1215 106 1200 95 q 1264 181 1227 115 q 1312 254 1301 247 q 1325 258 1318 258 q 1350 227 1350 258 q 1308 27 1350 210 q 1293 4 1303 8 q 1259 0 1283 0 l 602 0 q 579 20 579 0 q 597 50 579 41 q 639 58 616 58 q 686 65 662 58 q 718 91 709 72 l 718 416 l 472 416 q 410 414 419 416 q 393 401 400 412 q 294 219 339 316 q 250 100 250 122 q 252 86 250 92 q 259 76 254 80 q 269 69 264 72 q 284 64 274 66 q 302 61 294 62 q 325 58 309 60 q 350 54 340 56 q 374 22 374 52 q 351 -8 374 -8 q 340 -7 350 -8 q 315 -5 331 -7 q 280 -3 300 -4 q 234 -1 260 -1 q 183 0 208 0 q 132 -1 157 0 q 86 -3 106 -1 q 52 -5 66 -4 q 27 -7 37 -7 q 16 -8 18 -8 q -5 20 -5 -8 q 9 50 -5 45 q 35 55 15 52 q 75 64 56 58 q 107 81 94 71 q 140 128 121 92 q 216 268 159 164 q 351 500 273 372 q 448 653 403 585 q 517 756 492 722 q 559 816 541 791 q 584 851 578 841 q 590 868 590 861 q 500 901 590 888 q 456 907 472 905 q 427 937 427 911 z "},"":{"ha":971,"x_min":26,"x_max":956,"o":"m 505 -33 q 163 122 301 -23 q 26 465 26 267 q 68 662 26 567 q 180 825 110 757 q 534 967 330 967 l 536 967 q 673 949 610 967 q 771 911 736 930 q 808 892 806 892 q 827 916 819 892 q 849 943 836 939 q 857 943 852 943 q 864 944 863 944 q 882 928 879 944 l 891 857 q 910 712 901 785 q 920 633 920 639 q 891 610 920 610 q 861 619 865 610 q 852 675 857 628 q 815 766 845 727 q 694 865 768 826 q 532 903 621 903 q 271 789 381 903 q 160 491 160 675 q 274 169 160 300 q 551 38 388 38 q 774 113 673 38 q 913 311 875 187 q 933 330 920 330 q 956 313 956 330 q 921 88 925 98 q 890 65 914 65 l 888 65 l 850 65 q 827 62 834 65 q 806 50 819 60 q 785 37 793 41 q 551 -34 675 -27 q 545 -47 548 -42 q 543 -54 543 -52 l 541 -56 q 547 -60 541 -60 l 552 -60 q 636 -87 604 -60 q 669 -165 669 -115 l 669 -167 q 642 -240 669 -209 q 555 -271 616 -271 q 486 -264 524 -271 q 445 -252 449 -256 q 439 -243 439 -248 q 441 -233 439 -240 q 447 -218 442 -227 q 458 -210 452 -210 l 464 -212 q 477 -214 469 -213 q 494 -217 486 -216 q 513 -220 503 -218 q 530 -221 524 -221 q 568 -208 553 -221 q 583 -176 583 -195 q 555 -127 583 -148 q 484 -104 528 -107 q 477 -100 477 -104 q 505 -33 477 -99 z "},"":{"ha":802,"x_min":12,"x_max":780,"o":"m 222 1198 q 238 1234 222 1221 q 277 1248 254 1248 q 350 1215 308 1248 q 562 1057 555 1066 q 567 1039 567 1046 q 559 1020 567 1027 q 540 1013 551 1013 l 538 1013 q 279 1133 529 1013 l 273 1135 q 264 1139 267 1138 q 256 1145 262 1141 q 245 1152 250 1149 q 237 1160 241 1156 q 229 1171 232 1165 q 224 1183 227 1176 q 222 1198 222 1190 m 605 712 q 644 673 644 712 l 644 416 q 605 377 644 377 q 568 407 568 377 l 568 481 q 532 513 568 513 l 340 513 q 316 511 326 513 q 295 505 307 510 q 278 488 283 500 q 273 457 273 476 l 273 138 q 275 115 273 123 q 287 97 277 106 q 316 85 297 88 q 446 76 377 76 q 560 84 492 76 q 646 106 628 92 q 694 181 658 115 q 742 254 731 247 q 755 258 750 258 q 772 250 765 258 q 780 227 780 241 l 780 225 q 738 27 780 213 q 726 5 735 11 q 696 0 718 0 l 218 0 q 102 -8 156 0 q 46 -16 49 -16 q 21 -1 30 -16 q 12 24 12 15 q 23 46 12 39 q 77 69 34 53 q 118 84 102 79 q 149 138 149 95 l 149 863 q 142 882 149 878 q 111 890 136 886 q 81 892 99 891 q 55 895 64 894 q 37 900 46 897 q 23 910 27 903 q 19 929 19 917 q 46 960 19 960 l 685 960 q 715 937 708 960 q 730 865 720 911 q 748 787 741 819 q 755 753 755 755 q 727 732 755 732 q 688 757 705 732 q 618 873 627 864 q 579 886 606 886 l 317 886 q 283 872 290 886 q 275 833 275 859 l 275 624 q 302 593 275 593 l 515 593 q 540 595 530 593 q 559 608 549 597 q 568 639 568 618 l 568 682 q 605 712 568 712 z "},"":{"ha":802,"x_min":12,"x_max":780,"o":"m 513 1246 q 552 1232 536 1246 q 568 1196 568 1218 q 567 1185 568 1191 q 564 1175 566 1179 q 559 1166 563 1171 q 553 1158 556 1161 q 547 1152 551 1156 q 540 1147 543 1149 q 532 1142 537 1145 q 524 1138 526 1139 q 517 1134 522 1137 q 511 1131 513 1131 q 252 1012 260 1012 q 233 1019 241 1012 q 224 1039 224 1027 q 251 1076 224 1058 l 442 1214 q 513 1246 484 1246 m 605 712 q 644 673 644 712 l 644 416 q 605 377 644 377 q 568 407 568 377 l 568 481 q 532 513 568 513 l 340 513 q 316 511 326 513 q 295 505 307 510 q 278 488 283 500 q 273 457 273 476 l 273 138 q 275 115 273 123 q 287 97 277 106 q 316 85 297 88 q 446 76 377 76 q 560 84 492 76 q 646 106 628 92 q 694 181 658 115 q 742 254 731 247 q 755 258 750 258 q 772 250 765 258 q 780 227 780 241 l 780 225 q 738 27 780 213 q 726 5 735 11 q 696 0 718 0 l 218 0 q 102 -8 156 0 q 46 -16 49 -16 q 21 -1 30 -16 q 12 24 12 15 q 23 46 12 39 q 77 69 34 53 q 118 84 102 79 q 149 138 149 95 l 149 863 q 142 882 149 878 q 111 890 136 886 q 81 892 99 891 q 55 895 64 894 q 37 900 46 897 q 23 910 27 903 q 19 929 19 917 q 46 960 19 960 l 685 960 q 715 937 708 960 q 730 865 720 911 q 748 787 741 819 q 755 753 755 755 q 727 732 755 732 q 688 757 705 732 q 618 873 627 864 q 579 886 606 886 l 317 886 q 283 872 290 886 q 275 833 275 859 l 275 624 q 302 593 275 593 l 515 593 q 540 595 530 593 q 559 608 549 597 q 568 639 568 618 l 568 682 q 605 712 568 712 z "},"":{"ha":802,"x_min":12,"x_max":780,"o":"m 250 1012 q 233 1019 239 1012 q 228 1031 228 1025 q 278 1103 228 1040 q 347 1188 317 1152 q 400 1221 372 1221 q 435 1202 418 1221 q 564 1039 563 1044 q 566 1032 566 1036 q 560 1019 566 1025 q 544 1012 555 1012 q 507 1031 526 1012 q 484 1050 496 1040 q 465 1067 472 1061 q 449 1080 457 1073 q 436 1090 441 1086 q 426 1099 431 1095 q 417 1105 420 1103 q 410 1108 414 1107 q 404 1110 407 1109 q 397 1111 400 1111 q 322 1061 378 1111 q 250 1012 266 1012 m 605 712 q 644 673 644 712 l 644 416 q 605 377 644 377 q 568 407 568 377 l 568 481 q 532 513 568 513 l 340 513 q 316 511 326 513 q 295 505 307 510 q 278 488 283 500 q 273 457 273 476 l 273 138 q 275 115 273 123 q 287 97 277 106 q 316 85 297 88 q 446 76 377 76 q 560 84 492 76 q 646 106 628 92 q 694 181 658 115 q 742 254 731 247 q 755 258 750 258 q 772 250 765 258 q 780 227 780 241 l 780 225 q 738 27 780 213 q 726 5 735 11 q 696 0 718 0 l 218 0 q 102 -8 156 0 q 46 -16 49 -16 q 21 -1 30 -16 q 12 24 12 15 q 23 46 12 39 q 77 69 34 53 q 118 84 102 79 q 149 138 149 95 l 149 863 q 142 882 149 878 q 111 890 136 886 q 81 892 99 891 q 55 895 64 894 q 37 900 46 897 q 23 910 27 903 q 19 929 19 917 q 46 960 19 960 l 685 960 q 715 937 708 960 q 730 865 720 911 q 748 787 741 819 q 755 753 755 755 q 727 732 755 732 q 688 757 705 732 q 618 873 627 864 q 579 886 606 886 l 317 886 q 283 872 290 886 q 275 833 275 859 l 275 624 q 302 593 275 593 l 515 593 q 540 595 530 593 q 559 608 549 597 q 568 639 568 618 l 568 682 q 605 712 568 712 z "},"":{"ha":802,"x_min":12,"x_max":780,"o":"m 425 1077 q 444 1123 425 1104 q 491 1142 464 1142 q 538 1124 519 1142 q 557 1078 557 1105 q 538 1031 557 1050 q 491 1012 518 1012 q 444 1030 463 1012 q 425 1077 425 1048 m 236 1077 q 256 1123 236 1104 q 302 1142 275 1142 q 351 1124 331 1142 q 370 1078 370 1105 q 351 1031 370 1050 q 302 1012 331 1012 q 255 1030 274 1012 q 236 1077 236 1048 m 605 712 q 644 673 644 712 l 644 416 q 605 377 644 377 q 568 407 568 377 l 568 481 q 532 513 568 513 l 340 513 q 316 511 326 513 q 295 505 307 510 q 278 488 283 500 q 273 457 273 476 l 273 138 q 275 115 273 123 q 287 97 277 106 q 316 85 297 88 q 446 76 377 76 q 560 84 492 76 q 646 106 628 92 q 694 181 658 115 q 742 254 731 247 q 755 258 750 258 q 772 250 765 258 q 780 227 780 241 l 780 225 q 738 27 780 213 q 726 5 735 11 q 696 0 718 0 l 218 0 q 102 -8 156 0 q 46 -16 49 -16 q 21 -1 30 -16 q 12 24 12 15 q 23 46 12 39 q 77 69 34 53 q 118 84 102 79 q 149 138 149 95 l 149 863 q 142 882 149 878 q 111 890 136 886 q 81 892 99 891 q 55 895 64 894 q 37 900 46 897 q 23 910 27 903 q 19 929 19 917 q 46 960 19 960 l 685 960 q 715 937 708 960 q 730 865 720 911 q 748 787 741 819 q 755 753 755 755 q 727 732 755 732 q 688 757 705 732 q 618 873 627 864 q 579 886 606 886 l 317 886 q 283 872 290 886 q 275 833 275 859 l 275 624 q 302 593 275 593 l 515 593 q 540 595 530 593 q 559 608 549 597 q 568 639 568 618 l 568 682 q 605 712 568 712 z "},"":{"ha":448,"x_min":18,"x_max":425,"o":"m 47 1198 q 63 1234 47 1221 q 102 1248 79 1248 q 175 1215 133 1248 q 387 1057 380 1066 q 392 1039 392 1046 q 384 1020 392 1027 q 365 1013 376 1013 l 363 1013 q 104 1133 354 1013 l 98 1135 q 90 1139 92 1138 q 81 1145 87 1141 q 71 1152 75 1149 q 62 1160 66 1156 q 54 1171 57 1165 q 50 1183 52 1176 q 47 1198 47 1190 m 72 944 l 95 943 q 156 939 118 941 q 232 937 194 937 q 304 939 271 937 q 355 941 336 940 q 377 943 373 943 q 400 917 400 943 q 399 905 400 910 q 398 897 399 901 q 395 890 397 892 q 390 885 392 887 q 382 882 388 883 q 374 879 377 880 q 362 877 370 878 q 349 876 354 876 q 332 874 343 875 q 312 872 320 873 q 290 849 290 871 l 290 99 q 315 64 290 66 q 345 62 328 62 q 370 61 361 61 q 390 60 380 61 q 406 57 400 58 q 416 53 411 56 q 422 45 420 50 q 425 33 425 39 q 397 -8 425 -8 q 387 -7 396 -8 q 360 -5 377 -7 q 323 -3 343 -4 q 275 -1 302 -1 q 221 0 248 0 q 167 -1 194 0 q 119 -3 140 -1 q 81 -5 98 -4 q 55 -7 65 -7 q 43 -8 45 -8 q 19 23 22 -8 q 18 37 18 27 q 29 57 18 53 q 84 64 41 61 q 134 66 114 65 q 164 106 164 68 l 164 827 q 165 839 164 831 q 165 848 165 846 q 155 869 165 865 q 106 875 144 873 q 73 876 85 875 q 42 906 42 879 q 72 944 42 944 z "},"":{"ha":448,"x_min":18,"x_max":425,"o":"m 336 1246 q 376 1232 359 1246 q 392 1196 392 1218 q 391 1185 392 1191 q 388 1175 389 1179 q 383 1166 387 1171 q 377 1158 380 1161 q 370 1152 374 1156 q 363 1147 366 1149 q 355 1142 361 1145 q 348 1138 350 1139 q 341 1134 346 1137 q 335 1131 336 1131 q 76 1012 84 1012 q 56 1019 65 1012 q 47 1039 47 1027 q 75 1076 47 1058 l 266 1214 q 336 1246 308 1246 m 72 944 l 95 943 q 156 939 118 941 q 232 937 194 937 q 304 939 271 937 q 355 941 336 940 q 377 943 373 943 q 400 917 400 943 q 399 905 400 910 q 398 897 399 901 q 395 890 397 892 q 390 885 392 887 q 382 882 388 883 q 374 879 377 880 q 362 877 370 878 q 349 876 354 876 q 332 874 343 875 q 312 872 320 873 q 290 849 290 871 l 290 99 q 315 64 290 66 q 345 62 328 62 q 370 61 361 61 q 390 60 380 61 q 406 57 400 58 q 416 53 411 56 q 422 45 420 50 q 425 33 425 39 q 397 -8 425 -8 q 387 -7 396 -8 q 360 -5 377 -7 q 323 -3 343 -4 q 275 -1 302 -1 q 221 0 248 0 q 167 -1 194 0 q 119 -3 140 -1 q 81 -5 98 -4 q 55 -7 65 -7 q 43 -8 45 -8 q 19 23 22 -8 q 18 37 18 27 q 29 57 18 53 q 84 64 41 61 q 134 66 114 65 q 164 106 164 68 l 164 827 q 165 839 164 831 q 165 848 165 846 q 155 869 165 865 q 106 875 144 873 q 73 876 85 875 q 42 906 42 879 q 72 944 42 944 z "},"":{"ha":448,"x_min":18,"x_max":425,"o":"m 75 1012 q 58 1019 64 1012 q 53 1031 53 1025 q 103 1103 53 1040 q 172 1188 142 1152 q 225 1221 197 1221 q 260 1202 243 1221 q 389 1039 388 1044 q 391 1032 391 1036 q 385 1019 391 1025 q 369 1012 380 1012 q 332 1031 351 1012 q 309 1050 321 1040 q 290 1067 297 1061 q 274 1080 282 1073 q 261 1090 266 1086 q 251 1099 256 1095 q 242 1105 245 1103 q 235 1108 239 1107 q 229 1110 232 1109 q 222 1111 225 1111 q 147 1061 203 1111 q 75 1012 91 1012 m 72 944 l 95 943 q 156 939 118 941 q 232 937 194 937 q 304 939 271 937 q 355 941 336 940 q 377 943 373 943 q 400 917 400 943 q 399 905 400 910 q 398 897 399 901 q 395 890 397 892 q 390 885 392 887 q 382 882 388 883 q 374 879 377 880 q 362 877 370 878 q 349 876 354 876 q 332 874 343 875 q 312 872 320 873 q 290 849 290 871 l 290 99 q 315 64 290 66 q 345 62 328 62 q 370 61 361 61 q 390 60 380 61 q 406 57 400 58 q 416 53 411 56 q 422 45 420 50 q 425 33 425 39 q 397 -8 425 -8 q 387 -7 396 -8 q 360 -5 377 -7 q 323 -3 343 -4 q 275 -1 302 -1 q 221 0 248 0 q 167 -1 194 0 q 119 -3 140 -1 q 81 -5 98 -4 q 55 -7 65 -7 q 43 -8 45 -8 q 19 23 22 -8 q 18 37 18 27 q 29 57 18 53 q 84 64 41 61 q 134 66 114 65 q 164 106 164 68 l 164 827 q 165 839 164 831 q 165 848 165 846 q 155 869 165 865 q 106 875 144 873 q 73 876 85 875 q 42 906 42 879 q 72 944 42 944 z "},"":{"ha":448,"x_min":18,"x_max":425,"o":"m 250 1077 q 269 1123 250 1104 q 316 1142 289 1142 q 363 1124 345 1142 q 382 1078 382 1105 q 363 1031 382 1050 q 316 1012 343 1012 q 269 1030 288 1012 q 250 1077 250 1048 m 61 1077 q 81 1123 61 1104 q 127 1142 100 1142 q 176 1124 156 1142 q 195 1078 195 1105 q 176 1031 195 1050 q 127 1012 156 1012 q 80 1030 99 1012 q 61 1077 61 1048 m 72 944 l 95 943 q 156 939 118 941 q 232 937 194 937 q 304 939 271 937 q 355 941 336 940 q 377 943 373 943 q 400 917 400 943 q 399 905 400 910 q 398 897 399 901 q 395 890 397 892 q 390 885 392 887 q 382 882 388 883 q 374 879 377 880 q 362 877 370 878 q 349 876 354 876 q 332 874 343 875 q 312 872 320 873 q 290 849 290 871 l 290 99 q 315 64 290 66 q 345 62 328 62 q 370 61 361 61 q 390 60 380 61 q 406 57 400 58 q 416 53 411 56 q 422 45 420 50 q 425 33 425 39 q 397 -8 425 -8 q 387 -7 396 -8 q 360 -5 377 -7 q 323 -3 343 -4 q 275 -1 302 -1 q 221 0 248 0 q 167 -1 194 0 q 119 -3 140 -1 q 81 -5 98 -4 q 55 -7 65 -7 q 43 -8 45 -8 q 19 23 22 -8 q 18 37 18 27 q 29 57 18 53 q 84 64 41 61 q 134 66 114 65 q 164 106 164 68 l 164 827 q 165 839 164 831 q 165 848 165 846 q 155 869 165 865 q 106 875 144 873 q 73 876 85 875 q 42 906 42 879 q 72 944 42 944 z "},"":{"ha":1109,"x_min":12,"x_max":1099,"o":"m 632 1096 q 684 1112 661 1096 q 721 1143 707 1127 q 741 1160 735 1160 q 757 1154 746 1160 q 768 1142 768 1149 q 741 1101 768 1134 q 689 1051 713 1069 q 609 1021 651 1021 q 529 1053 572 1021 q 460 1084 486 1084 q 412 1065 433 1084 q 378 1029 391 1047 q 363 1010 366 1010 q 352 1019 359 1010 q 345 1032 345 1027 q 369 1073 345 1036 q 407 1123 393 1109 q 477 1156 439 1156 q 555 1126 509 1156 q 632 1096 601 1096 m 208 753 l 208 758 q 161 819 208 777 q 38 879 107 873 q 12 910 12 879 q 43 945 12 945 l 214 945 q 270 920 248 945 l 487 667 l 614 525 q 880 241 869 248 q 886 239 883 239 q 895 252 895 239 q 897 299 895 269 q 899 355 898 330 q 899 401 899 380 q 886 815 899 589 q 867 867 884 856 q 796 883 849 878 q 765 913 765 887 q 774 935 765 925 q 806 945 784 945 q 825 945 808 945 q 873 943 842 944 q 939 941 903 941 q 1003 943 974 941 q 1049 945 1032 944 q 1069 945 1066 945 q 1099 914 1099 945 q 1096 897 1099 903 q 1085 886 1093 890 q 1072 882 1077 883 q 1054 881 1067 882 q 1035 880 1040 880 q 987 859 1000 878 q 972 784 974 840 q 967 423 967 548 q 968 232 967 320 q 971 94 970 144 q 972 34 972 45 q 944 -33 972 -33 q 876 26 928 -33 l 589 354 q 281 693 283 693 l 275 688 q 256 194 256 403 l 256 155 q 267 83 256 99 q 320 64 278 66 q 404 54 372 64 q 422 18 422 46 q 399 -8 422 -8 q 388 -7 397 -8 q 363 -5 378 -7 q 327 -3 347 -4 q 281 -1 307 -1 q 229 0 255 0 q 148 -2 189 0 q 83 -5 107 -4 l 58 -8 q 30 19 30 -8 q 50 56 30 49 q 87 60 58 58 q 138 71 117 62 q 168 100 159 80 q 194 490 174 114 q 208 753 202 650 z "},"":{"ha":1080,"x_min":24,"x_max":1055,"o":"m 368 1199 q 383 1236 368 1222 q 422 1249 399 1249 q 495 1217 453 1249 q 707 1058 700 1067 q 712 1040 712 1047 q 704 1021 712 1028 q 685 1015 696 1015 l 684 1015 q 425 1134 674 1015 l 418 1137 q 410 1141 412 1139 q 401 1146 407 1142 q 391 1154 395 1150 q 382 1162 387 1157 q 374 1172 377 1166 q 370 1184 372 1177 q 368 1199 368 1191 m 1055 468 q 909 109 1055 252 q 557 -34 764 -34 q 358 5 456 -34 q 186 117 260 45 q 24 490 27 270 q 176 850 24 700 q 537 1000 327 1000 q 906 842 757 1000 q 1055 468 1055 685 m 157 533 q 182 355 157 441 q 255 201 208 270 q 380 90 302 132 q 552 47 457 47 q 677 69 616 47 q 793 135 738 91 q 884 259 849 179 q 918 444 918 339 q 881 659 918 553 q 765 833 844 764 q 515 926 659 926 q 387 903 449 926 q 272 833 324 879 q 189 710 220 788 q 157 533 157 632 z "},"":{"ha":1080,"x_min":24,"x_max":1055,"o":"m 656 1249 q 696 1235 680 1249 q 712 1199 712 1221 q 711 1187 712 1194 q 708 1177 709 1181 q 703 1168 707 1173 q 697 1161 700 1164 q 690 1155 694 1158 q 684 1149 686 1152 q 675 1145 681 1147 q 668 1141 670 1142 q 661 1137 666 1139 q 655 1134 656 1134 q 396 1015 404 1015 q 376 1022 385 1015 q 368 1042 368 1029 q 395 1078 368 1061 l 586 1217 q 656 1249 628 1249 m 1055 468 q 909 109 1055 252 q 557 -34 764 -34 q 358 5 456 -34 q 186 117 260 45 q 24 490 27 270 q 176 850 24 700 q 537 1000 327 1000 q 906 842 757 1000 q 1055 468 1055 685 m 157 533 q 182 355 157 441 q 255 201 208 270 q 380 90 302 132 q 552 47 457 47 q 677 69 616 47 q 793 135 738 91 q 884 259 849 179 q 918 444 918 339 q 881 659 918 553 q 765 833 844 764 q 515 926 659 926 q 387 903 449 926 q 272 833 324 879 q 189 710 220 788 q 157 533 157 632 z "},"":{"ha":1080,"x_min":24,"x_max":1055,"o":"m 393 1015 q 377 1021 382 1015 q 372 1034 372 1028 q 422 1105 372 1043 q 491 1191 461 1154 q 544 1223 515 1223 q 579 1204 562 1223 q 708 1042 707 1047 q 709 1035 709 1039 q 704 1021 709 1028 q 688 1015 699 1015 q 651 1034 670 1015 q 628 1053 640 1043 q 608 1069 616 1063 q 593 1082 601 1076 q 580 1093 585 1089 q 570 1101 575 1097 q 561 1107 564 1105 q 554 1111 557 1109 q 547 1113 551 1112 q 541 1114 544 1114 q 466 1064 522 1114 q 393 1015 410 1015 m 1055 468 q 909 109 1055 252 q 557 -34 764 -34 q 358 5 456 -34 q 186 117 260 45 q 24 490 27 270 q 176 850 24 700 q 537 1000 327 1000 q 906 842 757 1000 q 1055 468 1055 685 m 157 533 q 182 355 157 441 q 255 201 208 270 q 380 90 302 132 q 552 47 457 47 q 677 69 616 47 q 793 135 738 91 q 884 259 849 179 q 918 444 918 339 q 881 659 918 553 q 765 833 844 764 q 515 926 659 926 q 387 903 449 926 q 272 833 324 879 q 189 710 220 788 q 157 533 157 632 z "},"":{"ha":1080,"x_min":24,"x_max":1055,"o":"m 616 1112 q 667 1128 644 1112 q 705 1160 690 1143 q 724 1176 719 1176 q 741 1171 730 1176 q 751 1158 751 1165 q 724 1118 751 1150 q 673 1067 697 1085 q 593 1038 635 1038 q 513 1069 556 1038 q 444 1100 469 1100 q 395 1082 416 1100 q 362 1045 374 1063 q 347 1027 350 1027 q 336 1035 343 1027 q 328 1048 328 1043 q 353 1089 328 1053 q 391 1139 377 1126 q 461 1172 423 1172 q 538 1142 492 1172 q 616 1112 585 1112 m 1055 468 q 909 109 1055 252 q 557 -34 764 -34 q 358 5 456 -34 q 186 117 260 45 q 24 490 27 270 q 176 850 24 700 q 537 1000 327 1000 q 906 842 757 1000 q 1055 468 1055 685 m 157 533 q 182 355 157 441 q 255 201 208 270 q 380 90 302 132 q 552 47 457 47 q 677 69 616 47 q 793 135 738 91 q 884 259 849 179 q 918 444 918 339 q 881 659 918 553 q 765 833 844 764 q 515 926 659 926 q 387 903 449 926 q 272 833 324 879 q 189 710 220 788 q 157 533 157 632 z "},"":{"ha":1080,"x_min":24,"x_max":1055,"o":"m 568 1093 q 588 1139 568 1120 q 635 1158 608 1158 q 682 1140 663 1158 q 701 1095 701 1122 q 682 1047 701 1066 q 635 1028 662 1028 q 587 1046 606 1028 q 568 1093 568 1065 m 380 1093 q 399 1139 380 1120 q 446 1158 419 1158 q 494 1140 475 1158 q 514 1095 514 1122 q 494 1047 514 1066 q 446 1028 475 1028 q 399 1046 418 1028 q 380 1093 380 1065 m 1055 468 q 909 109 1055 252 q 557 -34 764 -34 q 358 5 456 -34 q 186 117 260 45 q 24 490 27 270 q 176 850 24 700 q 537 1000 327 1000 q 906 842 757 1000 q 1055 468 1055 685 m 157 533 q 182 355 157 441 q 255 201 208 270 q 380 90 302 132 q 552 47 457 47 q 677 69 616 47 q 793 135 738 91 q 884 259 849 179 q 918 444 918 339 q 881 659 918 553 q 765 833 844 764 q 515 926 659 926 q 387 903 449 926 q 272 833 324 879 q 189 710 220 788 q 157 533 157 632 z "},"":{"ha":766,"x_min":73,"x_max":696,"o":"m 75 96 q 88 119 75 106 l 330 359 q 165 524 256 434 q 87 602 100 587 q 73 625 73 617 q 90 652 73 635 q 121 670 107 670 l 122 670 q 259 543 134 670 q 385 416 334 468 q 572 605 477 509 q 632 664 623 655 q 648 673 642 673 l 650 673 q 677 655 659 673 q 694 625 694 637 l 694 624 q 675 593 694 614 q 540 457 655 572 q 442 359 480 397 q 689 111 685 117 q 696 96 696 103 q 679 68 696 85 q 650 50 662 50 q 627 62 639 50 l 385 304 q 134 56 144 62 q 121 50 127 50 q 92 67 110 50 q 75 96 75 84 z "},"":{"ha":1080,"x_min":24,"x_max":1055,"o":"m 1055 468 q 909 109 1055 252 q 557 -34 764 -34 q 316 24 430 -34 q 279 -43 294 -15 q 273 -54 274 -52 q 245 -61 263 -61 q 198 -43 198 -61 l 198 -42 l 254 61 q 87 248 148 134 q 24 490 26 362 q 176 850 24 700 q 537 1000 327 1000 q 745 958 644 1000 q 788 1032 783 1027 q 807 1035 793 1035 q 857 1012 857 1035 q 810 922 857 1008 q 989 728 924 850 q 1055 468 1055 606 m 157 533 q 192 323 157 427 q 301 148 227 220 l 701 879 q 515 926 614 926 q 387 903 449 926 q 272 833 324 879 q 189 710 220 788 q 157 533 157 632 m 552 47 q 677 69 616 47 q 793 135 738 91 q 884 259 849 179 q 918 444 918 339 q 880 661 918 556 q 762 836 842 765 l 358 102 q 552 47 446 47 z "},"":{"ha":1050,"x_min":23,"x_max":1031,"o":"m 354 1198 q 370 1234 354 1221 q 408 1248 385 1248 q 481 1215 439 1248 q 693 1057 686 1066 q 699 1039 699 1046 q 690 1020 699 1027 q 671 1013 682 1013 l 670 1013 q 411 1133 661 1013 l 404 1135 q 396 1139 399 1138 q 387 1145 393 1141 q 377 1152 381 1149 q 368 1160 373 1156 q 361 1171 363 1165 q 356 1183 358 1176 q 354 1198 354 1190 m 1031 921 q 1016 896 1031 902 q 984 890 1001 890 q 952 867 967 890 q 937 795 937 845 q 937 787 937 792 q 936 780 936 781 l 936 465 q 937 433 936 454 q 937 400 937 411 l 937 355 q 934 276 937 311 q 919 197 930 241 q 881 114 907 152 q 814 47 854 76 q 552 -20 718 -20 q 383 0 458 -20 q 267 47 308 20 q 194 111 225 73 q 153 170 163 148 q 136 217 142 193 q 118 395 118 281 q 119 448 118 412 q 119 500 119 483 l 119 850 q 119 865 119 859 q 114 874 118 871 q 109 880 110 878 q 99 884 107 883 q 89 886 91 886 q 75 888 87 887 q 61 890 64 890 q 23 924 23 895 q 52 958 23 958 q 73 956 56 958 q 123 954 91 955 q 191 952 155 952 l 199 952 q 273 954 239 952 q 326 956 307 955 q 349 958 345 958 q 374 921 374 958 q 372 903 374 910 q 360 894 369 897 q 344 890 351 891 q 319 887 336 888 q 289 884 301 886 q 244 836 244 879 l 244 401 q 260 245 244 309 q 330 134 277 182 q 579 58 412 58 q 833 184 773 58 q 860 339 860 241 l 860 358 q 859 401 860 373 q 859 445 859 430 l 859 822 q 854 861 859 846 q 833 882 850 875 q 808 890 817 888 q 765 895 800 891 q 735 926 735 898 q 761 958 735 958 q 780 956 764 958 q 823 954 796 955 q 883 952 850 952 q 943 954 916 952 q 986 956 970 955 q 1005 958 1002 958 q 1031 921 1031 958 z "},"":{"ha":1050,"x_min":23,"x_max":1031,"o":"m 727 1246 q 766 1232 750 1246 q 783 1196 783 1218 q 781 1185 783 1191 q 779 1175 780 1179 q 774 1166 777 1171 q 768 1158 770 1161 q 761 1152 765 1156 q 754 1147 757 1149 q 746 1142 751 1145 q 739 1138 741 1139 q 732 1134 736 1137 q 726 1131 727 1131 q 467 1012 475 1012 q 447 1019 456 1012 q 438 1039 438 1027 q 465 1076 438 1058 l 656 1214 q 727 1246 699 1246 m 1031 921 q 1016 896 1031 902 q 984 890 1001 890 q 952 867 967 890 q 937 795 937 845 q 937 787 937 792 q 936 780 936 781 l 936 465 q 937 433 936 454 q 937 400 937 411 l 937 355 q 934 276 937 311 q 919 197 930 241 q 881 114 907 152 q 814 47 854 76 q 552 -20 718 -20 q 383 0 458 -20 q 267 47 308 20 q 194 111 225 73 q 153 170 163 148 q 136 217 142 193 q 118 395 118 281 q 119 448 118 412 q 119 500 119 483 l 119 850 q 119 865 119 859 q 114 874 118 871 q 109 880 110 878 q 99 884 107 883 q 89 886 91 886 q 75 888 87 887 q 61 890 64 890 q 23 924 23 895 q 52 958 23 958 q 73 956 56 958 q 123 954 91 955 q 191 952 155 952 l 199 952 q 273 954 239 952 q 326 956 307 955 q 349 958 345 958 q 374 921 374 958 q 372 903 374 910 q 360 894 369 897 q 344 890 351 891 q 319 887 336 888 q 289 884 301 886 q 244 836 244 879 l 244 401 q 260 245 244 309 q 330 134 277 182 q 579 58 412 58 q 833 184 773 58 q 860 339 860 241 l 860 358 q 859 401 860 373 q 859 445 859 430 l 859 822 q 854 861 859 846 q 833 882 850 875 q 808 890 817 888 q 765 895 800 891 q 735 926 735 898 q 761 958 735 958 q 780 956 764 958 q 823 954 796 955 q 883 952 850 952 q 943 954 916 952 q 986 956 970 955 q 1005 958 1002 958 q 1031 921 1031 958 z "},"":{"ha":1050,"x_min":23,"x_max":1031,"o":"m 380 1012 q 363 1019 369 1012 q 358 1031 358 1025 q 408 1103 358 1040 q 477 1188 448 1152 q 530 1221 502 1221 q 566 1202 548 1221 q 694 1039 693 1044 q 696 1032 696 1036 q 690 1019 696 1025 q 674 1012 685 1012 q 637 1031 656 1012 q 614 1050 627 1040 q 595 1067 602 1061 q 579 1080 587 1073 q 566 1090 571 1086 q 556 1099 562 1095 q 547 1105 551 1103 q 541 1108 544 1107 q 534 1110 537 1109 q 528 1111 530 1111 q 452 1061 509 1111 q 380 1012 396 1012 m 1031 921 q 1016 896 1031 902 q 984 890 1001 890 q 952 867 967 890 q 937 795 937 845 q 937 787 937 792 q 936 780 936 781 l 936 465 q 937 433 936 454 q 937 400 937 411 l 937 355 q 934 276 937 311 q 919 197 930 241 q 881 114 907 152 q 814 47 854 76 q 552 -20 718 -20 q 383 0 458 -20 q 267 47 308 20 q 194 111 225 73 q 153 170 163 148 q 136 217 142 193 q 118 395 118 281 q 119 448 118 412 q 119 500 119 483 l 119 850 q 119 865 119 859 q 114 874 118 871 q 109 880 110 878 q 99 884 107 883 q 89 886 91 886 q 75 888 87 887 q 61 890 64 890 q 23 924 23 895 q 52 958 23 958 q 73 956 56 958 q 123 954 91 955 q 191 952 155 952 l 199 952 q 273 954 239 952 q 326 956 307 955 q 349 958 345 958 q 374 921 374 958 q 372 903 374 910 q 360 894 369 897 q 344 890 351 891 q 319 887 336 888 q 289 884 301 886 q 244 836 244 879 l 244 401 q 260 245 244 309 q 330 134 277 182 q 579 58 412 58 q 833 184 773 58 q 860 339 860 241 l 860 358 q 859 401 860 373 q 859 445 859 430 l 859 822 q 854 861 859 846 q 833 882 850 875 q 808 890 817 888 q 765 895 800 891 q 735 926 735 898 q 761 958 735 958 q 780 956 764 958 q 823 954 796 955 q 883 952 850 952 q 943 954 916 952 q 986 956 970 955 q 1005 958 1002 958 q 1031 921 1031 958 z "},"":{"ha":1050,"x_min":23,"x_max":1031,"o":"m 589 1077 q 608 1123 589 1104 q 655 1142 628 1142 q 703 1124 684 1142 q 722 1078 722 1105 q 702 1031 722 1050 q 655 1012 682 1012 q 608 1030 627 1012 q 589 1077 589 1048 m 400 1077 q 420 1123 400 1104 q 467 1142 439 1142 q 515 1124 495 1142 q 534 1078 534 1105 q 515 1031 534 1050 q 467 1012 495 1012 q 419 1030 438 1012 q 400 1077 400 1048 m 1031 921 q 1016 896 1031 902 q 984 890 1001 890 q 952 867 967 890 q 937 795 937 845 q 937 787 937 792 q 936 780 936 781 l 936 465 q 937 433 936 454 q 937 400 937 411 l 937 355 q 934 276 937 311 q 919 197 930 241 q 881 114 907 152 q 814 47 854 76 q 552 -20 718 -20 q 383 0 458 -20 q 267 47 308 20 q 194 111 225 73 q 153 170 163 148 q 136 217 142 193 q 118 395 118 281 q 119 448 118 412 q 119 500 119 483 l 119 850 q 119 865 119 859 q 114 874 118 871 q 109 880 110 878 q 99 884 107 883 q 89 886 91 886 q 75 888 87 887 q 61 890 64 890 q 23 924 23 895 q 52 958 23 958 q 73 956 56 958 q 123 954 91 955 q 191 952 155 952 l 199 952 q 273 954 239 952 q 326 956 307 955 q 349 958 345 958 q 374 921 374 958 q 372 903 374 910 q 360 894 369 897 q 344 890 351 891 q 319 887 336 888 q 289 884 301 886 q 244 836 244 879 l 244 401 q 260 245 244 309 q 330 134 277 182 q 579 58 412 58 q 833 184 773 58 q 860 339 860 241 l 860 358 q 859 401 860 373 q 859 445 859 430 l 859 822 q 854 861 859 846 q 833 882 850 875 q 808 890 817 888 q 765 895 800 891 q 735 926 735 898 q 761 958 735 958 q 780 956 764 958 q 823 954 796 955 q 883 952 850 952 q 943 954 916 952 q 986 956 970 955 q 1005 958 1002 958 q 1031 921 1031 958 z "},"":{"ha":926,"x_min":15,"x_max":916,"o":"m 658 891 q 625 894 636 892 q 605 904 614 895 q 595 929 595 913 q 603 948 595 939 q 625 958 610 958 q 644 956 628 958 q 688 954 661 955 q 749 952 716 952 l 753 952 q 814 954 785 952 q 857 956 842 955 q 876 958 872 958 q 906 949 897 958 q 916 929 916 940 q 905 907 916 916 q 876 884 895 898 q 844 853 857 871 l 642 593 q 595 530 618 562 q 559 481 571 498 q 534 448 547 464 q 516 423 521 431 q 506 408 511 415 q 500 393 500 400 q 498 382 499 387 q 498 368 498 377 l 498 98 q 513 73 498 77 q 595 65 528 68 q 650 62 629 64 q 681 30 681 61 l 681 18 q 658 -8 681 -8 l 629 -5 q 555 -2 602 -4 q 463 0 509 0 q 402 -1 433 0 q 349 -3 372 -1 q 307 -5 326 -4 q 278 -7 289 -7 q 266 -8 267 -8 q 231 31 231 -8 q 231 41 231 37 q 233 50 232 46 q 237 55 233 53 q 242 58 240 57 q 250 61 244 60 q 261 63 256 62 q 275 64 266 64 q 292 64 283 64 q 314 65 301 65 q 339 66 327 65 l 345 68 q 352 68 351 68 q 357 68 353 68 q 363 70 362 69 q 369 72 365 71 q 374 76 373 73 q 376 81 374 79 q 379 88 378 84 q 380 98 380 92 l 380 385 q 377 408 380 397 q 373 422 374 418 q 363 441 372 426 q 350 461 354 456 q 129 817 222 666 q 95 871 98 865 q 54 890 81 888 q 20 907 27 892 q 15 926 15 916 q 24 948 15 939 q 50 958 33 958 q 74 956 54 958 q 128 954 94 955 q 203 952 163 952 q 278 954 244 952 q 331 956 312 955 q 354 958 350 958 q 380 929 380 958 q 379 917 380 922 q 376 907 378 911 q 372 901 374 903 q 365 896 370 898 q 356 893 359 894 q 344 891 353 892 q 329 890 335 890 q 311 889 323 890 q 289 887 298 888 q 252 856 252 883 l 252 853 q 319 730 252 844 q 450 502 389 606 q 469 481 463 481 q 480 490 472 481 q 700 798 681 766 q 724 856 724 841 q 712 884 724 878 q 667 891 700 890 q 658 891 661 891 m 648 1246 q 688 1232 671 1246 q 704 1196 704 1218 q 703 1185 704 1191 q 700 1175 701 1179 q 695 1166 699 1171 q 689 1158 692 1161 q 682 1152 686 1156 q 675 1147 678 1149 q 667 1142 673 1145 q 660 1138 662 1139 q 653 1134 658 1137 q 647 1131 648 1131 q 388 1012 396 1012 q 368 1019 377 1012 q 359 1039 359 1027 q 387 1076 359 1058 l 578 1214 q 648 1246 620 1246 z "},"":{"ha":734,"x_min":12,"x_max":724,"o":"m 42 -8 q 24 18 24 -8 q 25 27 24 23 q 27 35 26 31 q 30 40 28 38 q 35 44 31 42 q 41 47 39 46 q 50 49 43 47 q 61 51 57 50 q 75 52 65 52 q 91 54 84 53 q 100 56 96 54 q 106 62 104 58 q 110 71 109 66 q 112 84 111 76 q 113 99 113 92 q 113 118 113 106 q 114 140 114 130 q 117 487 117 210 q 109 498 117 496 q 71 500 100 500 q 43 500 54 500 l 42 500 q 12 526 12 500 q 33 566 12 559 q 73 568 39 568 q 110 570 107 568 q 114 579 114 571 l 114 582 q 236 930 117 829 q 422 998 317 998 q 539 956 494 998 q 585 844 585 914 q 560 751 585 795 q 507 683 536 708 q 453 623 477 658 q 429 555 429 589 q 452 487 429 517 q 536 406 476 457 q 637 312 597 355 q 724 134 724 218 q 675 19 724 64 q 552 -26 625 -26 q 433 0 483 -26 q 366 53 382 26 q 358 91 358 68 l 358 182 q 361 208 358 203 q 382 217 370 217 q 399 209 395 217 q 402 190 403 201 q 404 160 401 179 q 415 126 407 141 q 465 78 429 104 q 541 52 500 52 q 610 76 582 52 q 639 138 639 100 q 614 205 639 175 q 522 294 590 236 q 406 400 453 351 q 350 511 350 456 q 380 601 350 553 q 441 699 411 648 q 472 799 472 749 q 443 882 472 848 q 368 916 414 916 q 334 909 351 916 q 292 884 317 903 q 248 819 267 865 q 220 705 228 773 q 213 541 213 651 l 213 528 q 212 278 213 376 q 212 142 212 180 q 212 95 212 104 q 213 74 212 81 q 224 58 214 66 q 255 49 235 50 q 286 46 278 47 q 298 40 293 45 q 302 23 302 35 q 288 -8 302 -8 l 281 -8 q 262 -5 274 -7 q 236 -3 251 -4 q 202 -1 221 -1 q 165 0 183 0 q 127 -1 146 0 q 94 -3 109 -1 q 68 -5 80 -4 q 50 -7 57 -7 q 42 -8 43 -8 z "},"":{"ha":587,"x_min":41,"x_max":579,"o":"m 41 479 q 106 561 41 519 q 254 602 172 602 q 307 597 279 602 q 368 578 334 591 q 427 531 403 564 q 456 450 450 498 q 458 400 458 418 l 458 126 q 468 87 458 102 q 487 68 477 72 q 506 65 496 65 q 536 77 525 65 q 553 100 547 88 q 567 111 559 111 q 579 94 579 111 q 549 22 579 61 q 472 -16 519 -16 q 438 -11 454 -16 q 411 3 422 -5 q 391 20 400 12 q 377 35 382 28 l 373 41 q 372 41 372 41 q 370 42 372 42 q 366 39 368 42 q 357 28 365 37 q 334 11 349 20 q 205 -27 273 -27 q 90 18 134 -27 q 46 127 46 62 l 46 129 q 104 252 46 208 q 157 281 125 269 q 222 301 190 294 q 282 313 254 308 q 330 319 311 317 l 349 320 q 359 339 359 323 l 359 389 q 327 500 359 461 q 245 537 293 537 q 126 445 172 537 q 96 429 114 429 q 58 442 75 429 q 41 479 41 456 m 237 49 q 296 62 269 49 q 335 87 324 76 q 353 106 346 98 q 361 137 361 117 l 361 171 l 361 228 q 359 261 361 254 q 347 269 357 269 q 262 258 313 269 q 182 218 212 247 q 149 142 149 191 q 178 66 149 91 q 237 49 197 49 m 62 922 q 78 960 62 945 q 114 974 94 974 l 115 974 q 191 916 153 974 q 286 774 235 852 q 338 686 338 699 q 330 667 338 675 q 311 658 321 658 l 308 658 q 288 667 298 658 q 209 747 278 675 q 98 860 145 811 q 62 922 62 895 z "},"":{"ha":587,"x_min":41,"x_max":579,"o":"m 396 974 q 433 960 418 974 q 448 922 448 945 q 415 860 448 895 q 221 665 233 674 q 201 658 212 658 q 181 667 189 658 q 174 686 174 675 q 236 792 174 700 q 320 916 283 861 q 396 974 358 974 m 41 479 q 106 561 41 519 q 254 602 172 602 q 307 597 279 602 q 368 578 334 591 q 427 531 403 564 q 456 450 450 498 q 458 400 458 418 l 458 126 q 468 87 458 102 q 487 68 477 72 q 506 65 496 65 q 536 77 525 65 q 553 100 547 88 q 567 111 559 111 q 579 94 579 111 q 549 22 579 61 q 472 -16 519 -16 q 438 -11 454 -16 q 411 3 422 -5 q 391 20 400 12 q 377 35 382 28 l 373 41 q 372 41 372 41 q 370 42 372 42 q 366 39 368 42 q 357 28 365 37 q 334 11 349 20 q 205 -27 273 -27 q 90 18 134 -27 q 46 127 46 62 l 46 129 q 104 252 46 208 q 157 281 125 269 q 222 301 190 294 q 282 313 254 308 q 330 319 311 317 l 349 320 q 359 339 359 323 l 359 389 q 327 500 359 461 q 245 537 293 537 q 126 445 172 537 q 96 429 114 429 q 58 442 75 429 q 41 479 41 456 m 237 49 q 296 62 269 49 q 335 87 324 76 q 353 106 346 98 q 361 137 361 117 l 361 171 l 361 228 q 359 261 361 254 q 347 269 357 269 q 262 258 313 269 q 182 218 212 247 q 149 142 149 191 q 178 66 149 91 q 237 49 197 49 z "},"":{"ha":587,"x_min":41,"x_max":579,"o":"m 149 658 q 135 663 142 658 q 127 680 127 669 q 162 787 127 688 q 214 925 197 886 q 255 966 232 966 q 295 926 277 966 q 351 776 313 887 q 378 696 369 726 q 382 681 382 684 q 375 663 382 669 q 361 658 368 658 q 326 690 345 658 q 263 793 270 789 q 256 795 260 795 q 239 784 247 795 q 201 720 232 773 q 182 688 189 700 q 149 658 163 658 m 41 479 q 106 561 41 519 q 254 602 172 602 q 307 597 279 602 q 368 578 334 591 q 427 531 403 564 q 456 450 450 498 q 458 400 458 418 l 458 126 q 468 87 458 102 q 487 68 477 72 q 506 65 496 65 q 536 77 525 65 q 553 100 547 88 q 567 111 559 111 q 579 94 579 111 q 549 22 579 61 q 472 -16 519 -16 q 438 -11 454 -16 q 411 3 422 -5 q 391 20 400 12 q 377 35 382 28 l 373 41 q 372 41 372 41 q 370 42 372 42 q 366 39 368 42 q 357 28 365 37 q 334 11 349 20 q 205 -27 273 -27 q 90 18 134 -27 q 46 127 46 62 l 46 129 q 104 252 46 208 q 157 281 125 269 q 222 301 190 294 q 282 313 254 308 q 330 319 311 317 l 349 320 q 359 339 359 323 l 359 389 q 327 500 359 461 q 245 537 293 537 q 126 445 172 537 q 96 429 114 429 q 58 442 75 429 q 41 479 41 456 m 237 49 q 296 62 269 49 q 335 87 324 76 q 353 106 346 98 q 361 137 361 117 l 361 171 l 361 228 q 359 261 361 254 q 347 269 357 269 q 262 258 313 269 q 182 218 212 247 q 149 142 149 191 q 178 66 149 91 q 237 49 197 49 z "},"":{"ha":587,"x_min":41,"x_max":579,"o":"m 331 864 q 382 880 359 864 q 420 911 406 895 q 439 928 434 928 q 456 922 445 928 q 467 910 467 917 q 439 869 467 902 q 388 819 412 837 q 308 789 350 789 q 228 821 271 789 q 159 852 184 852 q 111 833 132 852 q 77 797 90 815 q 62 779 65 779 q 51 787 58 779 q 43 800 43 795 q 68 841 43 804 q 106 891 92 878 q 176 924 138 924 q 254 894 208 924 q 331 864 300 864 m 41 479 q 106 561 41 519 q 254 602 172 602 q 307 597 279 602 q 368 578 334 591 q 427 531 403 564 q 456 450 450 498 q 458 400 458 418 l 458 126 q 468 87 458 102 q 487 68 477 72 q 506 65 496 65 q 536 77 525 65 q 553 100 547 88 q 567 111 559 111 q 579 94 579 111 q 549 22 579 61 q 472 -16 519 -16 q 438 -11 454 -16 q 411 3 422 -5 q 391 20 400 12 q 377 35 382 28 l 373 41 q 372 41 372 41 q 370 42 372 42 q 366 39 368 42 q 357 28 365 37 q 334 11 349 20 q 205 -27 273 -27 q 90 18 134 -27 q 46 127 46 62 l 46 129 q 104 252 46 208 q 157 281 125 269 q 222 301 190 294 q 282 313 254 308 q 330 319 311 317 l 349 320 q 359 339 359 323 l 359 389 q 327 500 359 461 q 245 537 293 537 q 126 445 172 537 q 96 429 114 429 q 58 442 75 429 q 41 479 41 456 m 237 49 q 296 62 269 49 q 335 87 324 76 q 353 106 346 98 q 361 137 361 117 l 361 171 l 361 228 q 359 261 361 254 q 347 269 357 269 q 262 258 313 269 q 182 218 212 247 q 149 142 149 191 q 178 66 149 91 q 237 49 197 49 z "},"":{"ha":587,"x_min":41,"x_max":579,"o":"m 282 859 q 302 905 282 886 q 349 924 321 924 q 396 905 377 924 q 415 860 415 887 q 395 812 415 831 q 349 793 376 793 q 301 812 320 793 q 282 859 282 830 m 94 859 q 113 905 94 886 q 160 924 133 924 q 208 905 189 924 q 228 860 228 887 q 208 812 228 831 q 160 793 189 793 q 113 812 132 793 q 94 859 94 830 m 41 479 q 106 561 41 519 q 254 602 172 602 q 307 597 279 602 q 368 578 334 591 q 427 531 403 564 q 456 450 450 498 q 458 400 458 418 l 458 126 q 468 87 458 102 q 487 68 477 72 q 506 65 496 65 q 536 77 525 65 q 553 100 547 88 q 567 111 559 111 q 579 94 579 111 q 549 22 579 61 q 472 -16 519 -16 q 438 -11 454 -16 q 411 3 422 -5 q 391 20 400 12 q 377 35 382 28 l 373 41 q 372 41 372 41 q 370 42 372 42 q 366 39 368 42 q 357 28 365 37 q 334 11 349 20 q 205 -27 273 -27 q 90 18 134 -27 q 46 127 46 62 l 46 129 q 104 252 46 208 q 157 281 125 269 q 222 301 190 294 q 282 313 254 308 q 330 319 311 317 l 349 320 q 359 339 359 323 l 359 389 q 327 500 359 461 q 245 537 293 537 q 126 445 172 537 q 96 429 114 429 q 58 442 75 429 q 41 479 41 456 m 237 49 q 296 62 269 49 q 335 87 324 76 q 353 106 346 98 q 361 137 361 117 l 361 171 l 361 228 q 359 261 361 254 q 347 269 357 269 q 262 258 313 269 q 182 218 212 247 q 149 142 149 191 q 178 66 149 91 q 237 49 197 49 z "},"":{"ha":587,"x_min":41,"x_max":579,"o":"m 254 903 q 337 867 302 903 q 372 780 372 830 q 337 694 372 730 q 254 658 302 658 q 171 694 206 658 q 136 780 136 730 q 171 867 136 830 q 254 903 206 903 m 254 850 q 210 830 228 850 q 191 783 191 810 q 210 733 191 754 q 255 712 228 712 q 300 732 282 712 q 317 780 317 753 q 299 829 317 807 q 254 850 281 850 m 41 479 q 106 561 41 519 q 254 602 172 602 q 307 597 279 602 q 368 578 334 591 q 427 531 403 564 q 456 450 450 498 q 458 400 458 418 l 458 126 q 468 87 458 102 q 487 68 477 72 q 506 65 496 65 q 536 77 525 65 q 553 100 547 88 q 567 111 559 111 q 579 94 579 111 q 549 22 579 61 q 472 -16 519 -16 q 438 -11 454 -16 q 411 3 422 -5 q 391 20 400 12 q 377 35 382 28 l 373 41 q 372 41 372 41 q 370 42 372 42 q 366 39 368 42 q 357 28 365 37 q 334 11 349 20 q 205 -27 273 -27 q 90 18 134 -27 q 46 127 46 62 l 46 129 q 104 252 46 208 q 157 281 125 269 q 222 301 190 294 q 282 313 254 308 q 330 319 311 317 l 349 320 q 359 339 359 323 l 359 389 q 327 500 359 461 q 245 537 293 537 q 126 445 172 537 q 96 429 114 429 q 58 442 75 429 q 41 479 41 456 m 237 49 q 296 62 269 49 q 335 87 324 76 q 353 106 346 98 q 361 137 361 117 l 361 171 l 361 228 q 359 261 361 254 q 347 269 357 269 q 262 258 313 269 q 182 218 212 247 q 149 142 149 191 q 178 66 149 91 q 237 49 197 49 z "},"":{"ha":895,"x_min":39,"x_max":886,"o":"m 589 522 q 492 469 529 522 q 456 324 456 415 q 463 313 456 313 q 592 362 465 313 q 724 414 719 411 q 735 430 735 419 q 687 486 735 449 q 589 522 639 522 m 148 140 q 168 73 148 102 q 235 45 187 45 q 327 77 288 45 q 355 107 350 95 q 359 160 359 119 l 359 199 q 357 256 359 247 q 346 266 355 266 l 343 266 q 148 140 148 252 m 621 600 q 790 537 709 600 q 871 435 871 475 l 871 433 q 863 411 871 420 q 841 394 856 401 q 815 382 826 387 q 783 372 804 378 q 757 363 762 365 q 468 262 475 266 q 463 254 463 259 q 467 227 463 245 q 485 176 471 208 q 520 119 499 145 q 581 73 541 92 q 669 53 620 53 q 833 121 762 53 q 865 140 848 140 q 886 121 886 140 q 878 98 886 110 q 766 6 831 38 q 631 -26 700 -26 q 554 -16 590 -26 q 495 9 518 -5 q 456 39 472 24 q 431 64 439 54 q 420 75 422 75 q 407 64 419 75 q 375 37 395 53 q 330 6 355 22 q 271 -20 305 -9 q 203 -31 237 -31 q 90 14 134 -31 q 45 125 45 60 l 45 126 q 103 250 45 205 q 197 292 136 275 q 302 312 258 309 l 347 316 q 358 347 358 319 l 358 387 q 326 498 358 458 q 244 534 293 534 q 208 528 225 534 q 180 512 191 521 q 157 491 168 503 q 141 470 146 479 q 130 452 136 461 l 125 442 q 94 426 111 426 q 56 440 73 426 q 39 476 39 454 q 104 558 39 517 q 254 600 168 600 q 339 587 302 600 q 392 560 376 575 q 420 533 408 545 q 438 521 433 521 q 450 528 444 521 q 621 600 528 600 z "},"":{"ha":529,"x_min":23,"x_max":528,"o":"m 401 -167 q 375 -240 401 -209 q 288 -271 349 -271 q 219 -264 256 -271 q 178 -252 182 -256 q 172 -243 172 -248 q 174 -233 172 -240 q 180 -218 175 -227 q 191 -210 184 -210 l 197 -212 q 210 -214 202 -213 q 228 -217 218 -216 q 248 -220 237 -218 q 264 -221 258 -221 q 302 -208 288 -221 q 316 -176 316 -195 q 289 -127 316 -148 q 218 -104 262 -107 q 212 -100 212 -104 l 217 -87 q 230 -51 222 -72 q 241 -19 237 -30 q 83 77 144 -3 q 23 274 23 157 q 106 505 23 416 q 321 594 189 594 q 446 563 395 594 q 498 491 498 532 q 481 454 498 468 q 442 439 465 439 q 364 481 412 439 q 274 522 316 522 q 163 458 210 522 q 115 308 115 395 q 178 136 115 209 q 335 64 241 64 q 402 75 372 64 q 448 101 433 87 q 479 127 464 115 q 505 138 495 138 q 521 132 514 138 q 528 115 528 125 q 519 94 528 104 q 423 9 483 43 q 290 -24 363 -24 l 286 -24 q 281 -37 283 -31 q 279 -45 279 -42 q 277 -50 278 -47 q 275 -54 275 -53 q 275 -56 275 -54 q 281 -60 275 -60 l 285 -60 q 369 -87 336 -60 q 401 -165 401 -115 l 401 -167 z "},"":{"ha":567,"x_min":31,"x_max":555,"o":"m 31 286 q 106 513 31 427 q 288 598 180 598 q 420 560 357 598 q 526 465 484 522 q 537 435 537 452 l 537 433 q 530 411 537 420 q 509 394 524 401 q 483 382 494 387 q 451 372 472 378 q 425 363 430 365 q 134 262 141 266 q 129 254 129 259 q 133 227 129 245 q 151 176 137 208 q 186 119 165 145 q 247 73 208 92 q 335 53 286 53 q 500 121 430 53 q 532 140 519 140 q 555 119 555 140 q 544 98 555 111 q 435 7 500 41 q 298 -26 370 -26 q 208 -9 252 -26 q 123 41 164 7 q 56 138 81 75 q 31 286 31 202 m 403 430 q 355 485 403 448 q 256 522 308 522 q 159 469 195 522 q 123 324 123 416 q 130 313 123 313 q 260 363 133 313 q 391 414 387 412 q 403 430 403 420 m 45 920 q 60 957 45 943 q 96 971 76 971 l 98 971 q 174 913 136 971 q 269 772 217 849 q 320 684 320 696 q 312 664 320 673 q 293 655 304 655 l 290 655 q 271 664 281 655 q 191 745 260 673 q 80 857 127 808 q 45 920 45 892 z "},"":{"ha":567,"x_min":31,"x_max":555,"o":"m 377 971 q 414 957 399 971 q 429 920 429 943 q 396 857 429 892 q 202 662 214 671 q 182 655 193 655 q 162 664 170 655 q 155 684 155 673 q 217 789 155 697 q 301 913 264 859 q 377 971 339 971 m 31 286 q 106 513 31 427 q 288 598 180 598 q 420 560 357 598 q 526 465 484 522 q 537 435 537 452 l 537 433 q 530 411 537 420 q 509 394 524 401 q 483 382 494 387 q 451 372 472 378 q 425 363 430 365 q 134 262 141 266 q 129 254 129 259 q 133 227 129 245 q 151 176 137 208 q 186 119 165 145 q 247 73 208 92 q 335 53 286 53 q 500 121 430 53 q 532 140 519 140 q 555 119 555 140 q 544 98 555 111 q 435 7 500 41 q 298 -26 370 -26 q 208 -9 252 -26 q 123 41 164 7 q 56 138 81 75 q 31 286 31 202 m 403 430 q 355 485 403 448 q 256 522 308 522 q 159 469 195 522 q 123 324 123 416 q 130 313 123 313 q 260 363 133 313 q 391 414 387 412 q 403 430 403 420 z "},"":{"ha":567,"x_min":31,"x_max":555,"o":"m 186 654 q 172 659 179 654 q 164 675 164 665 q 199 783 164 684 q 251 921 233 882 q 292 962 269 962 q 332 922 313 962 q 388 772 350 883 q 415 692 406 722 q 419 677 419 680 q 412 659 419 665 q 397 654 404 654 q 362 686 381 654 q 300 789 307 785 q 293 791 297 791 q 276 780 283 791 q 237 716 269 769 q 218 684 225 696 q 186 654 199 654 m 31 286 q 106 513 31 427 q 288 598 180 598 q 420 560 357 598 q 526 465 484 522 q 537 435 537 452 l 537 433 q 530 411 537 420 q 509 394 524 401 q 483 382 494 387 q 451 372 472 378 q 425 363 430 365 q 134 262 141 266 q 129 254 129 259 q 133 227 129 245 q 151 176 137 208 q 186 119 165 145 q 247 73 208 92 q 335 53 286 53 q 500 121 430 53 q 532 140 519 140 q 555 119 555 140 q 544 98 555 111 q 435 7 500 41 q 298 -26 370 -26 q 208 -9 252 -26 q 123 41 164 7 q 56 138 81 75 q 31 286 31 202 m 403 430 q 355 485 403 448 q 256 522 308 522 q 159 469 195 522 q 123 324 123 416 q 130 313 123 313 q 260 363 133 313 q 391 414 387 412 q 403 430 403 420 z "},"":{"ha":567,"x_min":31,"x_max":555,"o":"m 320 859 q 340 905 320 886 q 387 924 359 924 q 434 905 415 924 q 453 860 453 887 q 433 812 453 831 q 387 793 414 793 q 339 812 358 793 q 320 859 320 830 m 132 859 q 151 905 132 886 q 198 924 171 924 q 246 905 227 924 q 266 860 266 887 q 246 812 266 831 q 198 793 227 793 q 151 812 170 793 q 132 859 132 830 m 31 286 q 106 513 31 427 q 288 598 180 598 q 420 560 357 598 q 526 465 484 522 q 537 435 537 452 l 537 433 q 530 411 537 420 q 509 394 524 401 q 483 382 494 387 q 451 372 472 378 q 425 363 430 365 q 134 262 141 266 q 129 254 129 259 q 133 227 129 245 q 151 176 137 208 q 186 119 165 145 q 247 73 208 92 q 335 53 286 53 q 500 121 430 53 q 532 140 519 140 q 555 119 555 140 q 544 98 555 111 q 435 7 500 41 q 298 -26 370 -26 q 208 -9 252 -26 q 123 41 164 7 q 56 138 81 75 q 31 286 31 202 m 403 430 q 355 485 403 448 q 256 522 308 522 q 159 469 195 522 q 123 324 123 416 q 130 313 123 313 q 260 363 133 313 q 391 414 387 412 q 403 430 403 420 z "},"":{"ha":336,"x_min":20,"x_max":416,"o":"m 229 168 q 229 300 229 239 q 230 395 229 361 q 231 437 231 430 q 220 458 231 452 q 137 494 210 464 q 119 511 119 500 q 121 519 119 515 q 128 526 123 524 q 137 531 133 529 q 148 536 141 533 q 157 540 155 538 q 311 613 309 613 l 312 613 q 331 590 331 613 l 330 545 q 325 425 327 500 q 323 275 323 350 l 323 229 q 327 77 323 100 q 354 52 331 54 q 406 42 395 46 q 416 22 416 38 q 400 -8 416 -8 q 392 -7 399 -8 q 373 -5 385 -7 q 346 -3 361 -4 q 311 -1 331 -1 q 273 0 292 0 q 233 -1 254 0 q 199 -3 213 -1 q 172 -5 184 -4 q 153 -7 160 -7 q 145 -8 146 -8 q 123 15 123 -8 q 132 42 123 38 q 193 53 141 46 q 223 68 217 57 q 229 103 229 80 l 229 168 m 20 932 q 36 969 20 955 q 72 983 52 983 l 73 983 q 149 925 111 983 q 244 784 193 861 q 296 696 296 708 q 288 676 296 685 q 269 667 279 667 l 266 667 q 246 676 256 667 q 167 757 236 685 q 56 869 103 821 q 20 932 20 905 z "},"":{"ha":336,"x_min":20,"x_max":317,"o":"m 130 168 q 130 300 130 239 q 131 395 130 361 q 132 437 132 430 q 121 458 132 452 q 38 494 111 464 q 20 511 20 500 q 22 519 20 515 q 29 526 24 524 q 38 531 34 529 q 49 536 42 533 q 58 540 56 538 q 212 613 210 613 l 213 613 q 232 590 232 613 l 231 545 q 226 425 228 500 q 224 275 224 350 l 224 229 q 228 77 224 100 q 255 52 232 54 q 307 42 296 46 q 317 22 317 38 q 301 -8 317 -8 q 293 -7 300 -8 q 274 -5 286 -7 q 247 -3 262 -4 q 212 -1 232 -1 q 174 0 193 0 q 134 -1 155 0 q 100 -3 114 -1 q 73 -5 85 -4 q 54 -7 61 -7 q 46 -8 47 -8 q 24 15 24 -8 q 33 42 24 38 q 94 53 42 46 q 124 68 118 57 q 130 103 130 80 l 130 168 m 255 983 q 292 969 277 983 q 307 932 307 955 q 274 869 307 905 q 80 674 92 684 q 60 667 71 667 q 40 676 47 667 q 33 696 33 685 q 95 802 33 709 q 179 925 142 871 q 255 983 217 983 z "},"":{"ha":336,"x_min":20,"x_max":317,"o":"m 58 667 q 44 673 52 667 q 37 689 37 678 q 71 796 37 697 q 123 935 106 895 q 164 975 141 975 q 204 936 186 975 q 260 785 222 897 q 288 705 278 735 q 292 690 292 693 q 284 673 292 678 q 270 667 277 667 q 235 700 254 667 q 172 803 179 799 q 165 804 170 804 q 149 793 156 804 q 110 730 141 783 q 91 697 98 709 q 58 667 72 667 m 130 168 q 130 300 130 239 q 131 395 130 361 q 132 437 132 430 q 121 458 132 452 q 38 494 111 464 q 20 511 20 500 q 22 519 20 515 q 29 526 24 524 q 38 531 34 529 q 49 536 42 533 q 58 540 56 538 q 212 613 210 613 l 213 613 q 232 590 232 613 l 231 545 q 226 425 228 500 q 224 275 224 350 l 224 229 q 228 77 224 100 q 255 52 232 54 q 307 42 296 46 q 317 22 317 38 q 301 -8 317 -8 q 293 -7 300 -8 q 274 -5 286 -7 q 247 -3 262 -4 q 212 -1 232 -1 q 174 0 193 0 q 134 -1 155 0 q 100 -3 114 -1 q 73 -5 85 -4 q 54 -7 61 -7 q 46 -8 47 -8 q 24 15 24 -8 q 33 42 24 38 q 94 53 42 46 q 124 68 118 57 q 130 103 130 80 l 130 168 z "},"":{"ha":336,"x_min":-7,"x_max":317,"o":"m 130 168 q 130 300 130 239 q 131 395 130 361 q 132 437 132 430 q 121 458 132 452 q 38 494 111 464 q 20 511 20 500 q 22 519 20 515 q 29 526 24 524 q 38 531 34 529 q 49 536 42 533 q 58 540 56 538 q 212 613 210 613 l 213 613 q 232 590 232 613 l 231 545 q 226 425 228 500 q 224 275 224 350 l 224 229 q 228 77 224 100 q 255 52 232 54 q 307 42 296 46 q 317 22 317 38 q 301 -8 317 -8 q 293 -7 300 -8 q 274 -5 286 -7 q 247 -3 262 -4 q 212 -1 232 -1 q 174 0 193 0 q 134 -1 155 0 q 100 -3 114 -1 q 73 -5 85 -4 q 54 -7 61 -7 q 46 -8 47 -8 q 24 15 24 -8 q 33 42 24 38 q 94 53 42 46 q 124 68 118 57 q 130 103 130 80 l 130 168 m 182 859 q 201 905 182 886 q 248 924 221 924 q 296 905 277 924 q 315 860 315 887 q 295 812 315 831 q 248 793 275 793 q 201 812 220 793 q 182 859 182 830 m -7 859 q 13 905 -7 886 q 60 924 33 924 q 108 905 88 924 q 127 860 127 887 q 108 812 127 831 q 60 793 88 793 q 12 812 31 793 q -7 859 -7 830 z "},"":{"ha":692,"x_min":15,"x_max":680,"o":"m 415 864 q 467 880 444 864 q 504 911 490 895 q 524 928 518 928 q 540 922 529 928 q 551 910 551 917 q 524 869 551 902 q 472 819 496 837 q 392 789 434 789 q 312 821 355 789 q 243 852 269 852 q 195 833 216 852 q 161 797 174 815 q 146 779 149 779 q 135 787 142 779 q 127 800 127 795 q 152 841 127 804 q 190 891 176 878 q 260 924 222 924 q 338 894 292 924 q 415 864 384 864 m 195 524 q 199 518 195 518 l 201 518 q 211 526 202 518 q 236 547 220 534 q 274 571 252 559 q 327 592 296 583 q 392 601 358 601 l 395 601 q 451 593 423 601 q 511 566 479 586 q 564 505 543 547 q 591 401 586 463 q 594 331 594 378 q 594 304 594 326 q 593 229 594 283 q 593 91 593 175 l 593 88 q 594 75 593 81 q 596 66 595 69 q 601 59 597 62 q 607 54 605 56 q 616 51 609 53 q 627 49 624 49 q 642 47 631 49 q 659 45 654 46 q 680 19 680 42 q 658 -8 680 -8 q 639 -6 654 -8 q 597 -2 624 -4 q 541 0 571 0 q 506 -1 524 0 q 475 -3 488 -1 q 452 -5 463 -4 q 434 -8 441 -7 l 427 -8 q 408 19 408 -8 q 416 38 408 34 q 460 47 425 42 q 480 52 472 50 q 498 60 494 54 q 503 84 503 66 l 503 300 q 484 450 503 401 q 423 515 464 496 q 346 533 382 533 q 251 500 293 533 q 203 444 209 468 q 201 425 201 433 l 201 96 l 201 92 q 232 53 201 57 q 298 38 293 43 q 307 15 307 31 q 289 -9 307 -9 q 280 -9 288 -9 q 260 -7 273 -8 q 233 -3 248 -5 q 199 -1 218 -1 q 160 0 179 0 q 122 -1 141 0 q 89 -3 103 -1 q 64 -5 75 -4 q 46 -7 53 -7 q 38 -8 39 -8 q 15 16 15 -8 q 24 40 15 35 q 69 50 33 45 q 100 65 94 54 q 106 98 106 76 l 106 429 q 99 462 106 453 q 43 507 92 471 q 35 521 35 515 l 35 522 q 45 535 35 529 q 103 567 54 541 q 167 601 141 587 q 180 606 175 606 q 197 586 197 606 l 197 532 q 195 526 197 530 l 195 524 z "},"":{"ha":648,"x_min":30,"x_max":620,"o":"m 30 283 q 119 511 30 423 q 330 600 208 600 q 537 511 454 600 q 620 283 620 422 q 534 58 620 141 q 324 -26 448 -26 q 112 64 194 -26 q 30 283 30 153 m 190 112 q 216 77 190 112 q 328 42 243 42 q 469 112 414 42 q 525 278 525 182 q 463 460 525 387 q 320 534 401 534 q 195 475 252 534 q 137 290 137 415 q 190 112 137 182 m 76 920 q 92 957 76 943 q 127 971 107 971 l 129 971 q 205 913 167 971 q 300 772 248 849 q 351 684 351 696 q 343 664 351 673 q 324 655 335 655 l 321 655 q 302 664 312 655 q 222 745 292 673 q 111 857 159 808 q 76 920 76 892 z "},"":{"ha":648,"x_min":30,"x_max":620,"o":"m 410 971 q 446 957 431 971 q 461 920 461 943 q 429 857 461 892 q 235 662 247 671 q 214 655 225 655 q 195 664 202 655 q 187 684 187 673 q 250 789 187 697 q 334 913 297 859 q 410 971 372 971 m 30 283 q 119 511 30 423 q 330 600 208 600 q 537 511 454 600 q 620 283 620 422 q 534 58 620 141 q 324 -26 448 -26 q 112 64 194 -26 q 30 283 30 153 m 190 112 q 216 77 190 112 q 328 42 243 42 q 469 112 414 42 q 525 278 525 182 q 463 460 525 387 q 320 534 401 534 q 195 475 252 534 q 137 290 137 415 q 190 112 137 182 z "},"":{"ha":648,"x_min":30,"x_max":620,"o":"m 218 655 q 204 661 212 655 q 197 677 197 666 q 231 784 197 685 q 283 922 266 883 q 324 963 301 963 q 364 924 346 963 q 420 773 382 884 q 448 693 438 723 q 452 678 452 681 q 444 661 452 666 q 430 655 437 655 q 395 688 414 655 q 332 791 339 787 q 326 792 330 792 q 309 781 316 792 q 270 718 301 770 q 251 685 258 697 q 218 655 232 655 m 30 283 q 119 511 30 423 q 330 600 208 600 q 537 511 454 600 q 620 283 620 422 q 534 58 620 141 q 324 -26 448 -26 q 112 64 194 -26 q 30 283 30 153 m 190 112 q 216 77 190 112 q 328 42 243 42 q 469 112 414 42 q 525 278 525 182 q 463 460 525 387 q 320 534 401 534 q 195 475 252 534 q 137 290 137 415 q 190 112 137 182 z "},"":{"ha":648,"x_min":30,"x_max":620,"o":"m 399 864 q 450 880 427 864 q 488 911 473 895 q 507 928 502 928 q 524 922 513 928 q 534 910 534 917 q 507 869 534 902 q 456 819 480 837 q 376 789 418 789 q 296 821 339 789 q 227 852 252 852 q 178 833 199 852 q 145 797 157 815 q 130 779 133 779 q 119 787 126 779 q 111 800 111 795 q 136 841 111 804 q 174 891 160 878 q 244 924 206 924 q 321 894 275 924 q 399 864 368 864 m 30 283 q 119 511 30 423 q 330 600 208 600 q 537 511 454 600 q 620 283 620 422 q 534 58 620 141 q 324 -26 448 -26 q 112 64 194 -26 q 30 283 30 153 m 190 112 q 216 77 190 112 q 328 42 243 42 q 469 112 414 42 q 525 278 525 182 q 463 460 525 387 q 320 534 401 534 q 195 475 252 534 q 137 290 137 415 q 190 112 137 182 z "},"":{"ha":648,"x_min":30,"x_max":620,"o":"m 354 859 q 374 905 354 886 q 420 924 393 924 q 468 905 449 924 q 487 860 487 887 q 467 812 487 831 q 420 793 448 793 q 373 812 392 793 q 354 859 354 830 m 165 859 q 185 905 165 886 q 232 924 205 924 q 280 905 260 924 q 300 860 300 887 q 280 812 300 831 q 232 793 260 793 q 184 812 203 793 q 165 859 165 830 m 30 283 q 119 511 30 423 q 330 600 208 600 q 537 511 454 600 q 620 283 620 422 q 534 58 620 141 q 324 -26 448 -26 q 112 64 194 -26 q 30 283 30 153 m 190 112 q 216 77 190 112 q 328 42 243 42 q 469 112 414 42 q 525 278 525 182 q 463 460 525 387 q 320 534 401 534 q 195 475 252 534 q 137 290 137 415 q 190 112 137 182 z "},"":{"ha":972,"x_min":73,"x_max":901,"o":"m 106 321 q 73 351 73 321 l 73 369 q 106 400 73 400 l 872 400 q 901 373 901 400 l 901 354 q 891 327 901 332 q 864 321 882 321 l 106 321 m 417 505 q 407 516 417 505 q 396 556 396 526 q 418 607 396 586 q 471 628 439 628 q 522 608 500 628 q 543 557 543 587 q 521 505 543 526 q 469 484 499 484 q 417 505 438 484 m 479 94 q 427 114 449 94 q 406 165 406 134 q 426 216 406 195 q 477 236 446 236 q 530 215 509 236 q 552 164 552 194 q 531 114 552 134 q 479 94 510 94 z "},"":{"ha":648,"x_min":30,"x_max":620,"o":"m 620 283 q 534 58 620 141 q 324 -26 448 -26 q 203 -1 263 -26 q 199 -11 202 -4 q 193 -20 195 -18 q 189 -28 191 -23 q 184 -36 186 -34 q 178 -41 182 -38 q 172 -45 175 -43 q 164 -46 168 -46 q 115 -27 115 -46 q 146 33 115 -26 q 62 138 94 73 q 30 283 30 203 q 119 511 30 423 q 330 600 208 600 q 448 575 385 600 q 484 635 476 629 q 495 637 488 637 q 544 614 544 637 q 506 538 544 604 q 591 427 562 495 q 620 283 620 359 m 328 42 q 469 112 414 42 q 525 278 525 182 q 463 461 525 387 l 240 65 q 328 42 281 42 m 320 534 q 195 475 252 534 q 137 290 137 415 q 190 113 137 180 l 410 507 q 320 534 368 534 z "},"":{"ha":701,"x_min":9,"x_max":677,"o":"m 499 46 q 488 39 498 46 q 460 21 477 31 q 422 1 444 11 q 369 -17 400 -9 q 305 -24 338 -24 q 163 28 220 -24 q 94 176 106 81 q 90 262 90 217 q 90 382 90 288 q 91 484 91 476 q 53 524 91 510 q 32 530 46 526 q 14 538 18 534 q 9 553 9 543 l 9 557 q 24 576 9 575 q 170 585 163 585 q 183 568 183 585 l 183 283 q 209 140 183 193 q 267 75 228 103 q 355 47 305 47 q 473 98 423 47 q 481 106 476 102 q 487 113 486 111 q 491 118 488 115 q 494 123 494 121 q 496 127 495 125 q 498 132 498 130 q 498 138 498 134 l 498 480 q 471 518 498 510 q 406 530 464 521 q 385 553 385 534 q 404 576 385 574 q 485 579 449 578 q 535 581 521 581 q 559 582 549 582 q 575 582 570 582 q 595 555 595 582 l 595 119 q 596 113 595 115 q 599 109 597 111 q 604 106 601 107 q 612 102 606 104 q 624 96 617 99 q 642 88 631 94 q 665 77 652 83 q 677 61 677 72 q 671 41 677 46 q 652 33 665 35 q 608 20 640 31 q 537 -14 575 8 q 522 -19 529 -19 q 503 8 503 -19 l 503 41 q 499 46 503 46 m 95 920 q 111 957 95 943 q 146 971 126 971 l 148 971 q 224 913 186 971 q 319 772 267 849 q 370 684 370 696 q 362 664 370 673 q 343 655 354 655 l 340 655 q 321 664 331 655 q 241 745 311 673 q 130 857 178 808 q 95 920 95 892 z "},"":{"ha":701,"x_min":9,"x_max":677,"o":"m 429 971 q 465 957 450 971 q 480 920 480 943 q 448 857 480 892 q 254 662 266 671 q 233 655 244 655 q 214 664 221 655 q 206 684 206 673 q 269 789 206 697 q 353 913 316 859 q 429 971 391 971 m 499 46 q 488 39 498 46 q 460 21 477 31 q 422 1 444 11 q 369 -17 400 -9 q 305 -24 338 -24 q 163 28 220 -24 q 94 176 106 81 q 90 262 90 217 q 90 382 90 288 q 91 484 91 476 q 53 524 91 510 q 32 530 46 526 q 14 538 18 534 q 9 553 9 543 l 9 557 q 24 576 9 575 q 170 585 163 585 q 183 568 183 585 l 183 283 q 209 140 183 193 q 267 75 228 103 q 355 47 305 47 q 473 98 423 47 q 481 106 476 102 q 487 113 486 111 q 491 118 488 115 q 494 123 494 121 q 496 127 495 125 q 498 132 498 130 q 498 138 498 134 l 498 480 q 471 518 498 510 q 406 530 464 521 q 385 553 385 534 q 404 576 385 574 q 485 579 449 578 q 535 581 521 581 q 559 582 549 582 q 575 582 570 582 q 595 555 595 582 l 595 119 q 596 113 595 115 q 599 109 597 111 q 604 106 601 107 q 612 102 606 104 q 624 96 617 99 q 642 88 631 94 q 665 77 652 83 q 677 61 677 72 q 671 41 677 46 q 652 33 665 35 q 608 20 640 31 q 537 -14 575 8 q 522 -19 529 -19 q 503 8 503 -19 l 503 41 q 499 46 503 46 z "},"":{"ha":701,"x_min":9,"x_max":677,"o":"m 237 654 q 223 659 231 654 q 216 675 216 665 q 250 783 216 684 q 302 921 285 882 q 343 962 320 962 q 383 922 365 962 q 439 772 401 883 q 467 692 457 722 q 471 677 471 680 q 463 659 471 665 q 449 654 456 654 q 414 686 433 654 q 351 789 358 785 q 345 791 349 791 q 328 780 335 791 q 289 716 320 769 q 270 684 277 696 q 237 654 251 654 m 499 46 q 488 39 498 46 q 460 21 477 31 q 422 1 444 11 q 369 -17 400 -9 q 305 -24 338 -24 q 163 28 220 -24 q 94 176 106 81 q 90 262 90 217 q 90 382 90 288 q 91 484 91 476 q 53 524 91 510 q 32 530 46 526 q 14 538 18 534 q 9 553 9 543 l 9 557 q 24 576 9 575 q 170 585 163 585 q 183 568 183 585 l 183 283 q 209 140 183 193 q 267 75 228 103 q 355 47 305 47 q 473 98 423 47 q 481 106 476 102 q 487 113 486 111 q 491 118 488 115 q 494 123 494 121 q 496 127 495 125 q 498 132 498 130 q 498 138 498 134 l 498 480 q 471 518 498 510 q 406 530 464 521 q 385 553 385 534 q 404 576 385 574 q 485 579 449 578 q 535 581 521 581 q 559 582 549 582 q 575 582 570 582 q 595 555 595 582 l 595 119 q 596 113 595 115 q 599 109 597 111 q 604 106 601 107 q 612 102 606 104 q 624 96 617 99 q 642 88 631 94 q 665 77 652 83 q 677 61 677 72 q 671 41 677 46 q 652 33 665 35 q 608 20 640 31 q 537 -14 575 8 q 522 -19 529 -19 q 503 8 503 -19 l 503 41 q 499 46 503 46 z "},"":{"ha":701,"x_min":9,"x_max":677,"o":"m 372 859 q 391 905 372 886 q 438 924 411 924 q 486 905 467 924 q 505 860 505 887 q 485 812 505 831 q 438 793 465 793 q 391 812 410 793 q 372 859 372 830 m 183 859 q 203 905 183 886 q 250 924 222 924 q 298 905 278 924 q 317 860 317 887 q 298 812 317 831 q 250 793 278 793 q 202 812 221 793 q 183 859 183 830 m 499 46 q 488 39 498 46 q 460 21 477 31 q 422 1 444 11 q 369 -17 400 -9 q 305 -24 338 -24 q 163 28 220 -24 q 94 176 106 81 q 90 262 90 217 q 90 382 90 288 q 91 484 91 476 q 53 524 91 510 q 32 530 46 526 q 14 538 18 534 q 9 553 9 543 l 9 557 q 24 576 9 575 q 170 585 163 585 q 183 568 183 585 l 183 283 q 209 140 183 193 q 267 75 228 103 q 355 47 305 47 q 473 98 423 47 q 481 106 476 102 q 487 113 486 111 q 491 118 488 115 q 494 123 494 121 q 496 127 495 125 q 498 132 498 130 q 498 138 498 134 l 498 480 q 471 518 498 510 q 406 530 464 521 q 385 553 385 534 q 404 576 385 574 q 485 579 449 578 q 535 581 521 581 q 559 582 549 582 q 575 582 570 582 q 595 555 595 582 l 595 119 q 596 113 595 115 q 599 109 597 111 q 604 106 601 107 q 612 102 606 104 q 624 96 617 99 q 642 88 631 94 q 665 77 652 83 q 677 61 677 72 q 671 41 677 46 q 652 33 665 35 q 608 20 640 31 q 537 -14 575 8 q 522 -19 529 -19 q 503 8 503 -19 l 503 41 q 499 46 503 46 z "},"":{"ha":650,"x_min":5,"x_max":643,"o":"m 410 971 q 446 957 431 971 q 461 920 461 943 q 429 857 461 892 q 235 662 247 671 q 214 655 225 655 q 195 664 202 655 q 187 684 187 673 q 250 789 187 697 q 334 913 297 859 q 410 971 372 971 m 127 -309 q 89 -294 104 -309 q 73 -259 73 -279 q 91 -216 73 -235 q 143 -176 109 -198 q 195 -138 178 -155 q 257 -59 225 -111 q 289 20 289 -7 q 134 365 289 56 q 58 507 71 490 q 36 522 50 519 q 14 528 22 524 q 5 553 5 533 q 24 576 5 576 q 41 576 27 576 q 79 574 54 575 q 133 572 104 572 q 186 574 161 572 q 226 576 212 575 q 243 576 240 576 q 262 555 262 576 q 261 546 262 549 q 260 540 260 543 q 258 535 260 537 q 256 531 256 533 q 252 528 255 529 q 247 527 248 528 q 240 526 245 526 q 232 524 235 525 q 222 523 229 524 q 210 522 214 522 q 189 503 189 519 q 205 451 189 496 q 260 324 222 406 q 340 161 297 243 q 350 153 340 153 q 357 156 354 153 q 361 162 359 159 q 363 167 362 165 q 477 494 477 439 q 475 507 477 502 q 471 516 473 513 q 461 521 468 519 q 449 523 454 522 q 431 524 444 524 q 411 525 419 524 q 385 552 385 528 q 411 576 385 576 q 427 576 414 576 q 466 574 441 575 q 519 572 491 572 l 521 572 q 573 574 549 572 q 610 576 597 575 q 627 576 624 576 q 643 548 643 576 q 635 530 643 533 q 589 522 627 526 q 570 513 575 521 q 549 461 566 505 q 479 277 517 369 q 231 -224 345 -52 q 127 -309 175 -309 z "},"":{"ha":650,"x_min":5,"x_max":643,"o":"m 354 859 q 374 905 354 886 q 420 924 393 924 q 468 905 449 924 q 487 860 487 887 q 467 812 487 831 q 420 793 448 793 q 373 812 392 793 q 354 859 354 830 m 165 859 q 185 905 165 886 q 232 924 205 924 q 280 905 260 924 q 300 860 300 887 q 280 812 300 831 q 232 793 260 793 q 184 812 203 793 q 165 859 165 830 m 127 -309 q 89 -294 104 -309 q 73 -259 73 -279 q 91 -216 73 -235 q 143 -176 109 -198 q 195 -138 178 -155 q 257 -59 225 -111 q 289 20 289 -7 q 134 365 289 56 q 58 507 71 490 q 36 522 50 519 q 14 528 22 524 q 5 553 5 533 q 24 576 5 576 q 41 576 27 576 q 79 574 54 575 q 133 572 104 572 q 186 574 161 572 q 226 576 212 575 q 243 576 240 576 q 262 555 262 576 q 261 546 262 549 q 260 540 260 543 q 258 535 260 537 q 256 531 256 533 q 252 528 255 529 q 247 527 248 528 q 240 526 245 526 q 232 524 235 525 q 222 523 229 524 q 210 522 214 522 q 189 503 189 519 q 205 451 189 496 q 260 324 222 406 q 340 161 297 243 q 350 153 340 153 q 357 156 354 153 q 361 162 359 159 q 363 167 362 165 q 477 494 477 439 q 475 507 477 502 q 471 516 473 513 q 461 521 468 519 q 449 523 454 522 q 431 524 444 524 q 411 525 419 524 q 385 552 385 528 q 411 576 385 576 q 427 576 414 576 q 466 574 441 575 q 519 572 491 572 l 521 572 q 573 574 549 572 q 610 576 597 575 q 627 576 624 576 q 643 548 643 576 q 635 530 643 533 q 589 522 627 526 q 570 513 575 521 q 549 461 566 505 q 479 277 517 369 q 231 -224 345 -52 q 127 -309 175 -309 z "},"":{"ha":1139,"x_min":12,"x_max":1135,"o":"m 536 1139 q 556 1127 536 1139 q 616 1115 575 1115 q 695 1139 656 1115 q 758 1186 734 1162 q 785 1210 781 1210 q 808 1200 796 1210 q 819 1179 819 1190 q 795 1136 819 1172 q 720 1062 770 1100 q 618 1024 670 1024 l 613 1024 q 511 1062 562 1024 q 437 1136 461 1100 q 412 1179 412 1172 q 423 1199 412 1188 q 446 1210 434 1210 q 474 1186 450 1210 q 536 1139 498 1162 m 190 0 q 144 -1 167 0 q 103 -3 121 -1 q 72 -5 85 -4 q 50 -7 58 -7 q 41 -8 42 -8 q 12 20 12 -8 q 13 32 12 27 q 16 41 14 37 q 19 47 18 45 q 25 52 20 50 q 31 55 30 54 q 40 57 33 56 q 50 59 47 58 q 62 61 52 60 q 75 62 72 62 q 123 79 107 66 q 155 129 140 92 q 366 574 252 347 q 574 963 567 954 q 582 970 576 966 q 616 981 597 981 q 674 928 652 981 l 873 467 q 1028 95 1025 99 q 1068 66 1043 73 q 1112 57 1093 60 q 1133 41 1130 54 q 1135 22 1135 30 q 1107 -8 1135 -8 l 1084 -5 q 1022 -2 1061 -4 q 947 0 983 0 q 865 -2 902 0 q 808 -6 829 -4 q 783 -8 787 -8 q 754 15 754 -8 q 755 27 754 22 q 758 37 755 33 q 760 45 760 42 q 766 50 761 47 q 774 54 772 53 q 785 56 777 54 q 798 58 793 57 q 815 60 803 58 q 836 62 827 61 q 864 90 864 68 q 831 214 864 110 q 760 403 798 317 q 735 416 754 416 l 408 416 q 377 400 387 416 q 292 218 330 312 q 255 100 255 123 q 271 68 255 76 q 326 57 286 61 q 343 56 338 57 q 373 22 373 53 q 343 -8 373 -8 q 319 -6 339 -8 q 265 -2 300 -4 q 190 0 231 0 m 707 488 q 719 499 719 488 q 665 635 719 510 q 597 785 612 760 q 582 795 591 795 q 556 770 570 795 q 414 495 414 502 q 422 488 414 488 l 707 488 z "},"":{"ha":587,"x_min":41,"x_max":579,"o":"m 85 868 q 117 882 85 882 q 130 876 126 882 q 136 861 134 871 q 144 834 137 852 q 165 799 152 817 q 248 751 203 751 l 250 751 q 288 760 269 751 q 319 780 307 768 q 344 808 332 792 q 362 836 355 823 q 374 860 369 848 l 380 871 q 397 880 387 880 q 422 871 422 880 q 412 832 422 863 q 385 761 403 802 q 328 689 366 720 q 243 658 290 658 q 85 864 119 658 l 85 868 m 41 479 q 106 561 41 519 q 254 602 172 602 q 307 597 279 602 q 368 578 334 591 q 427 531 403 564 q 456 450 450 498 q 458 400 458 418 l 458 126 q 468 87 458 102 q 487 68 477 72 q 506 65 496 65 q 536 77 525 65 q 553 100 547 88 q 567 111 559 111 q 579 94 579 111 q 549 22 579 61 q 472 -16 519 -16 q 438 -11 454 -16 q 411 3 422 -5 q 391 20 400 12 q 377 35 382 28 l 373 41 q 372 41 372 41 q 370 42 372 42 q 366 39 368 42 q 357 28 365 37 q 334 11 349 20 q 205 -27 273 -27 q 90 18 134 -27 q 46 127 46 62 l 46 129 q 104 252 46 208 q 157 281 125 269 q 222 301 190 294 q 282 313 254 308 q 330 319 311 317 l 349 320 q 359 339 359 323 l 359 389 q 327 500 359 461 q 245 537 293 537 q 126 445 172 537 q 96 429 114 429 q 58 442 75 429 q 41 479 41 456 m 237 49 q 296 62 269 49 q 335 87 324 76 q 353 106 346 98 q 361 137 361 117 l 361 171 l 361 228 q 359 261 361 254 q 347 269 357 269 q 262 258 313 269 q 182 218 212 247 q 149 142 149 191 q 178 66 149 91 q 237 49 197 49 z "},"":{"ha":971,"x_min":26,"x_max":956,"o":"m 673 1246 q 712 1232 696 1246 q 728 1196 728 1218 q 727 1185 728 1191 q 724 1175 726 1179 q 720 1166 723 1171 q 713 1158 716 1161 q 707 1152 711 1156 q 700 1147 703 1149 q 692 1142 697 1145 q 684 1138 686 1139 q 677 1134 682 1137 q 671 1131 673 1131 q 412 1012 420 1012 q 393 1019 401 1012 q 384 1039 384 1027 q 411 1076 384 1058 l 602 1214 q 673 1246 644 1246 m 160 491 q 274 169 160 300 q 551 38 388 38 q 774 113 673 38 q 913 311 875 187 q 933 330 920 330 q 956 313 956 330 q 921 88 925 98 q 890 65 914 65 l 888 65 l 850 65 q 827 62 834 65 q 806 50 819 60 q 785 37 793 41 q 528 -34 663 -34 q 339 4 431 -34 q 176 110 247 42 q 66 273 106 179 q 26 465 26 366 q 68 662 26 567 q 180 825 110 757 q 534 967 330 967 l 536 967 q 673 949 610 967 q 771 911 736 930 q 808 892 806 892 q 827 916 819 892 q 849 943 836 939 q 857 943 852 943 q 864 944 863 944 q 882 928 879 944 l 891 857 q 910 712 901 785 q 920 633 920 639 q 891 610 920 610 q 861 619 865 610 q 852 675 857 628 q 815 766 845 727 q 694 865 768 826 q 532 903 621 903 q 271 789 381 903 q 160 491 160 675 z "},"":{"ha":529,"x_min":23,"x_max":528,"o":"m 362 971 q 399 957 384 971 q 414 920 414 943 q 381 857 414 892 q 187 662 199 671 q 167 655 178 655 q 147 664 155 655 q 140 684 140 673 q 202 789 140 697 q 286 913 250 859 q 362 971 324 971 m 290 -24 q 97 60 171 -24 q 23 274 23 144 q 106 505 23 416 q 321 594 189 594 q 446 563 395 594 q 498 491 498 532 q 481 454 498 468 q 442 439 465 439 q 364 481 412 439 q 274 522 316 522 q 163 458 210 522 q 115 308 115 395 q 178 136 115 209 q 335 64 241 64 q 402 75 372 64 q 448 101 433 87 q 479 127 464 115 q 505 138 495 138 q 521 132 514 138 q 528 115 528 125 q 519 94 528 104 q 423 9 483 43 q 290 -24 363 -24 z "},"":{"ha":971,"x_min":26,"x_max":956,"o":"m 388 1012 q 372 1019 377 1012 q 366 1031 366 1025 q 416 1103 366 1040 q 486 1188 456 1152 q 538 1221 510 1221 q 574 1202 556 1221 q 703 1039 701 1044 q 704 1032 704 1036 q 699 1019 704 1025 q 682 1012 693 1012 q 646 1031 665 1012 q 623 1050 635 1040 q 603 1067 610 1061 q 587 1080 595 1073 q 574 1090 579 1086 q 564 1099 570 1095 q 555 1105 559 1103 q 549 1108 552 1107 q 542 1110 545 1109 q 536 1111 538 1111 q 460 1061 517 1111 q 388 1012 404 1012 m 160 491 q 274 169 160 300 q 551 38 388 38 q 774 113 673 38 q 913 311 875 187 q 933 330 920 330 q 956 313 956 330 q 921 88 925 98 q 890 65 914 65 l 888 65 l 850 65 q 827 62 834 65 q 806 50 819 60 q 785 37 793 41 q 528 -34 663 -34 q 339 4 431 -34 q 176 110 247 42 q 66 273 106 179 q 26 465 26 366 q 68 662 26 567 q 180 825 110 757 q 534 967 330 967 l 536 967 q 673 949 610 967 q 771 911 736 930 q 808 892 806 892 q 827 916 819 892 q 849 943 836 939 q 857 943 852 943 q 864 944 863 944 q 882 928 879 944 l 891 857 q 910 712 901 785 q 920 633 920 639 q 891 610 920 610 q 861 619 865 610 q 852 675 857 628 q 815 766 845 727 q 694 865 768 826 q 532 903 621 903 q 271 789 381 903 q 160 491 160 675 z "},"":{"ha":529,"x_min":23,"x_max":528,"o":"m 171 654 q 157 659 164 654 q 149 675 149 665 q 184 783 149 684 q 236 921 218 882 q 277 962 254 962 q 317 922 298 962 q 373 772 335 883 q 400 692 391 722 q 404 677 404 680 q 397 659 404 665 q 382 654 389 654 q 347 686 366 654 q 285 789 292 785 q 278 791 282 791 q 261 780 269 791 q 222 716 254 769 q 203 684 210 696 q 171 654 184 654 m 290 -24 q 97 60 171 -24 q 23 274 23 144 q 106 505 23 416 q 321 594 189 594 q 446 563 395 594 q 498 491 498 532 q 481 454 498 468 q 442 439 465 439 q 364 481 412 439 q 274 522 316 522 q 163 458 210 522 q 115 308 115 395 q 178 136 115 209 q 335 64 241 64 q 402 75 372 64 q 448 101 433 87 q 479 127 464 115 q 505 138 495 138 q 521 132 514 138 q 528 115 528 125 q 519 94 528 104 q 423 9 483 43 q 290 -24 363 -24 z "},"":{"ha":971,"x_min":26,"x_max":956,"o":"m 479 1076 q 468 1087 479 1076 q 456 1131 456 1099 q 480 1187 456 1164 q 537 1210 505 1210 q 594 1187 571 1210 q 617 1133 617 1165 q 593 1077 617 1100 q 537 1054 570 1054 q 479 1076 503 1054 m 160 491 q 274 169 160 300 q 551 38 388 38 q 774 113 673 38 q 913 311 875 187 q 933 330 920 330 q 956 313 956 330 q 921 88 925 98 q 890 65 914 65 l 888 65 l 850 65 q 827 62 834 65 q 806 50 819 60 q 785 37 793 41 q 528 -34 663 -34 q 339 4 431 -34 q 176 110 247 42 q 66 273 106 179 q 26 465 26 366 q 68 662 26 567 q 180 825 110 757 q 534 967 330 967 l 536 967 q 673 949 610 967 q 771 911 736 930 q 808 892 806 892 q 827 916 819 892 q 849 943 836 939 q 857 943 852 943 q 864 944 863 944 q 882 928 879 944 l 891 857 q 910 712 901 785 q 920 633 920 639 q 891 610 920 610 q 861 619 865 610 q 852 675 857 628 q 815 766 845 727 q 694 865 768 826 q 532 903 621 903 q 271 789 381 903 q 160 491 160 675 z "},"":{"ha":529,"x_min":23,"x_max":528,"o":"m 245 677 q 233 689 245 677 q 221 732 221 700 q 245 788 221 765 q 302 811 270 811 q 359 789 336 811 q 382 734 382 766 q 359 678 382 701 q 302 655 335 655 q 245 677 269 655 m 290 -24 q 97 60 171 -24 q 23 274 23 144 q 106 505 23 416 q 321 594 189 594 q 446 563 395 594 q 498 491 498 532 q 481 454 498 468 q 442 439 465 439 q 364 481 412 439 q 274 522 316 522 q 163 458 210 522 q 115 308 115 395 q 178 136 115 209 q 335 64 241 64 q 402 75 372 64 q 448 101 433 87 q 479 127 464 115 q 505 138 495 138 q 521 132 514 138 q 528 115 528 125 q 519 94 528 104 q 423 9 483 43 q 290 -24 363 -24 z "},"":{"ha":971,"x_min":26,"x_max":956,"o":"m 689 1221 q 703 1215 697 1221 q 709 1202 709 1210 q 659 1130 709 1192 q 590 1044 620 1081 q 537 1012 566 1012 q 503 1031 521 1012 q 416 1138 464 1081 q 372 1200 372 1192 q 378 1214 372 1207 q 395 1221 384 1221 q 430 1202 411 1221 q 453 1182 441 1192 q 472 1166 465 1172 q 487 1152 479 1160 q 500 1141 495 1145 q 511 1133 505 1138 q 520 1127 517 1128 q 527 1124 524 1126 q 534 1121 530 1122 q 540 1120 537 1120 q 616 1171 559 1120 q 689 1221 673 1221 m 160 491 q 274 169 160 300 q 551 38 388 38 q 774 113 673 38 q 913 311 875 187 q 933 330 920 330 q 956 313 956 330 q 921 88 925 98 q 890 65 914 65 l 888 65 l 850 65 q 827 62 834 65 q 806 50 819 60 q 785 37 793 41 q 528 -34 663 -34 q 339 4 431 -34 q 176 110 247 42 q 66 273 106 179 q 26 465 26 366 q 68 662 26 567 q 180 825 110 757 q 534 967 330 967 l 536 967 q 673 949 610 967 q 771 911 736 930 q 808 892 806 892 q 827 916 819 892 q 849 943 836 939 q 857 943 852 943 q 864 944 863 944 q 882 928 879 944 l 891 857 q 910 712 901 785 q 920 633 920 639 q 891 610 920 610 q 861 619 865 610 q 852 675 857 628 q 815 766 845 727 q 694 865 768 826 q 532 903 621 903 q 271 789 381 903 q 160 491 160 675 z "},"":{"ha":529,"x_min":23,"x_max":528,"o":"m 408 962 q 422 956 415 962 q 430 940 430 951 q 395 832 430 932 q 343 694 361 732 q 304 654 326 654 q 262 694 281 654 q 203 853 244 734 q 179 924 187 898 q 175 939 175 936 q 182 956 175 949 q 197 962 190 962 q 232 929 213 962 q 254 891 240 914 q 277 851 267 868 q 288 833 288 834 q 302 825 294 825 q 349 884 315 825 q 376 930 365 913 q 408 962 393 962 m 290 -24 q 97 60 171 -24 q 23 274 23 144 q 106 505 23 416 q 321 594 189 594 q 446 563 395 594 q 498 491 498 532 q 481 454 498 468 q 442 439 465 439 q 364 481 412 439 q 274 522 316 522 q 163 458 210 522 q 115 308 115 395 q 178 136 115 209 q 335 64 241 64 q 402 75 372 64 q 448 101 433 87 q 479 127 464 115 q 505 138 495 138 q 521 132 514 138 q 528 115 528 125 q 519 94 528 104 q 423 9 483 43 q 290 -24 363 -24 z "},"":{"ha":985,"x_min":14,"x_max":966,"o":"m 637 1221 q 652 1215 646 1221 q 658 1202 658 1210 q 608 1130 658 1192 q 538 1044 568 1081 q 486 1012 514 1012 q 452 1031 469 1012 q 365 1138 412 1081 q 320 1200 320 1192 q 326 1214 320 1207 q 343 1221 332 1221 q 378 1202 359 1221 q 401 1182 389 1192 q 420 1166 414 1172 q 435 1152 427 1160 q 448 1141 444 1145 q 459 1133 453 1138 q 469 1127 465 1128 q 475 1124 472 1126 q 482 1121 479 1122 q 488 1120 486 1120 q 564 1171 507 1120 q 637 1221 621 1221 m 416 66 q 704 166 582 66 q 826 439 826 266 q 783 638 826 543 q 659 793 739 734 q 370 879 541 879 q 295 871 312 879 q 278 836 278 863 l 278 129 q 289 92 278 103 q 328 75 300 80 q 416 66 373 66 m 15 909 q 46 937 15 937 l 298 937 q 701 876 570 937 q 890 719 814 823 q 966 476 966 614 q 844 170 966 301 q 563 8 722 38 q 439 0 514 0 l 46 0 q 14 39 14 0 q 15 52 14 47 q 21 60 16 57 q 31 66 26 64 q 45 68 35 68 q 64 70 56 69 q 88 71 72 71 q 117 72 104 71 q 147 85 140 73 q 155 122 155 96 l 155 825 q 136 867 155 859 q 64 876 118 875 q 41 876 49 876 q 15 909 15 876 z "},"":{"ha":1019,"x_min":23,"x_max":974,"o":"m 331 532 q 172 469 228 532 q 117 300 117 407 q 195 113 117 182 q 358 43 274 43 q 440 60 400 43 q 488 103 480 77 q 494 134 494 125 l 494 446 q 479 479 494 464 q 331 532 422 532 m 334 587 q 410 583 374 587 q 464 572 445 578 l 483 567 q 494 579 494 567 l 494 812 q 493 820 494 817 q 492 826 492 823 q 489 831 491 829 q 486 836 487 834 q 479 840 484 837 q 471 844 475 842 q 460 849 468 846 q 447 854 453 852 q 430 861 441 857 q 410 869 419 865 q 384 891 384 876 q 396 907 384 899 q 575 991 570 991 q 591 972 591 991 q 590 901 591 959 q 588 743 589 844 q 587 522 587 642 q 591 114 587 151 q 592 108 591 110 q 594 104 593 106 q 597 100 595 102 q 603 98 600 99 q 609 97 606 98 q 618 96 612 96 q 629 96 624 96 q 642 96 633 96 q 656 95 650 95 q 684 75 684 95 q 676 60 684 65 q 645 44 669 54 q 601 22 621 34 q 552 -9 574 7 q 521 -32 530 -24 q 506 -39 511 -39 q 495 -24 495 -39 l 495 20 q 491 24 495 24 l 483 19 q 463 5 476 14 q 431 -11 449 -3 q 385 -24 412 -19 q 327 -30 357 -30 q 108 62 193 -30 q 23 288 23 153 q 101 498 23 408 q 332 587 179 587 l 334 587 m 850 1001 q 937 955 901 1001 q 974 842 974 909 q 920 709 974 761 q 833 658 867 658 q 807 682 807 658 q 814 699 807 693 q 838 715 822 705 q 867 736 854 726 q 902 802 902 769 q 887 838 902 826 q 853 852 872 850 q 811 863 834 854 q 777 888 788 872 q 766 925 766 903 q 791 979 766 958 q 850 1001 817 1001 z "},"":{"ha":802,"x_min":12,"x_max":780,"o":"m 318 1139 q 337 1127 318 1139 q 397 1115 357 1115 q 477 1139 438 1115 q 539 1186 515 1162 q 567 1210 563 1210 q 589 1200 578 1210 q 601 1179 601 1190 q 576 1136 601 1172 q 502 1062 552 1100 q 400 1024 452 1024 l 395 1024 q 293 1062 343 1024 q 218 1136 243 1100 q 194 1179 194 1172 q 205 1199 194 1188 q 228 1210 216 1210 q 256 1186 232 1210 q 318 1139 279 1162 m 605 712 q 644 673 644 712 l 644 416 q 605 377 644 377 q 568 407 568 377 l 568 481 q 532 513 568 513 l 340 513 q 316 511 326 513 q 295 505 307 510 q 278 488 283 500 q 273 457 273 476 l 273 138 q 275 115 273 123 q 287 97 277 106 q 316 85 297 88 q 446 76 377 76 q 560 84 492 76 q 646 106 628 92 q 694 181 658 115 q 742 254 731 247 q 755 258 750 258 q 772 250 765 258 q 780 227 780 241 l 780 225 q 738 27 780 213 q 726 5 735 11 q 696 0 718 0 l 218 0 q 102 -8 156 0 q 46 -16 49 -16 q 21 -1 30 -16 q 12 24 12 15 q 23 46 12 39 q 77 69 34 53 q 118 84 102 79 q 149 138 149 95 l 149 863 q 142 882 149 878 q 111 890 136 886 q 81 892 99 891 q 55 895 64 894 q 37 900 46 897 q 23 910 27 903 q 19 929 19 917 q 46 960 19 960 l 685 960 q 715 937 708 960 q 730 865 720 911 q 748 787 741 819 q 755 753 755 755 q 727 732 755 732 q 688 757 705 732 q 618 873 627 864 q 579 886 606 886 l 317 886 q 283 872 290 886 q 275 833 275 859 l 275 624 q 302 593 275 593 l 515 593 q 540 595 530 593 q 559 608 549 597 q 568 639 568 618 l 568 682 q 605 712 568 712 z "},"":{"ha":567,"x_min":31,"x_max":555,"o":"m 123 865 q 155 879 123 879 q 168 873 164 879 q 174 859 172 868 q 182 831 175 849 q 203 796 190 814 q 286 749 241 749 l 288 749 q 326 757 307 749 q 357 777 345 765 q 382 805 370 789 q 400 833 393 821 q 412 857 407 845 l 418 868 q 435 878 425 878 q 460 868 460 878 q 450 829 460 860 q 422 758 441 799 q 366 686 404 718 q 281 655 328 655 q 123 861 157 655 l 123 865 m 31 286 q 106 513 31 427 q 288 598 180 598 q 420 560 357 598 q 526 465 484 522 q 537 435 537 452 l 537 433 q 530 411 537 420 q 509 394 524 401 q 483 382 494 387 q 451 372 472 378 q 425 363 430 365 q 134 262 141 266 q 129 254 129 259 q 133 227 129 245 q 151 176 137 208 q 186 119 165 145 q 247 73 208 92 q 335 53 286 53 q 500 121 430 53 q 532 140 519 140 q 555 119 555 140 q 544 98 555 111 q 435 7 500 41 q 298 -26 370 -26 q 208 -9 252 -26 q 123 41 164 7 q 56 138 81 75 q 31 286 31 202 m 403 430 q 355 485 403 448 q 256 522 308 522 q 159 469 195 522 q 123 324 123 416 q 130 313 123 313 q 260 363 133 313 q 391 414 387 412 q 403 430 403 420 z "},"":{"ha":802,"x_min":12,"x_max":780,"o":"m 340 1076 q 328 1087 340 1076 q 316 1131 316 1099 q 340 1187 316 1164 q 397 1210 365 1210 q 454 1187 431 1210 q 477 1133 477 1165 q 454 1077 477 1100 q 397 1054 430 1054 q 340 1076 363 1054 m 605 712 q 644 673 644 712 l 644 416 q 605 377 644 377 q 568 407 568 377 l 568 481 q 532 513 568 513 l 340 513 q 316 511 326 513 q 295 505 307 510 q 278 488 283 500 q 273 457 273 476 l 273 138 q 275 115 273 123 q 287 97 277 106 q 316 85 297 88 q 446 76 377 76 q 560 84 492 76 q 646 106 628 92 q 694 181 658 115 q 742 254 731 247 q 755 258 750 258 q 772 250 765 258 q 780 227 780 241 l 780 225 q 738 27 780 213 q 726 5 735 11 q 696 0 718 0 l 218 0 q 102 -8 156 0 q 46 -16 49 -16 q 21 -1 30 -16 q 12 24 12 15 q 23 46 12 39 q 77 69 34 53 q 118 84 102 79 q 149 138 149 95 l 149 863 q 142 882 149 878 q 111 890 136 886 q 81 892 99 891 q 55 895 64 894 q 37 900 46 897 q 23 910 27 903 q 19 929 19 917 q 46 960 19 960 l 685 960 q 715 937 708 960 q 730 865 720 911 q 748 787 741 819 q 755 753 755 755 q 727 732 755 732 q 688 757 705 732 q 618 873 627 864 q 579 886 606 886 l 317 886 q 283 872 290 886 q 275 833 275 859 l 275 624 q 302 593 275 593 l 515 593 q 540 595 530 593 q 559 608 549 597 q 568 639 568 618 l 568 682 q 605 712 568 712 z "},"":{"ha":567,"x_min":31,"x_max":555,"o":"m 208 677 q 196 689 208 677 q 184 732 184 700 q 209 788 184 765 q 266 811 233 811 q 323 789 300 811 q 346 734 346 766 q 322 678 346 701 q 266 655 298 655 q 208 677 232 655 m 31 286 q 106 513 31 427 q 288 598 180 598 q 420 560 357 598 q 526 465 484 522 q 537 435 537 452 l 537 433 q 530 411 537 420 q 509 394 524 401 q 483 382 494 387 q 451 372 472 378 q 425 363 430 365 q 134 262 141 266 q 129 254 129 259 q 133 227 129 245 q 151 176 137 208 q 186 119 165 145 q 247 73 208 92 q 335 53 286 53 q 500 121 430 53 q 532 140 519 140 q 555 119 555 140 q 544 98 555 111 q 435 7 500 41 q 298 -26 370 -26 q 208 -9 252 -26 q 123 41 164 7 q 56 138 81 75 q 31 286 31 202 m 403 430 q 355 485 403 448 q 256 522 308 522 q 159 469 195 522 q 123 324 123 416 q 130 313 123 313 q 260 363 133 313 q 391 414 387 412 q 403 430 403 420 z "},"":{"ha":802,"x_min":12,"x_max":780,"o":"m 545 1221 q 559 1215 553 1221 q 566 1202 566 1210 q 515 1130 566 1192 q 446 1044 476 1081 q 393 1012 422 1012 q 359 1031 377 1012 q 273 1138 320 1081 q 228 1200 228 1192 q 234 1214 228 1207 q 251 1221 240 1221 q 286 1202 267 1221 q 309 1182 297 1192 q 328 1166 321 1172 q 343 1152 335 1160 q 356 1141 351 1145 q 367 1133 361 1138 q 376 1127 373 1128 q 383 1124 380 1126 q 390 1121 387 1122 q 396 1120 393 1120 q 472 1171 415 1120 q 545 1221 529 1221 m 605 712 q 644 673 644 712 l 644 416 q 605 377 644 377 q 568 407 568 377 l 568 481 q 532 513 568 513 l 340 513 q 316 511 326 513 q 295 505 307 510 q 278 488 283 500 q 273 457 273 476 l 273 138 q 275 115 273 123 q 287 97 277 106 q 316 85 297 88 q 446 76 377 76 q 560 84 492 76 q 646 106 628 92 q 694 181 658 115 q 742 254 731 247 q 755 258 750 258 q 772 250 765 258 q 780 227 780 241 l 780 225 q 738 27 780 213 q 726 5 735 11 q 696 0 718 0 l 218 0 q 102 -8 156 0 q 46 -16 49 -16 q 21 -1 30 -16 q 12 24 12 15 q 23 46 12 39 q 77 69 34 53 q 118 84 102 79 q 149 138 149 95 l 149 863 q 142 882 149 878 q 111 890 136 886 q 81 892 99 891 q 55 895 64 894 q 37 900 46 897 q 23 910 27 903 q 19 929 19 917 q 46 960 19 960 l 685 960 q 715 937 708 960 q 730 865 720 911 q 748 787 741 819 q 755 753 755 755 q 727 732 755 732 q 688 757 705 732 q 618 873 627 864 q 579 886 606 886 l 317 886 q 283 872 290 886 q 275 833 275 859 l 275 624 q 302 593 275 593 l 515 593 q 540 595 530 593 q 559 608 549 597 q 568 639 568 618 l 568 682 q 605 712 568 712 z "},"":{"ha":567,"x_min":31,"x_max":555,"o":"m 393 962 q 408 956 400 962 q 415 940 415 951 q 380 832 415 932 q 328 694 346 732 q 289 654 311 654 q 248 694 266 654 q 189 853 229 734 q 164 924 172 898 q 160 939 160 936 q 168 956 160 949 q 182 962 175 962 q 217 929 198 962 q 239 891 225 914 q 262 851 252 868 q 273 833 273 834 q 288 825 279 825 q 334 884 300 825 q 361 930 350 913 q 393 962 378 962 m 31 286 q 106 513 31 427 q 288 598 180 598 q 420 560 357 598 q 526 465 484 522 q 537 435 537 452 l 537 433 q 530 411 537 420 q 509 394 524 401 q 483 382 494 387 q 451 372 472 378 q 425 363 430 365 q 134 262 141 266 q 129 254 129 259 q 133 227 129 245 q 151 176 137 208 q 186 119 165 145 q 247 73 208 92 q 335 53 286 53 q 500 121 430 53 q 532 140 519 140 q 555 119 555 140 q 544 98 555 111 q 435 7 500 41 q 298 -26 370 -26 q 208 -9 252 -26 q 123 41 164 7 q 56 138 81 75 q 31 286 31 202 m 403 430 q 355 485 403 448 q 256 522 308 522 q 159 469 195 522 q 123 324 123 416 q 130 313 123 313 q 260 363 133 313 q 391 414 387 412 q 403 430 403 420 z "},"":{"ha":959,"x_min":22,"x_max":948,"o":"m 338 1012 q 321 1019 327 1012 q 316 1031 316 1025 q 366 1103 316 1040 q 435 1188 406 1152 q 488 1221 460 1221 q 524 1202 506 1221 q 652 1039 651 1044 q 654 1032 654 1036 q 648 1019 654 1025 q 632 1012 643 1012 q 595 1031 614 1012 q 572 1050 585 1040 q 553 1067 560 1061 q 537 1080 545 1073 q 524 1090 529 1086 q 514 1099 519 1095 q 505 1105 509 1103 q 498 1108 502 1107 q 492 1110 495 1109 q 486 1111 488 1111 q 410 1061 467 1111 q 338 1012 354 1012 m 509 -34 q 167 120 312 -34 q 22 491 22 274 q 158 840 22 700 q 488 981 294 981 q 600 967 545 981 q 686 937 654 954 q 743 905 718 921 q 770 890 768 890 l 776 890 q 812 916 791 890 q 837 944 833 943 q 854 948 844 948 q 873 929 873 948 l 873 891 q 875 811 873 852 q 879 741 876 770 q 884 687 882 711 q 887 650 886 663 q 888 635 888 636 q 849 613 888 613 q 826 626 830 613 q 812 676 822 639 q 773 753 802 713 q 640 869 720 825 q 472 914 560 914 q 364 892 416 914 q 265 826 312 871 q 190 699 218 781 q 161 510 161 617 q 197 283 161 380 q 290 137 232 187 q 406 64 347 87 q 524 41 464 41 q 671 73 602 41 q 753 130 741 106 q 757 155 757 138 l 757 311 q 739 346 757 338 q 666 358 722 354 q 627 361 642 359 q 587 393 587 363 q 618 425 587 425 q 641 423 623 425 q 691 420 659 422 q 761 419 723 419 l 764 419 q 837 420 803 419 q 890 423 871 422 q 913 425 909 425 q 939 416 930 425 q 948 396 948 407 q 913 361 948 373 q 875 332 879 349 q 873 317 873 328 l 873 83 q 854 56 873 56 q 832 70 846 56 q 812 84 818 84 q 793 73 804 84 q 509 -34 671 -34 z "},"":{"ha":610,"x_min":31,"x_max":598,"o":"m 164 665 q 150 670 157 665 q 142 686 142 675 q 177 793 142 694 q 229 932 212 892 q 270 972 247 972 q 310 933 292 972 q 366 783 328 894 q 393 703 384 732 q 397 688 397 690 q 390 670 397 675 q 376 665 382 665 q 340 697 359 665 q 278 800 285 796 q 271 802 275 802 q 254 791 262 802 q 216 727 247 780 q 197 694 203 707 q 164 665 178 665 m 259 555 q 172 512 206 555 q 138 401 138 469 q 179 263 138 321 q 282 205 220 205 q 372 249 338 205 q 406 358 406 293 q 364 495 406 435 q 259 555 323 555 m 115 -122 q 180 -221 115 -183 q 342 -259 244 -259 q 478 -229 438 -259 q 518 -159 518 -198 q 463 -76 518 -102 q 396 -56 434 -61 q 290 -50 358 -52 q 170 -42 221 -47 l 165 -42 q 141 -57 156 -42 q 115 -122 115 -83 m 31 385 q 96 537 31 473 q 255 601 160 601 q 368 576 313 601 q 430 552 423 552 q 503 595 473 552 q 543 628 524 628 q 578 610 562 628 q 595 571 595 591 q 574 529 595 547 q 526 500 553 511 q 496 487 498 488 q 490 476 490 480 q 494 463 490 473 q 502 432 498 452 q 506 389 506 412 q 439 224 506 293 q 275 156 372 156 q 224 162 248 156 q 194 168 199 168 q 153 144 175 168 q 132 98 132 121 q 191 49 132 61 q 341 34 250 37 q 472 19 433 31 q 566 -41 534 1 q 598 -134 598 -84 q 585 -197 598 -165 q 541 -258 571 -228 q 450 -307 510 -288 q 309 -326 391 -326 q 98 -271 159 -326 q 38 -151 38 -216 q 41 -124 38 -137 q 47 -101 43 -111 q 56 -82 52 -91 q 67 -66 61 -73 q 79 -53 73 -58 q 91 -43 85 -47 q 100 -36 96 -39 q 107 -31 104 -33 l 110 -30 q 113 -23 113 -27 q 100 -14 113 -22 q 74 14 87 -5 q 61 60 61 33 q 138 189 61 126 l 140 190 q 141 194 141 191 q 129 206 141 199 q 96 233 117 213 q 57 283 75 252 q 31 385 31 330 z "},"":{"ha":959,"x_min":22,"x_max":948,"o":"m 408 1139 q 427 1127 408 1139 q 487 1115 446 1115 q 566 1139 528 1115 q 629 1186 605 1162 q 656 1210 652 1210 q 679 1200 667 1210 q 690 1179 690 1190 q 666 1136 690 1172 q 591 1062 642 1100 q 490 1024 541 1024 l 484 1024 q 382 1062 433 1024 q 308 1136 332 1100 q 283 1179 283 1172 q 294 1199 283 1188 q 317 1210 305 1210 q 345 1186 321 1210 q 408 1139 369 1162 m 509 -34 q 167 120 312 -34 q 22 491 22 274 q 158 840 22 700 q 488 981 294 981 q 600 967 545 981 q 686 937 654 954 q 743 905 718 921 q 770 890 768 890 l 776 890 q 812 916 791 890 q 837 944 833 943 q 854 948 844 948 q 873 929 873 948 l 873 891 q 875 811 873 852 q 879 741 876 770 q 884 687 882 711 q 887 650 886 663 q 888 635 888 636 q 849 613 888 613 q 826 626 830 613 q 812 676 822 639 q 773 753 802 713 q 640 869 720 825 q 472 914 560 914 q 364 892 416 914 q 265 826 312 871 q 190 699 218 781 q 161 510 161 617 q 197 283 161 380 q 290 137 232 187 q 406 64 347 87 q 524 41 464 41 q 671 73 602 41 q 753 130 741 106 q 757 155 757 138 l 757 311 q 739 346 757 338 q 666 358 722 354 q 627 361 642 359 q 587 393 587 363 q 618 425 587 425 q 641 423 623 425 q 691 420 659 422 q 761 419 723 419 l 764 419 q 837 420 803 419 q 890 423 871 422 q 913 425 909 425 q 939 416 930 425 q 948 396 948 407 q 913 361 948 373 q 875 332 879 349 q 873 317 873 328 l 873 83 q 854 56 873 56 q 832 70 846 56 q 812 84 818 84 q 793 73 804 84 q 509 -34 671 -34 z "},"":{"ha":610,"x_min":31,"x_max":598,"o":"m 145 876 q 176 890 145 890 q 190 884 186 890 q 195 869 194 879 q 204 842 197 860 q 225 807 212 825 q 308 760 263 760 l 309 760 q 347 768 328 760 q 379 788 366 776 q 404 816 392 800 q 422 844 415 831 q 434 868 429 856 l 439 879 q 457 888 446 888 q 481 879 481 888 q 472 840 481 871 q 444 769 463 810 q 388 697 426 728 q 302 666 350 666 q 145 872 179 666 l 145 876 m 259 555 q 172 512 206 555 q 138 401 138 469 q 179 263 138 321 q 282 205 220 205 q 372 249 338 205 q 406 358 406 293 q 364 495 406 435 q 259 555 323 555 m 115 -122 q 180 -221 115 -183 q 342 -259 244 -259 q 478 -229 438 -259 q 518 -159 518 -198 q 463 -76 518 -102 q 396 -56 434 -61 q 290 -50 358 -52 q 170 -42 221 -47 l 165 -42 q 141 -57 156 -42 q 115 -122 115 -83 m 31 385 q 96 537 31 473 q 255 601 160 601 q 368 576 313 601 q 430 552 423 552 q 503 595 473 552 q 543 628 524 628 q 578 610 562 628 q 595 571 595 591 q 574 529 595 547 q 526 500 553 511 q 496 487 498 488 q 490 476 490 480 q 494 463 490 473 q 502 432 498 452 q 506 389 506 412 q 439 224 506 293 q 275 156 372 156 q 224 162 248 156 q 194 168 199 168 q 153 144 175 168 q 132 98 132 121 q 191 49 132 61 q 341 34 250 37 q 472 19 433 31 q 566 -41 534 1 q 598 -134 598 -84 q 585 -197 598 -165 q 541 -258 571 -228 q 450 -307 510 -288 q 309 -326 391 -326 q 98 -271 159 -326 q 38 -151 38 -216 q 41 -124 38 -137 q 47 -101 43 -111 q 56 -82 52 -91 q 67 -66 61 -73 q 79 -53 73 -58 q 91 -43 85 -47 q 100 -36 96 -39 q 107 -31 104 -33 l 110 -30 q 113 -23 113 -27 q 100 -14 113 -22 q 74 14 87 -5 q 61 60 61 33 q 138 189 61 126 l 140 190 q 141 194 141 191 q 129 206 141 199 q 96 233 117 213 q 57 283 75 252 q 31 385 31 330 z "},"":{"ha":959,"x_min":22,"x_max":948,"o":"m 436 1076 q 424 1087 436 1076 q 412 1131 412 1099 q 437 1187 412 1164 q 494 1210 461 1210 q 551 1187 528 1210 q 574 1133 574 1165 q 550 1077 574 1100 q 494 1054 526 1054 q 436 1076 460 1054 m 509 -34 q 167 120 312 -34 q 22 491 22 274 q 158 840 22 700 q 488 981 294 981 q 600 967 545 981 q 686 937 654 954 q 743 905 718 921 q 770 890 768 890 l 776 890 q 812 916 791 890 q 837 944 833 943 q 854 948 844 948 q 873 929 873 948 l 873 891 q 875 811 873 852 q 879 741 876 770 q 884 687 882 711 q 887 650 886 663 q 888 635 888 636 q 849 613 888 613 q 826 626 830 613 q 812 676 822 639 q 773 753 802 713 q 640 869 720 825 q 472 914 560 914 q 364 892 416 914 q 265 826 312 871 q 190 699 218 781 q 161 510 161 617 q 197 283 161 380 q 290 137 232 187 q 406 64 347 87 q 524 41 464 41 q 671 73 602 41 q 753 130 741 106 q 757 155 757 138 l 757 311 q 739 346 757 338 q 666 358 722 354 q 627 361 642 359 q 587 393 587 363 q 618 425 587 425 q 641 423 623 425 q 691 420 659 422 q 761 419 723 419 l 764 419 q 837 420 803 419 q 890 423 871 422 q 913 425 909 425 q 939 416 930 425 q 948 396 948 407 q 913 361 948 373 q 875 332 879 349 q 873 317 873 328 l 873 83 q 854 56 873 56 q 832 70 846 56 q 812 84 818 84 q 793 73 804 84 q 509 -34 671 -34 z "},"":{"ha":610,"x_min":31,"x_max":598,"o":"m 257 687 q 245 698 257 687 q 233 742 233 709 q 258 798 233 774 q 315 821 282 821 q 372 798 349 821 q 395 743 395 776 q 371 688 395 711 q 315 665 347 665 q 257 687 281 665 m 259 555 q 172 512 206 555 q 138 401 138 469 q 179 263 138 321 q 282 205 220 205 q 372 249 338 205 q 406 358 406 293 q 364 495 406 435 q 259 555 323 555 m 115 -122 q 180 -221 115 -183 q 342 -259 244 -259 q 478 -229 438 -259 q 518 -159 518 -198 q 463 -76 518 -102 q 396 -56 434 -61 q 290 -50 358 -52 q 170 -42 221 -47 l 165 -42 q 141 -57 156 -42 q 115 -122 115 -83 m 31 385 q 96 537 31 473 q 255 601 160 601 q 368 576 313 601 q 430 552 423 552 q 503 595 473 552 q 543 628 524 628 q 578 610 562 628 q 595 571 595 591 q 574 529 595 547 q 526 500 553 511 q 496 487 498 488 q 490 476 490 480 q 494 463 490 473 q 502 432 498 452 q 506 389 506 412 q 439 224 506 293 q 275 156 372 156 q 224 162 248 156 q 194 168 199 168 q 153 144 175 168 q 132 98 132 121 q 191 49 132 61 q 341 34 250 37 q 472 19 433 31 q 566 -41 534 1 q 598 -134 598 -84 q 585 -197 598 -165 q 541 -258 571 -228 q 450 -307 510 -288 q 309 -326 391 -326 q 98 -271 159 -326 q 38 -151 38 -216 q 41 -124 38 -137 q 47 -101 43 -111 q 56 -82 52 -91 q 67 -66 61 -73 q 79 -53 73 -58 q 91 -43 85 -47 q 100 -36 96 -39 q 107 -31 104 -33 l 110 -30 q 113 -23 113 -27 q 100 -14 113 -22 q 74 14 87 -5 q 61 60 61 33 q 138 189 61 126 l 140 190 q 141 194 141 191 q 129 206 141 199 q 96 233 117 213 q 57 283 75 252 q 31 385 31 330 z "},"":{"ha":959,"x_min":22,"x_max":948,"o":"m 509 -34 q 167 120 312 -34 q 22 491 22 274 q 158 840 22 700 q 488 981 294 981 q 600 967 545 981 q 686 937 654 954 q 743 905 718 921 q 770 890 768 890 l 776 890 q 812 916 791 890 q 837 944 833 943 q 854 948 844 948 q 873 929 873 948 l 873 891 q 875 811 873 852 q 879 741 876 770 q 884 687 882 711 q 887 650 886 663 q 888 635 888 636 q 849 613 888 613 q 826 626 830 613 q 812 676 822 639 q 773 753 802 713 q 640 869 720 825 q 472 914 560 914 q 364 892 416 914 q 265 826 312 871 q 190 699 218 781 q 161 510 161 617 q 197 283 161 380 q 290 137 232 187 q 406 64 347 87 q 524 41 464 41 q 671 73 602 41 q 753 130 741 106 q 757 155 757 138 l 757 311 q 739 346 757 338 q 666 358 722 354 q 627 361 642 359 q 587 393 587 363 q 618 425 587 425 q 641 423 623 425 q 691 420 659 422 q 761 419 723 419 l 764 419 q 837 420 803 419 q 890 423 871 422 q 913 425 909 425 q 939 416 930 425 q 948 396 948 407 q 913 361 948 373 q 875 332 879 349 q 873 317 873 328 l 873 83 q 854 56 873 56 q 832 70 846 56 q 812 84 818 84 q 793 73 804 84 q 509 -34 671 -34 m 467 -90 q 553 -136 517 -90 q 590 -248 590 -182 q 536 -381 590 -330 q 449 -433 483 -433 q 423 -408 423 -433 q 431 -391 423 -397 q 454 -375 438 -385 q 483 -354 471 -365 q 518 -289 518 -321 q 503 -252 518 -264 q 469 -238 488 -240 q 427 -227 450 -236 q 393 -202 404 -218 q 382 -165 382 -187 q 408 -111 382 -133 q 467 -90 433 -90 z "},"":{"ha":1058,"x_min":19,"x_max":1043,"o":"m 384 1012 q 368 1019 373 1012 q 362 1031 362 1025 q 412 1103 362 1040 q 481 1188 452 1152 q 534 1221 506 1221 q 570 1202 552 1221 q 699 1039 697 1044 q 700 1032 700 1036 q 694 1019 700 1025 q 678 1012 689 1012 q 642 1031 661 1012 q 618 1050 631 1040 q 599 1067 606 1061 q 583 1080 591 1073 q 570 1090 575 1086 q 560 1099 566 1095 q 551 1105 555 1103 q 545 1108 548 1107 q 538 1110 541 1109 q 532 1111 534 1111 q 456 1061 513 1111 q 384 1012 400 1012 m 271 -1 q 258 0 271 -1 q 220 0 245 0 q 167 -1 194 0 q 120 -3 140 -1 q 85 -5 100 -4 q 60 -7 69 -7 q 49 -8 50 -8 q 20 30 20 -8 q 81 58 20 56 q 115 61 102 60 q 145 74 138 62 q 152 106 152 85 l 152 841 q 149 859 152 852 q 143 871 146 867 q 131 879 140 876 q 118 882 122 882 q 100 885 114 883 q 80 887 85 887 q 61 889 76 888 q 39 892 46 890 q 26 900 33 894 q 19 917 19 906 q 27 941 19 928 q 52 954 35 954 q 77 953 56 954 q 134 951 98 952 q 214 951 171 951 l 218 951 q 300 951 263 951 q 359 953 338 952 q 385 954 381 954 q 411 925 407 954 q 412 918 411 922 q 412 913 412 914 q 398 892 412 897 q 336 884 384 887 q 307 883 317 884 q 275 842 275 882 l 275 613 q 293 593 275 593 l 762 593 q 787 618 787 593 l 787 823 q 757 883 787 872 q 717 889 745 888 q 673 895 689 890 q 658 921 658 901 q 692 954 658 954 q 714 953 696 954 q 764 951 732 952 q 834 951 796 951 q 890 951 861 951 q 940 954 918 952 q 979 956 962 955 q 1006 957 996 956 q 1017 958 1016 958 q 1043 929 1043 958 q 1042 915 1043 921 q 1036 904 1040 909 q 1026 897 1031 899 q 1012 892 1021 894 q 995 889 1002 890 q 972 886 987 888 q 947 883 958 884 q 910 844 910 879 l 910 114 l 910 107 q 948 62 910 65 q 969 62 956 62 q 989 60 982 61 q 1004 58 996 60 q 1018 55 1013 57 q 1027 50 1023 53 q 1033 41 1031 46 q 1035 27 1035 35 q 1006 -8 1035 -8 q 996 -7 1005 -8 q 970 -5 986 -7 q 935 -3 955 -4 q 888 -1 914 -1 q 837 0 863 0 q 785 -1 811 0 q 740 -3 760 -1 q 705 -5 720 -4 q 681 -7 690 -7 q 670 -8 671 -8 q 647 19 647 -8 q 648 32 647 27 q 650 41 648 37 q 654 48 652 46 q 661 52 655 50 q 670 56 666 54 q 683 58 674 57 q 699 59 692 58 q 721 60 707 60 q 746 62 735 61 q 781 76 773 64 q 788 115 788 88 l 788 491 q 769 507 788 507 l 296 507 q 275 483 275 507 l 275 107 q 277 88 275 95 q 295 73 279 81 q 342 61 311 64 q 360 60 345 61 q 384 57 376 58 q 401 49 392 56 q 410 31 410 42 q 388 -8 410 -8 q 378 -7 387 -8 q 353 -5 369 -7 q 317 -3 336 -4 q 271 -1 297 -1 z "},"":{"ha":713,"x_min":16,"x_max":692,"o":"m 66 1012 q 50 1019 56 1012 q 45 1031 45 1025 q 95 1103 45 1040 q 164 1188 134 1152 q 217 1221 189 1221 q 252 1202 235 1221 q 381 1039 380 1044 q 382 1032 382 1036 q 377 1019 382 1025 q 361 1012 372 1012 q 324 1031 343 1012 q 301 1050 313 1040 q 281 1067 289 1061 q 266 1080 274 1073 q 253 1090 258 1086 q 243 1099 248 1095 q 234 1105 237 1103 q 227 1108 231 1107 q 220 1110 224 1109 q 214 1111 217 1111 q 139 1061 195 1111 q 66 1012 83 1012 m 407 11 l 407 20 q 408 31 407 27 q 412 39 408 35 q 418 43 415 42 q 429 46 422 45 q 443 48 437 47 q 462 50 449 49 q 486 53 475 52 q 510 75 506 56 q 514 174 514 94 q 497 370 514 309 q 448 465 480 430 q 335 515 397 515 q 256 493 293 515 q 214 448 220 471 q 213 429 213 442 q 216 85 213 95 q 237 57 220 65 q 272 50 254 49 q 305 43 290 50 q 320 20 320 37 q 304 -8 320 -8 q 296 -7 302 -8 q 277 -5 289 -7 q 250 -3 264 -4 q 215 -1 235 -1 q 176 0 195 0 q 136 -1 156 0 q 101 -3 117 -1 q 73 -5 85 -4 q 54 -7 61 -7 q 46 -8 47 -8 q 30 19 30 -8 q 38 39 30 35 q 80 50 46 43 q 103 62 95 53 q 112 77 111 71 q 114 98 113 83 q 121 479 121 308 l 121 484 q 115 825 121 792 q 64 853 113 842 q 16 883 16 864 q 39 910 16 898 q 198 998 193 998 l 199 998 q 221 972 221 998 l 220 544 q 227 534 220 534 q 250 547 228 534 q 310 573 271 560 q 391 586 349 586 q 576 460 521 586 q 606 344 598 408 q 617 92 613 279 q 624 64 617 73 q 639 52 631 54 q 669 47 647 50 q 692 22 692 45 q 674 -8 692 -8 q 666 -7 673 -8 q 647 -5 659 -7 q 621 -3 635 -4 q 586 -1 606 -1 q 547 0 566 0 q 509 -1 528 0 q 475 -3 490 -1 q 448 -5 460 -4 q 430 -7 437 -7 q 422 -8 423 -8 q 407 11 407 -8 z "},"":{"ha":448,"x_min":9,"x_max":433,"o":"m 297 1096 q 349 1112 326 1096 q 386 1143 372 1127 q 406 1160 400 1160 q 422 1154 411 1160 q 433 1142 433 1149 q 406 1101 433 1134 q 354 1051 378 1069 q 274 1021 316 1021 q 194 1053 237 1021 q 125 1084 151 1084 q 77 1065 98 1084 q 43 1029 56 1047 q 28 1010 31 1010 q 17 1019 24 1010 q 9 1032 9 1027 q 34 1073 9 1036 q 72 1123 58 1109 q 142 1156 104 1156 q 220 1126 174 1156 q 297 1096 266 1096 m 72 944 l 95 943 q 156 939 118 941 q 232 937 194 937 q 304 939 271 937 q 355 941 336 940 q 377 943 373 943 q 400 917 400 943 q 399 905 400 910 q 398 897 399 901 q 395 890 397 892 q 390 885 392 887 q 382 882 388 883 q 374 879 377 880 q 362 877 370 878 q 349 876 354 876 q 332 874 343 875 q 312 872 320 873 q 290 849 290 871 l 290 99 q 315 64 290 66 q 345 62 328 62 q 370 61 361 61 q 390 60 380 61 q 406 57 400 58 q 416 53 411 56 q 422 45 420 50 q 425 33 425 39 q 397 -8 425 -8 q 387 -7 396 -8 q 360 -5 377 -7 q 323 -3 343 -4 q 275 -1 302 -1 q 221 0 248 0 q 167 -1 194 0 q 119 -3 140 -1 q 81 -5 98 -4 q 55 -7 65 -7 q 43 -8 45 -8 q 19 23 22 -8 q 18 37 18 27 q 29 57 18 53 q 84 64 41 61 q 134 66 114 65 q 164 106 164 68 l 164 827 q 165 839 164 831 q 165 848 165 846 q 155 869 165 865 q 106 875 144 873 q 73 876 85 875 q 42 906 42 879 q 72 944 42 944 z "},"":{"ha":336,"x_min":-56,"x_max":368,"o":"m 232 864 q 283 880 260 864 q 321 911 307 895 q 340 928 335 928 q 357 922 346 928 q 368 910 368 917 q 340 869 368 902 q 289 819 313 837 q 209 789 251 789 q 129 821 172 789 q 60 852 85 852 q 12 833 33 852 q -22 797 -9 815 q -37 779 -34 779 q -48 787 -41 779 q -56 800 -56 795 q -31 841 -56 804 q 7 891 -7 878 q 77 924 39 924 q 155 894 109 924 q 232 864 201 864 m 130 168 q 130 300 130 239 q 131 395 130 361 q 132 437 132 430 q 121 458 132 452 q 38 494 111 464 q 20 511 20 500 q 22 519 20 515 q 29 526 24 524 q 38 531 34 529 q 49 536 42 533 q 58 540 56 538 q 212 613 210 613 l 213 613 q 232 590 232 613 l 231 545 q 226 425 228 500 q 224 275 224 350 l 224 229 q 228 77 224 100 q 255 52 232 54 q 307 42 296 46 q 317 22 317 38 q 301 -8 317 -8 q 293 -7 300 -8 q 274 -5 286 -7 q 247 -3 262 -4 q 212 -1 232 -1 q 174 0 193 0 q 134 -1 155 0 q 100 -3 114 -1 q 73 -5 85 -4 q 54 -7 61 -7 q 46 -8 47 -8 q 24 15 24 -8 q 33 42 24 38 q 94 53 42 46 q 124 68 118 57 q 130 103 130 80 l 130 168 z "}}}
